<svg width="50" height="50" viewBox="0 0 50 50" fill="none" xmlns="http://www.w3.org/2000/svg">
<rect width="50" height="50" fill="#F5F5F5"/>
<g clip-path="url(#clip0_0_1)">
<rect width="1080" height="1620" transform="translate(-40 -1530)" fill="white"/>
<rect width="1080" height="366" transform="translate(-40 -276)" fill="white"/>
<rect width="50" height="50" rx="10" fill="#26247B"/>
<path d="M28.8237 28.7245L27.3371 30.9445C23.6038 29.3845 20.6173 26.3858 19.056 22.6431L21.2708 21.1697C22.4815 20.3644 22.8507 18.7524 22.1094 17.5004L20.0254 13.9817C19.5921 13.2497 18.7442 12.8723 17.9096 13.039L17.8868 13.043C14.4736 13.7257 12.2895 17.1564 13.2121 20.5124C15.3934 28.4485 21.5787 34.6152 29.4972 36.7886C32.8531 37.7099 36.2782 35.5232 36.9609 32.1112C37.1275 31.2792 36.7517 30.4338 36.0237 29.9992L32.4997 27.8978C31.2478 27.1525 29.6344 27.5151 28.8237 28.7245Z" fill="white"/>
<path opacity="0.5" d="M32 23C31.448 23 31 22.552 31 22C31 20.3453 29.6533 19 28 19C27.448 19 27 18.552 27 18C27 17.448 27.448 17 28 17C30.756 17 33 19.2427 33 22C33 22.552 32.552 23 32 23ZM37 22C37 17.0373 32.9627 13 28 13C27.448 13 27 13.448 27 14C27 14.552 27.448 15 28 15C31.86 15 35 18.14 35 22C35 22.552 35.448 23 36 23C36.552 23 37 22.552 37 22Z" fill="white"/>
</g>
<defs>
<clipPath id="clip0_0_1">
<rect width="1080" height="1620" fill="white" transform="translate(-40 -1530)"/>
</clipPath>
</defs>
</svg>
