<svg width="20" height="20" viewBox="0 0 20 20" fill="none" xmlns="http://www.w3.org/2000/svg">
<path d="M16.7723 10.5665L13.6617 13.7656C13.51 13.9216 13.3109 14 13.1118 14C12.9126 14 12.7135 13.9216 12.5618 13.7656C12.2577 13.4528 12.2577 12.9472 12.5618 12.6344L14.3453 10.8001H3.77783C3.34769 10.8001 3 10.4417 3 10.0001C3 9.55852 3.34769 9.20013 3.77783 9.20013H14.3453L12.5618 7.36581C12.2577 7.05302 12.2577 6.54738 12.5618 6.23459C12.8659 5.9218 13.3576 5.9218 13.6617 6.23459L16.7723 9.43372C16.8446 9.50812 16.9014 9.59606 16.9411 9.69446C17.0196 9.88965 17.0196 10.1106 16.9411 10.3058C16.9014 10.4042 16.8446 10.4921 16.7723 10.5665Z" fill="white"/>
</svg>
