<svg width="22" height="22" viewBox="0 0 22 22" fill="none" xmlns="http://www.w3.org/2000/svg">
<path d="M22 10.3889V18.6389C22 19.4822 21.3156 20.1667 20.4722 20.1667C19.6289 20.1667 18.9444 19.4822 18.9444 18.6389V8.55556H20.1667C21.1787 8.55556 22 9.37689 22 10.3889ZM19.5556 22H3.66667C1.22222 22 0 20.7778 0 18.3333V3.66667C0 1.22222 1.22222 0 3.66667 0H13.4444C15.8889 0 17.1111 1.22222 17.1111 3.66667V19.5556C17.1111 20.9061 18.2062 22 19.5556 22ZM6.14781 14.63C5.7897 14.2719 5.2091 14.2719 4.85099 14.63L4.27539 15.2056C3.91606 14.883 3.36233 14.8964 3.01766 15.2411C2.65955 15.5992 2.65955 16.1798 3.01766 16.5379L3.62877 17.149C3.80722 17.3275 4.04192 17.4179 4.27658 17.4179C4.51125 17.4179 4.74595 17.3287 4.9244 17.149L6.14662 15.9268C6.50595 15.5675 6.50592 14.9881 6.14781 14.63ZM6.14781 9.74108C5.7897 9.38296 5.2091 9.38296 4.85099 9.74108L4.27539 10.3168C3.91606 9.99409 3.36233 10.0075 3.01766 10.3522C2.65955 10.7103 2.65955 11.2909 3.01766 11.649L3.62877 12.2601C3.80722 12.4386 4.04192 12.529 4.27658 12.529C4.51125 12.529 4.74595 12.4398 4.9244 12.2601L6.14662 11.0379C6.50595 10.6786 6.50592 10.0992 6.14781 9.74108ZM6.14781 4.85219C5.7897 4.49408 5.2091 4.49408 4.85099 4.85219L4.27539 5.42786C3.91606 5.1052 3.36233 5.11863 3.01766 5.4633C2.65955 5.82141 2.65955 6.40201 3.01766 6.76012L3.62877 7.37123C3.80722 7.54967 4.04192 7.64008 4.27658 7.64008C4.51125 7.64008 4.74595 7.5509 4.9244 7.37123L6.14662 6.14901C6.50595 5.78967 6.50592 5.2103 6.14781 4.85219ZM14.3611 15.8889C14.3611 15.3829 13.9504 14.9722 13.4444 14.9722H9.16667C8.66067 14.9722 8.25 15.3829 8.25 15.8889C8.25 16.3949 8.66067 16.8056 9.16667 16.8056H13.4444C13.9504 16.8056 14.3611 16.3949 14.3611 15.8889ZM14.3611 11C14.3611 10.494 13.9504 10.0833 13.4444 10.0833H9.16667C8.66067 10.0833 8.25 10.494 8.25 11C8.25 11.506 8.66067 11.9167 9.16667 11.9167H13.4444C13.9504 11.9167 14.3611 11.506 14.3611 11ZM14.3611 6.11111C14.3611 5.60511 13.9504 5.19444 13.4444 5.19444H9.16667C8.66067 5.19444 8.25 5.60511 8.25 6.11111C8.25 6.61711 8.66067 7.02778 9.16667 7.02778H13.4444C13.9504 7.02778 14.3611 6.61711 14.3611 6.11111Z" fill="white" fill-opacity="0.5"/>
</svg>
