<svg width="22" height="22" viewBox="0 0 22 22" fill="none" xmlns="http://www.w3.org/2000/svg">
<path d="M8.25 6.04994V0.366726C8.25 0.163837 8.41384 0 8.61673 0H13.3833C13.5862 0 13.75 0.163837 13.75 0.366726V6.04994C13.75 6.25283 13.5862 6.41667 13.3833 6.41667H8.61673C8.41384 6.41667 8.25 6.25283 8.25 6.04994ZM22 8.61673V17.875C22 20.625 20.625 22 17.875 22H4.125C1.375 22 0 20.625 0 17.875V8.61673C0 8.41384 0.163837 8.25 0.366726 8.25H21.6333C21.8362 8.25 22 8.41384 22 8.61673ZM14.1546 13.1437L10.3058 10.7884C9.53945 10.3203 8.55436 10.8692 8.55436 11.7651V16.3448C8.55436 17.2407 9.53945 17.7908 10.3058 17.3215L14.1546 14.9663C14.8378 14.5495 14.8378 13.5617 14.1546 13.1437ZM0.366726 6.41667H6.04994C6.25283 6.41667 6.41667 6.25283 6.41667 6.04994V0.366726C6.41667 0.163837 6.25283 0 6.04994 0H4.125C1.375 0 0 1.375 0 4.125V6.04994C0 6.25283 0.163837 6.41667 0.366726 6.41667ZM17.875 0H15.9501C15.7472 0 15.5833 0.163837 15.5833 0.366726V6.04994C15.5833 6.25283 15.7472 6.41667 15.9501 6.41667H21.6333C21.8362 6.41667 22 6.25283 22 6.04994V4.125C22 1.375 20.625 0 17.875 0Z" fill="#26247B"/>
</svg>
