<svg width="22" height="22" viewBox="0 0 22 22" fill="none" xmlns="http://www.w3.org/2000/svg">
<path d="M10.154 17.4864C7.04348 17.4864 4.51288 14.956 4.51288 11.8458C4.51288 9.26461 6.25489 7.02064 8.74825 6.38663C9.34283 6.23546 9.96557 6.59775 10.119 7.20243C10.2736 7.80711 9.90687 8.42088 9.30327 8.5743C7.81177 8.95335 6.76932 10.2991 6.76932 11.8469C6.76932 13.7128 8.28791 15.2312 10.154 15.2312C11.7008 15.2312 13.0467 14.1888 13.427 12.6963C13.5804 12.0916 14.1953 11.7262 14.7989 11.8807C15.4025 12.0342 15.7669 12.6491 15.6134 13.2526C14.9782 15.7458 12.7342 17.4864 10.154 17.4864ZM20.308 11.8458C20.308 11.5998 20.2944 11.3549 20.2662 11.109C20.1963 10.4908 19.657 10.0397 19.0184 10.1164C18.399 10.1863 17.9556 10.7458 18.0256 11.3652C18.0436 11.5253 18.0515 11.6855 18.0515 11.8469C18.0515 16.2014 14.5078 19.7437 10.154 19.7437C5.80018 19.7437 2.25644 16.2014 2.25644 11.8469C2.25644 7.49229 5.80018 3.94998 10.154 3.94998C10.3153 3.94998 10.4766 3.95894 10.6391 3.97587C11.2517 4.05258 11.8159 3.60041 11.8847 2.97994C11.9535 2.3606 11.5067 1.8033 10.8874 1.73449C10.6437 1.70741 10.3977 1.69372 10.154 1.69372C4.55463 1.69372 0 6.2491 0 11.8469C0 17.4446 4.55463 22 10.154 22C15.7533 22 20.308 17.4435 20.308 11.8458ZM21.9574 4.86162C21.8705 4.65066 21.6641 4.51294 21.4362 4.51294H17.4874V0.564495C17.4874 0.336613 17.3498 0.130263 17.1388 0.0433971C16.9289 -0.0445968 16.6864 0.00381132 16.5239 0.165133L13.6346 3.05431C13.2149 3.47397 12.9734 4.05615 12.9734 4.64955V7.4302L9.3552 11.0481C8.91406 11.4892 8.91406 12.2023 9.3552 12.6434C9.5752 12.8634 9.86406 12.9739 10.1529 12.9739C10.4417 12.9739 10.7305 12.8634 10.9505 12.6434L14.5687 9.02544H17.3498C17.9432 9.02544 18.5254 8.78522 18.9451 8.36443L21.8345 5.47526C21.9958 5.31394 22.0443 5.07258 21.9574 4.86162Z" fill="#26247B"/>
</svg>
