<svg width="22" height="22" viewBox="0 0 22 22" fill="none" xmlns="http://www.w3.org/2000/svg">
<path d="M5.5 18.3456C5.5 19.2378 5.76889 20.0444 6.27001 20.7411C2.99445 20.5333 0 19.3356 0 17.1233V16.0478C1.28333 17.05 3.17778 17.7222 5.5 17.9422V18.3456ZM5.54886 13.3711C5.53664 13.3833 5.5367 13.3955 5.5367 13.4077C5.51226 13.53 5.5 13.6522 5.5 13.7745V16.1089C2.54222 15.7667 0 14.5934 0 12.5522V11.4767C1.28333 12.4911 3.19004 13.1633 5.5367 13.3711H5.54886V13.3711ZM10.3156 8.89781C8.45778 9.47226 7.00334 10.4133 6.19668 11.5866C2.94556 11.3789 0 10.1811 0 7.98115V7.14997C1.60111 8.40886 4.16778 9.1422 7.33333 9.1422C8.39667 9.1422 9.39889 9.0567 10.3156 8.89781ZM14.6667 7.14997V7.98115C14.6667 8.09115 14.6544 8.18892 14.6422 8.2867C13.6766 8.2867 12.76 8.37219 11.9044 8.51885C13.0044 8.18885 13.9333 7.72441 14.6667 7.14997ZM7.33333 0C3.66667 0 0 1.22221 0 3.65443C0 6.1111 3.66667 7.30886 7.33333 7.30886C11 7.30886 14.6667 6.1111 14.6667 3.65443C14.6667 1.22221 11 0 7.33333 0ZM14.6667 19.2622C11.5989 19.2622 8.98333 18.4556 7.33333 17.1478V18.3456C7.33333 20.7778 11 22 14.6667 22C18.3333 22 22 20.7778 22 18.3456V17.1478C20.35 18.4556 17.7344 19.2622 14.6667 19.2622ZM14.6667 10.12C10.6211 10.12 7.33333 11.7578 7.33333 13.7745C7.33333 15.7911 10.6211 17.4289 14.6667 17.4289C18.7122 17.4289 22 15.7911 22 13.7745C22 11.7578 18.7122 10.12 14.6667 10.12Z" fill="#26247B"/>
</svg>
