<svg xmlns="http://www.w3.org/2000/svg" width="400" height="300" viewBox="0 0 400 300"><rect width="100%" height="100%" fill="#DDDDDD"/><path fill="#999999" d="M104.95 130.805v24.1h4.35v5.96h-4.35v8.33h-7.68v-8.33H81.61l-.34-4.62 15.92-25.44h7.76Zm-8.44 11.31-8.07 12.79h8.83v-13.82l-.16-.05-.6 1.08Zm42.71 3.67v8.46q0 7.62-3.49 11.56-3.49 3.94-9.45 3.94-6.02 0-9.52-3.94-3.51-3.94-3.51-11.56v-8.46q0-7.6 3.49-11.57 3.5-3.96 9.48-3.96 5.96 0 9.48 3.96 3.52 3.97 3.52 11.57Zm-7.67 9.2v-10q0-4.56-1.37-6.68t-3.96-2.12q-2.61 0-3.95 2.11-1.35 2.11-1.35 6.69v10q0 4.64 1.36 6.75 1.36 2.11 4 2.11 2.58 0 3.93-2.11 1.34-2.11 1.34-6.75Zm38.65-9.2v8.46q0 7.62-3.49 11.56-3.49 3.94-9.45 3.94-6.01 0-9.52-3.94t-3.51-11.56v-8.46q0-7.6 3.5-11.57 3.49-3.96 9.48-3.96 5.95 0 9.47 3.96 3.52 3.97 3.52 11.57Zm-7.67 9.2v-10q0-4.56-1.37-6.68t-3.95-2.12q-2.62 0-3.96 2.11-1.34 2.11-1.34 6.69v10q0 4.64 1.35 6.75 1.36 2.11 4 2.11 2.58 0 3.93-2.11 1.34-2.11 1.34-6.75Zm29.85 8.75-4.54-4.32 8.15-8.31-8.15-8.3 4.54-4.33 7.99 8.18 8.01-8.18 4.54 4.33-8.15 8.3 8.15 8.31-4.54 4.32-8.01-8.15-7.99 8.15Zm46.3-11.23v-5.77H243q2.75 0 4.06-1.44 1.32-1.44 1.32-4 0-2.32-1.32-3.71-1.31-1.4-3.82-1.4-2.16 0-3.64 1.26-1.47 1.27-1.47 3.33h-7.47l-.05-.16q-.16-4.51 3.46-7.44 3.61-2.92 8.96-2.92 5.96 0 9.51 2.84 3.54 2.85 3.54 8.12 0 2.51-1.58 4.76-1.58 2.26-4.35 3.52 3.19 1.14 4.86 3.48 1.68 2.35 1.68 5.46 0 5.28-3.84 8.29-3.83 3.02-9.82 3.02-5.35 0-9.19-2.83-3.84-2.84-3.7-8l.05-.16h7.46q0 2.21 1.58 3.65 1.59 1.44 4.01 1.44 2.66 0 4.21-1.48 1.54-1.48 1.54-4.01 0-3.03-1.52-4.44-1.51-1.41-4.47-1.41h-4.32Zm49.07-6.72v8.46q0 7.62-3.49 11.56-3.5 3.94-9.46 3.94-6.01 0-9.52-3.94-3.5-3.94-3.5-11.56v-8.46q0-7.6 3.49-11.57 3.49-3.96 9.48-3.96 5.96 0 9.48 3.96 3.52 3.97 3.52 11.57Zm-7.67 9.2v-10q0-4.56-1.37-6.68-1.38-2.12-3.96-2.12-2.61 0-3.96 2.11-1.34 2.11-1.34 6.69v10q0 4.64 1.36 6.75 1.36 2.11 3.99 2.11 2.59 0 3.93-2.11 1.35-2.11 1.35-6.75Zm38.65-9.2v8.46q0 7.62-3.49 11.56-3.5 3.94-9.46 3.94-6.01 0-9.51-3.94-3.51-3.94-3.51-11.56v-8.46q0-7.6 3.49-11.57 3.5-3.96 9.48-3.96 5.96 0 9.48 3.96 3.52 3.97 3.52 11.57Zm-7.67 9.2v-10q0-4.56-1.37-6.68t-3.96-2.12q-2.61 0-3.95 2.11-1.35 2.11-1.35 6.69v10q0 4.64 1.36 6.75 1.36 2.11 3.99 2.11 2.59 0 3.93-2.11 1.35-2.11 1.35-6.75Z"/></svg>