<svg width="208" height="46" viewBox="0 0 208 46" fill="none" xmlns="http://www.w3.org/2000/svg">
<path d="M52.5619 41.799L47.8051 43.272C47.7581 43.2718 47.6894 43.2713 47.5999 43.2703C47.4147 43.2684 47.1409 43.2645 46.7878 43.2568C46.0816 43.2412 45.0586 43.2101 43.7944 43.1477C41.2653 43.0231 37.7734 42.7737 33.9218 42.2753L33.9212 42.2752C30.0361 41.7768 27.7155 41.6503 26.1762 41.6503C25.4054 41.6503 24.8344 41.682 24.367 41.7135C24.2793 41.7194 24.1962 41.7252 24.117 41.7308C23.768 41.7552 23.4926 41.7745 23.2151 41.7745C22.5175 41.7745 20.971 41.653 19.5728 41.5281C18.8794 41.4662 18.231 41.4042 17.7558 41.3578C17.5183 41.3345 17.3241 41.3152 17.1894 41.3016L17.034 41.2859L16.9935 41.2818L16.9832 41.2807L16.9806 41.2805L16.98 41.2804L16.9798 41.2804L16.6514 41.2467L16.4914 41.5355L14.6802 44.8071L10.2412 45.263L5.20304 42.8953L1.46862 35.6573V30.3279L2.39104 25.0967L7.03764 22.2189L7.07901 22.1933L7.11467 22.1602L11.9515 17.6668L11.9612 17.6578L11.9704 17.6482L11.9704 17.6482L11.9705 17.6482L11.9706 17.648L11.9717 17.647L11.9763 17.6422L11.9957 17.6224C12.0129 17.6048 12.0388 17.5786 12.0723 17.5448C12.1395 17.4773 12.2376 17.3798 12.3599 17.2611C12.605 17.0232 12.946 16.7016 13.3306 16.3654C13.7161 16.0285 14.1402 15.6815 14.5517 15.3909C14.9701 15.0954 15.3468 14.8788 15.6413 14.7779C16.4851 14.4887 17.2792 13.7886 17.8318 13.2166C18.116 12.9224 18.3522 12.6452 18.5174 12.4415C18.6002 12.3395 18.6656 12.2553 18.7107 12.196C18.7176 12.1871 18.7239 12.1787 18.7298 12.1709L24.3227 8.3207L30.9145 8.80449L31.0839 8.81693L31.2259 8.7235L36.4238 5.30213L46.4869 4.31002L46.5088 4.30786L46.5304 4.3038L51.802 3.31132H58.5224H58.5527L58.5828 3.30766L66.8069 2.3065L66.8961 2.29564L66.976 2.2544L69.6712 0.861934L80.4347 5.21003L85.1057 12.45V21.7389L83.7089 27.9984L80.4721 30.3863L80.3924 30.4451L80.3412 30.5298L77.9785 34.4344L73.7436 37.3467L67.5949 40.2767H59.4838C58.2055 40.2767 56.4566 40.6683 55.0662 41.0428C54.3626 41.2323 53.7358 41.4216 53.285 41.5635C53.0594 41.6345 52.8775 41.6938 52.7517 41.7354C52.6887 41.7562 52.6398 41.7726 52.6064 41.7839L52.5681 41.7969L52.5619 41.799Z" fill="#FFFFFE" stroke="#CCCCCC" stroke-width="0.999734"/>
<path d="M104.953 16.11H106.153V29.67H104.953V16.11ZM100.018 20.97H102.613V22.005H100.018V20.97ZM102.238 16.425H103.408V28.98H102.238V16.425ZM97.4084 18.21H98.3684V19.935C98.3684 22.905 97.2284 25.71 95.2334 26.97L94.4684 26.04C96.3584 24.9 97.4084 22.425 97.4084 19.935V18.21ZM97.6634 18.21H98.6234V19.935C98.6234 22.29 99.6434 24.645 101.503 25.725L100.738 26.64C98.7584 25.44 97.6634 22.77 97.6634 19.935V18.21ZM94.8434 17.685H101.038V18.72H94.8434V17.685ZM113.877 17.445H114.957V18.015C114.957 20.445 112.377 22.23 109.647 22.695L109.167 21.705C111.552 21.36 113.877 19.8 113.877 18.015V17.445ZM114.192 17.445H115.257V18.015C115.257 19.8 117.597 21.36 119.967 21.705L119.502 22.695C116.757 22.23 114.192 20.445 114.192 18.015V17.445ZM113.922 24.495H115.152V29.67H113.922V24.495ZM108.447 23.835H120.702V24.855H108.447V23.835ZM109.587 16.95H119.517V17.955H109.587V16.95ZM122.231 23.265H134.486V24.285H122.231V23.265ZM123.596 25.575H132.911V29.67H131.666V26.595H123.596V25.575ZM123.851 21.03H133.046V22.005H123.851V21.03ZM123.851 16.47H132.986V17.445H125.081V21.48H123.851V16.47ZM124.721 18.72H132.626V19.665H124.721V18.72ZM142.435 18.03H146.26V19.005H142.435V18.03ZM142.435 20.505H146.26V21.48H142.435V20.505ZM145.945 16.11H147.19V23.175H145.945V16.11ZM138.46 23.85H147.19V27.06H139.705V29.145H138.49V26.13H145.96V24.84H138.46V23.85ZM138.49 28.5H147.685V29.49H138.49V28.5ZM136.705 16.725H137.935V18.675H141.61V16.725H142.825V22.65H136.705V16.725ZM137.935 19.65V21.645H141.61V19.65H137.935ZM153.189 18.045H154.179V20.25C154.179 23.07 152.454 25.98 150.339 27.06L149.619 26.07C151.554 25.125 153.189 22.545 153.189 20.25V18.045ZM153.414 18.045H154.404V20.25C154.404 22.395 155.934 24.81 157.899 25.74L157.194 26.73C155.049 25.665 153.414 22.935 153.414 20.25V18.045ZM150.099 17.49H157.404V18.54H150.099V17.49ZM159.009 16.11H160.269V29.67H159.009V16.11ZM159.969 21.585H162.489V22.635H159.969V21.585ZM173.498 16.11H174.743V29.67H173.498V16.11ZM167.393 19.335H168.398V20.49C168.398 23.385 166.763 26.01 164.588 27.06L163.883 26.1C165.893 25.17 167.393 22.86 167.393 20.49V19.335ZM167.633 19.335H168.623V20.49C168.623 22.755 170.168 24.96 172.193 25.845L171.488 26.82C169.298 25.83 167.633 23.295 167.633 20.49V19.335ZM164.258 18.465H171.728V19.47H164.258V18.465ZM167.393 16.35H168.638V19.02H167.393V16.35ZM178.986 22.44H188.301V23.46H178.986V22.44ZM177.441 26.925H189.726V27.975H177.441V26.925ZM182.931 22.875H184.176V27.345H182.931V22.875ZM178.986 17.19H188.166V18.21H180.231V22.89H178.986V17.19Z" fill="#222222"/>
<ellipse cx="45.1879" cy="23.1256" rx="2.21138" ry="2.28187" fill="#222222"/>
</svg>
