<svg width="543" height="484" viewBox="0 0 543 484" fill="none" xmlns="http://www.w3.org/2000/svg">
<path d="M424.982 189.195V484.001H351.014V246.331C375.593 229.463 400.375 210.476 424.982 189.195Z" fill="url(#paint0_linear_3709_96662)" fill-opacity="0.2"/>
<path d="M542 66V483.991H468.032V149.265C493.25 124.268 518.032 96.6003 542 66Z" fill="url(#paint1_linear_3709_96662)" fill-opacity="0.2"/>
<path d="M308.003 483.99H234.036V313.645C257.974 302.322 282.756 289.2 308.003 274.016V483.99Z" fill="url(#paint2_linear_3709_96662)" fill-opacity="0.2"/>
<path d="M190.978 332.508V483.981H117.01V358.492C139.727 351.727 164.567 343.25 190.978 332.537V332.508Z" fill="url(#paint3_linear_3709_96662)" fill-opacity="0.2"/>
<path d="M73.9679 369.93V483.98H0V383.081C14.6307 381.456 40.4017 377.856 73.9679 369.93Z" fill="url(#paint4_linear_3709_96662)" fill-opacity="0.2"/>
<path d="M0.0268419 465.584C1.72504 465.421 3.49839 465.053 5.45069 464.461C7.13636 463.949 8.82024 463.322 10.4504 462.716L10.7332 462.611C12.7499 461.85 14.3926 461.159 15.9011 460.435C16.8442 459.98 17.6566 459.548 18.3795 459.112C19.038 458.713 19.8916 458.163 20.636 457.445C21.0029 457.089 21.2784 456.728 21.4753 456.345C21.6918 455.927 21.9441 455.506 22.2448 455.061C22.8478 454.194 23.4974 453.444 24.1792 452.832C25.6805 451.45 27.4378 450.565 29.2594 450.272C29.6978 450.201 30.1524 450.166 30.6087 450.166C31.9848 450.166 33.4378 450.497 34.8121 451.126C36.3135 451.812 37.8041 452.84 39.3663 454.267C40.8569 452.577 42.2688 450.613 43.5661 448.425C44.91 446.142 45.9515 443.843 46.6655 441.597C46.8426 441.051 46.9858 440.511 47.1379 439.939L47.1826 439.773C47.3741 439.089 47.5942 438.491 47.8555 437.945C48.1579 437.308 48.514 436.76 48.9095 436.314C49.389 435.776 49.9151 435.4 50.4752 435.201C50.7723 435.091 51.0908 435.031 51.4165 435.023H51.4451C51.7637 435.023 52.0732 435.067 52.3649 435.158C52.9393 435.329 53.4905 435.654 54.0041 436.121C54.854 436.886 55.5609 437.918 56.1604 439.277C56.3053 439.608 56.4216 439.903 56.5218 440.176C56.5898 440.375 56.6525 440.573 56.7151 440.772C56.7491 440.879 56.8511 441.202 56.869 441.256C56.9012 441.357 56.9352 441.46 56.962 441.562L57.0801 442.029C57.1088 442.137 57.1374 442.248 57.1642 442.358C57.2143 442.556 57.2627 442.751 57.3199 442.945C57.515 443.597 57.753 444.14 58.0447 444.604C58.3918 445.15 58.7926 445.565 59.2346 445.834C59.7071 446.13 60.2511 446.295 60.8076 446.308C60.8523 446.308 60.8953 446.31 60.9382 446.31C61.4231 446.31 61.9367 446.215 62.4646 446.028C63.4291 445.679 64.4026 445.067 65.4387 444.161C66.269 443.429 67.0671 442.546 67.8813 441.463C68.6025 440.497 69.261 439.44 69.839 438.322C71.0433 435.983 71.8145 433.59 72.1348 431.206L72.2046 430.689L72.5554 430.67L72.6717 431.179C72.9294 432.306 73.1226 433.437 73.2765 434.395C73.4286 435.366 73.6022 436.496 73.74 437.629C73.8134 438.214 73.8885 438.799 73.9637 439.386C74.1641 440.931 74.3699 442.528 74.5166 444.109L75.1894 450.592C75.3702 452.253 75.5259 453.948 75.6744 455.584L75.6815 455.659L76.7624 452.377L78.2637 447.739L84.2745 429.19L85.6918 424.527C86.1964 422.872 86.6438 421.379 87.0088 419.847L87.1305 419.34L87.5134 419.657C88.3366 420.341 89.0703 421.138 89.6805 421.83C89.7986 421.973 89.9113 422.111 90.0258 422.248C90.2388 422.506 90.45 422.761 90.6593 423.023L90.7363 423.127C90.7917 423.201 90.8454 423.274 90.8991 423.356C90.9689 423.472 91.0262 423.547 91.0995 423.644C91.2301 423.807 91.4216 423.898 91.5594 423.944C91.6006 423.958 91.6435 423.97 91.6883 423.975C91.7312 423.983 91.7741 423.983 91.8225 423.985H91.8493C91.9424 423.985 92.0283 423.975 92.1141 423.954C92.2985 423.911 92.4864 423.826 92.6886 423.697C93.0339 423.47 93.3882 423.168 93.7712 422.775C94.5013 421.998 95.1419 421.257 95.7306 420.505L96.0706 420.072L96.2764 420.592C96.5538 421.291 96.9063 422.006 97.3251 422.713C97.7617 423.443 98.209 424.055 98.6922 424.58C99.2344 425.172 99.8178 425.647 100.423 425.991C101.074 426.363 101.761 426.593 102.466 426.675C102.659 426.698 102.863 426.71 103.071 426.71C103.225 426.71 103.382 426.704 103.54 426.69C103.883 426.657 104.229 426.576 104.562 426.446C105.217 426.195 105.789 425.74 106.215 425.128C106.614 424.566 106.906 423.861 107.085 423.036C107.242 422.302 107.305 421.512 107.271 420.691V420.652C107.808 414.21 108.325 408.48 108.856 403.128C109.162 400.043 109.461 397.181 109.771 394.383C110.08 391.587 110.419 388.608 110.825 385.653L111.397 381.298C111.569 380.036 111.773 378.694 112.061 376.949C112.262 375.758 112.541 374.191 112.918 372.623L112.927 372.586C113.011 372.245 113.097 371.891 113.189 371.55C113.289 371.194 113.393 370.841 113.498 370.493L113.629 370.057C113.792 369.513 113.96 368.95 114.139 368.4L114.801 366.32L115.134 365.28L116.873 360.11C117.312 358.808 117.782 357.408 118.255 355.977L118.938 353.909L119.874 350.873L120.266 351.789C121.035 353.588 121.663 354.951 122.302 356.21C122.743 357.077 123.099 357.726 123.46 358.317C123.836 358.927 124.29 359.628 124.82 360.218C125.115 360.543 125.375 360.778 125.632 360.958C125.706 361.008 125.781 361.059 125.856 361.105L126.135 361.242C126.194 361.272 126.25 361.301 126.304 361.314C126.413 361.353 126.484 361.374 126.55 361.39C126.907 361.461 127.281 361.521 127.664 361.579C128.046 361.643 128.424 361.694 128.786 361.732C129.321 361.791 129.807 361.818 130.276 361.818C130.528 361.818 130.777 361.81 131.017 361.792C131.833 361.732 132.522 361.564 133.12 361.281L133.592 361.059L133.647 361.614C133.766 362.792 133.902 364.128 134.097 365.427C134.181 365.979 134.288 366.632 134.437 367.292C134.585 367.97 134.757 368.547 134.963 369.058C135.07 369.316 135.194 369.589 135.355 369.834C135.532 370.104 135.704 370.309 135.881 370.464C136.24 370.783 136.679 370.958 137.121 370.958C137.169 370.958 137.217 370.956 137.268 370.952L137.459 370.921C137.534 370.911 137.584 370.901 137.627 370.886C137.769 370.847 137.924 370.787 138.03 370.745C138.296 370.64 138.568 370.522 138.837 370.396C139.102 370.272 139.367 370.139 139.63 370.007L140.43 369.573C141.369 369.079 142.36 368.5 143.552 367.755C144.615 367.087 145.63 366.405 146.567 365.731C147.643 364.957 148.58 364.223 149.43 363.485C150.186 362.821 151.157 361.926 151.95 360.88L152.342 360.365L152.609 360.966C153.043 361.945 153.464 362.947 153.87 363.917C154.26 364.844 154.661 365.805 155.074 366.736C155.275 367.193 155.491 367.67 155.717 368.156L156.05 368.859C156.121 369.002 156.198 369.147 156.273 369.292C156.316 369.376 156.359 369.457 156.402 369.54C156.488 369.701 156.572 369.865 156.658 370.03C156.808 370.319 156.962 370.617 157.123 370.901C157.429 371.424 157.682 371.812 157.939 372.154C158.081 372.338 158.233 372.534 158.401 372.714C158.596 372.925 158.75 373.074 158.906 373.196C159.077 373.332 159.273 373.458 159.469 373.558C159.664 373.653 159.865 373.721 160.065 373.754C160.174 373.773 160.287 373.783 160.402 373.783C160.496 373.783 160.591 373.777 160.683 373.764C160.878 373.734 161.074 373.671 161.27 373.574C161.457 373.481 161.622 373.365 161.788 373.208C161.869 373.132 161.944 373.051 162.014 372.968L162.245 372.671C163.519 371.014 165.042 369.596 166.514 368.225L166.874 367.89L167.116 368.326C167.257 368.582 167.393 368.841 167.531 369.099C167.606 369.24 167.681 369.381 167.756 369.525L168.075 370.125L168.377 370.739C168.783 371.579 169.159 372.42 169.492 373.239C170.306 375.258 170.813 376.945 171.088 378.545C171.269 379.631 171.308 380.566 171.21 381.405C171.138 382.35 171.137 383.221 171.206 384.06C171.36 386.037 171.72 387.961 172.015 389.418C172.674 392.613 173.574 396.052 174.771 399.935C175.396 401.939 175.945 403.569 176.501 405.068C176.575 405.258 176.648 405.449 176.722 405.643C176.963 406.28 177.214 406.939 177.491 407.564C177.695 408.037 177.878 408.408 178.065 408.736L178.23 409.005L178.271 409.065C178.314 409.127 178.354 409.185 178.395 409.231C178.42 409.26 178.447 409.291 178.473 409.322C178.511 409.365 178.547 409.41 178.586 409.448L178.701 409.545L178.812 409.64L178.851 409.667L178.924 409.712C178.971 409.737 179.021 409.764 179.073 409.787C179.123 409.81 179.171 409.83 179.22 409.845C179.264 409.859 179.322 409.87 179.377 409.884C179.465 409.901 179.558 409.911 179.651 409.911C179.771 409.911 179.892 409.896 180.011 409.867C180.218 409.812 180.419 409.712 180.592 409.574L180.667 409.512C180.682 409.501 180.689 409.493 180.698 409.485L180.725 409.458C180.735 409.446 180.755 409.427 180.775 409.409C180.798 409.388 180.819 409.367 180.841 409.342C180.868 409.307 180.9 409.266 180.934 409.227C180.984 409.167 181.031 409.113 181.068 409.051C181.208 408.846 181.331 408.621 181.449 408.356L181.481 408.286C181.583 408.062 181.689 407.829 181.779 407.591C181.993 407.047 182.183 406.495 182.355 405.98C183.062 403.825 183.695 401.61 184.337 399.338L186.426 391.976C186.674 391.095 186.932 390.185 187.215 389.296L187.981 386.802C188.038 386.618 188.101 386.438 188.162 386.257L188.258 385.971L188.686 384.681L189.6 388.12C189.726 388.591 189.856 389.079 189.964 389.565C190.225 390.692 190.479 391.871 190.742 393.165C190.985 394.375 191.22 395.591 191.436 396.782L192.662 404.044C192.793 404.826 192.914 405.622 193.031 406.391C193.097 406.82 193.161 407.25 193.229 407.682L194.002 412.711L199.405 387.053L204.149 389.28L206.099 385.018L206.475 385.843C206.618 386.157 206.772 386.488 206.953 386.798C207.137 387.113 207.332 387.396 207.536 387.638C207.753 387.896 207.99 388.109 208.245 388.273C208.375 388.358 208.508 388.426 208.651 388.484C208.785 388.54 208.925 388.581 209.075 388.608C209.197 388.632 209.318 388.643 209.442 388.643C209.9 388.643 210.365 388.48 210.755 388.184C210.99 388.01 211.212 387.779 211.414 387.501C211.467 387.421 211.525 387.338 211.582 387.255C211.734 387.034 211.877 386.827 212.011 386.602C212.36 386.046 212.715 385.444 213.126 384.706L213.663 383.736L216.829 377.712L217.033 378.965C217.188 379.921 217.364 380.68 217.587 381.352C217.872 382.21 218.239 382.88 218.677 383.343C218.738 383.407 218.802 383.471 218.87 383.529L218.978 383.62C219.01 383.647 219.039 383.668 219.071 383.694C219.141 383.744 219.218 383.794 219.298 383.843C219.316 383.854 219.334 383.864 219.354 383.874L219.402 383.899L219.522 383.959C219.813 384.094 220.143 384.166 220.47 384.166H220.492C220.826 384.162 221.166 384.087 221.478 383.947C221.628 383.879 221.78 383.796 221.947 383.69C222.093 383.595 222.238 383.484 222.378 383.362C222.499 383.256 222.628 383.13 222.788 382.965C222.909 382.838 223.034 382.691 223.158 382.532C223.267 382.396 223.371 382.245 223.487 382.059L223.815 381.548C224.176 380.924 224.525 380.206 224.878 379.362C225.574 377.687 226.141 375.969 226.558 374.66C227.191 372.664 227.787 370.613 228.365 368.628C228.712 367.433 229.072 366.198 229.435 364.984C229.897 363.448 230.405 361.802 230.985 360.158C231.316 359.223 231.61 358.468 231.91 357.782C232.109 357.329 232.284 356.959 232.461 356.62C232.574 356.409 232.68 356.221 232.787 356.049C232.851 355.946 232.911 355.855 232.975 355.766L233.331 355.307C233.331 355.307 234.659 355.532 234.745 355.547C234.958 355.584 235.18 355.623 235.391 355.646C235.561 355.666 235.729 355.689 235.897 355.712C236.316 355.768 236.749 355.826 237.164 355.826H237.23C237.842 355.826 238.393 355.735 238.869 355.553C239.395 355.356 239.872 355.025 240.249 354.597C240.619 354.174 240.918 353.654 241.138 353.051C241.192 352.906 241.242 352.759 241.287 352.608L241.403 352.145L241.52 351.671L241.625 351.185C241.675 350.968 241.733 350.751 241.79 350.536C241.82 350.424 241.851 350.309 241.879 350.197C241.979 349.794 242.073 349.486 242.178 349.202C242.314 348.824 242.445 348.516 242.59 348.234C242.686 348.046 242.778 347.893 242.876 347.753C242.931 347.674 242.998 347.593 243.069 347.515C243.107 347.476 243.146 347.438 243.189 347.401C243.229 347.368 243.264 347.339 243.313 347.308L243.309 347.285L243.461 347.24C243.501 347.229 243.549 347.219 243.583 347.215C243.606 347.213 243.628 347.211 243.647 347.211C243.676 347.211 243.699 347.211 243.722 347.215C243.794 347.219 243.882 347.238 243.934 347.254C244.034 347.281 244.136 347.318 244.25 347.37C244.463 347.465 244.657 347.589 244.801 347.685C245.054 347.852 245.286 348.046 245.512 348.234C245.583 348.294 245.655 348.352 245.723 348.408C245.807 348.479 245.895 348.536 245.986 348.598C246.042 348.634 246.099 348.671 246.154 348.712C246.285 348.807 246.437 348.882 246.593 348.956C246.89 349.093 247.205 349.18 247.527 349.213C247.598 349.221 247.668 349.225 247.738 349.225C247.969 349.225 248.216 349.188 248.466 349.115C248.758 349.031 249.037 348.884 249.32 348.667C249.785 348.313 250.195 347.767 250.572 346.992C250.755 346.609 250.893 346.266 250.997 345.947L251.383 344.837L252.09 342.571C252.349 341.706 252.63 340.962 252.947 340.296C253.101 339.982 253.316 339.576 253.627 339.206C253.699 339.121 253.79 339.03 253.883 338.952C254.001 338.851 254.125 338.778 254.244 338.731C254.277 338.72 254.312 338.708 254.343 338.698C254.38 338.689 254.418 338.679 254.456 338.673C254.516 338.664 254.577 338.66 254.643 338.66C254.771 338.66 254.881 338.673 255.012 338.7C255.087 338.72 255.168 338.739 255.234 338.757L255.434 338.813C255.553 338.85 255.662 338.873 255.78 338.894L256.206 338.981C256.335 339.008 256.46 339.033 256.581 339.047C256.836 339.078 257.09 339.094 257.342 339.094C257.594 339.094 257.865 339.078 258.12 339.045C258.652 338.977 259.155 338.853 259.616 338.675C260.1 338.487 260.57 338.245 261.014 337.955C261.83 337.422 262.617 336.706 263.417 335.765C264.013 335.07 264.564 334.293 265.098 333.544C265.216 333.377 265.334 333.211 265.454 333.044L265.862 332.475L266.271 333.325C266.676 334.163 267.093 335.029 267.486 335.877L268.134 337.256C268.209 337.428 268.295 337.585 268.387 337.75C268.417 337.804 268.9 338.693 268.9 338.693C268.938 338.76 268.973 338.83 269.013 338.896L269.208 339.208C269.353 339.432 269.487 339.626 269.618 339.796C269.942 340.221 270.251 340.548 270.566 340.796C270.758 340.943 270.94 341.063 271.112 341.15C271.323 341.257 271.514 341.328 271.699 341.375C271.896 341.423 272.096 341.448 272.293 341.448C272.506 341.448 272.717 341.419 272.921 341.363C273.286 341.264 273.646 341.071 274.056 340.751C274.367 340.507 274.694 340.199 275.086 339.781C275.233 339.624 275.389 339.45 275.573 339.235L276.042 338.664L276.514 338.087L276.972 337.5L278.796 335.108C279.152 334.644 279.449 334.266 279.732 333.915C279.941 333.65 280.167 333.391 280.387 333.141C280.498 333.013 280.608 332.887 280.718 332.759L281.247 332.138L281.761 334.409C281.832 334.727 281.893 335.046 281.954 335.356C281.986 335.527 282.019 335.695 282.054 335.865L282.616 338.77C282.793 339.696 282.985 340.683 283.2 341.652C283.404 342.562 283.626 343.53 283.923 344.463L284.035 344.802L284.161 345.124C284.193 345.199 284.223 345.28 284.254 345.362C284.307 345.503 284.359 345.637 284.422 345.766C284.533 346.001 284.633 346.185 284.742 346.347C284.876 346.549 285.003 346.711 285.134 346.845C285.436 347.151 285.78 347.36 286.125 347.447C286.281 347.488 286.439 347.509 286.598 347.509C286.823 347.509 287.036 347.469 287.233 347.387C287.607 347.265 287.922 346.994 288.257 346.706L289.253 345.712C289.661 345.273 290.075 344.81 290.476 344.363C290.703 344.109 290.928 343.855 291.157 343.603L293.063 341.481L296.848 337.198L298.777 335.083L300.706 332.972C301.468 332.165 302.102 331.51 302.696 330.914C303.467 330.141 304.126 329.514 304.768 328.937C305.176 328.571 305.527 328.277 305.867 328.007C306.078 327.841 306.269 327.7 306.45 327.574C306.663 327.423 306.88 327.289 307.092 327.179L307.232 327.107L307.377 327.15C307.567 327.206 307.767 327.235 307.973 327.235C308.402 327.235 308.855 327.111 309.285 326.877C309.818 326.584 310.344 326.131 310.943 325.449C311.985 324.237 312.867 322.81 313.592 321.573C314.311 320.337 315.031 318.993 315.852 317.345C316.297 316.416 316.745 315.463 317.178 314.543C317.423 314.022 317.666 313.502 317.912 312.983L318.03 312.735L325.059 312.731L326.757 308.68L331.962 310.024L336.744 304.447L342.288 305.301L343.762 300.626L344.143 301.867C344.336 302.497 344.535 303.004 344.766 303.459C345.043 304.017 345.346 304.447 345.688 304.776C345.897 304.975 346.094 305.126 346.289 305.237C346.509 305.363 346.738 305.454 346.967 305.508C347.142 305.549 347.323 305.57 347.504 305.57C347.804 305.57 348.107 305.514 348.4 305.401L348.415 305.396H348.431L348.44 305.392L348.47 305.382C348.581 305.361 348.708 305.349 348.819 305.349C348.844 305.349 348.871 305.349 348.894 305.349C349.007 305.353 349.125 305.365 349.265 305.382C349.49 305.411 349.707 305.452 349.963 305.504C350.1 305.533 350.238 305.562 350.376 305.589C350.677 305.653 350.988 305.719 351.292 305.771C351.89 305.88 352.414 305.932 352.897 305.932C353.237 305.932 353.565 305.905 353.872 305.853C354.712 305.713 355.506 305.351 356.174 304.805C356.809 304.284 357.367 303.583 357.834 302.718C358.233 301.982 358.572 301.128 358.87 300.107C358.997 299.671 359.117 299.205 359.227 298.719C359.289 298.442 359.345 298.159 359.4 297.876C359.44 297.681 359.477 297.483 359.518 297.288C359.953 295.16 360.465 293.295 361.08 291.585C361.444 290.578 361.825 289.687 362.242 288.862C362.761 287.84 363.267 287.046 363.833 286.36C364.196 285.925 364.543 285.578 364.896 285.303C365.348 284.951 365.787 284.714 366.239 284.585C366.492 284.513 366.749 284.474 367.007 284.467H367.054C367.286 284.467 367.528 284.494 367.771 284.55C368.222 284.652 368.671 284.84 369.147 285.123C369.269 285.197 369.383 285.272 369.496 285.344C369.579 285.396 369.659 285.448 369.74 285.501C369.945 285.63 370.135 285.745 370.321 285.851C370.752 286.099 371.143 286.297 371.513 286.459C372.393 286.85 373.233 287.067 374.013 287.1C374.07 287.102 374.126 287.104 374.183 287.104C375.004 287.104 375.766 286.881 376.386 286.461C377.082 285.992 377.631 285.272 377.932 284.436L377.959 284.36L378.014 284.296C378.146 284.143 378.293 284.006 378.435 283.874L378.546 283.769C378.71 283.613 378.907 283.458 379.15 283.301C379.335 283.185 379.583 283.041 379.884 282.964C380.004 282.935 380.104 282.921 380.204 282.921C380.262 282.921 380.319 282.925 380.373 282.935C380.566 282.964 380.736 283.067 380.843 283.146C381.042 283.291 381.224 283.485 381.414 283.756C381.55 283.948 381.681 284.164 381.813 284.42C382.071 284.912 382.259 285.427 382.395 285.82C382.557 286.285 382.685 286.765 382.813 287.255C382.858 287.437 382.901 287.615 382.942 287.795C383.01 288.084 383.08 288.382 383.159 288.667C383.295 289.168 383.44 289.6 383.604 289.983C383.789 290.423 384.012 290.797 384.272 291.093C384.542 291.403 384.884 291.633 385.231 291.74C385.403 291.792 385.58 291.819 385.759 291.819H385.786C385.959 291.817 386.145 291.782 386.34 291.719C386.677 291.604 387.013 291.374 387.309 291.047C387.564 290.762 387.802 290.404 388.035 289.949C388.473 289.089 388.792 288.134 389.046 287.315C389.309 286.465 389.556 285.553 389.801 284.527L390.068 283.413L390.419 283.433L390.621 284.912C390.9 286.957 391.188 289.073 391.782 291.033C391.859 291.275 391.952 291.531 392.049 291.771C392.161 292.028 392.26 292.245 392.383 292.441C392.541 292.689 392.679 292.867 392.816 292.999C392.981 293.159 393.162 293.287 393.355 293.376C393.566 293.477 393.804 293.529 394.039 293.529C394.227 293.529 394.409 293.496 394.583 293.434C394.783 293.363 394.971 293.252 395.145 293.107C395.234 293.033 395.316 292.954 395.388 292.871L395.506 292.731C395.544 292.685 395.583 292.633 395.619 292.582C396.061 291.99 396.442 291.351 396.845 290.673C397.007 290.4 397.17 290.127 397.337 289.856C397.46 289.66 397.625 289.404 397.816 289.153C397.902 289.04 397.995 288.92 398.101 288.808C398.217 288.684 398.324 288.583 398.466 288.487C398.503 288.463 398.571 288.419 398.654 288.396C398.675 288.388 398.704 288.38 398.734 288.372C398.765 288.363 398.799 288.361 398.824 288.361C398.856 288.361 398.876 288.363 398.893 288.365C399.017 288.382 399.092 288.413 399.165 288.444L399.183 288.452C399.348 288.525 399.482 288.614 399.582 288.684C399.792 288.827 399.994 289 400.239 289.244C400.987 289.991 401.594 290.832 402.272 291.864C402.818 292.698 403.369 293.624 403.961 294.697C404.208 295.146 404.464 295.62 404.74 296.149C404.904 296.467 405.062 296.784 405.221 297.104C405.307 297.276 405.393 297.45 405.48 297.623L406.216 299.094L406.577 299.83L406.962 300.52C407.223 300.975 407.526 301.393 407.86 301.765C408.225 302.169 408.594 302.474 408.986 302.698C409.482 302.989 410.045 303.142 410.616 303.142C410.981 303.142 411.341 303.08 411.685 302.958C412.101 302.818 412.517 302.592 412.96 302.264C413.333 301.989 413.698 301.651 414.077 301.234C414.832 300.402 415.462 299.426 415.926 298.666C416.43 297.836 416.929 296.902 417.452 295.814C417.919 294.842 418.37 293.837 418.79 292.83C419.549 291.019 420.311 289.006 421.12 286.676C421.804 284.709 422.475 282.654 423.169 280.392C424.359 276.516 425.537 272.343 426.77 267.637C428.811 259.818 430.798 251.355 432.841 241.768L432.988 241.083L433.335 241.075L433.51 241.753C433.795 242.856 434.087 243.828 434.402 244.725C434.711 245.591 435.108 246.588 435.706 247.411C436.007 247.823 436.34 248.131 436.696 248.327C436.977 248.482 437.288 248.563 437.596 248.563C437.7 248.563 437.802 248.553 437.902 248.536C438.301 248.462 438.691 248.253 439.026 247.93C439.348 247.618 439.629 247.237 439.863 246.793C440.074 246.394 440.259 245.943 440.427 245.412C440.574 244.954 440.697 244.469 440.804 243.931C440.987 243.023 441.128 242.043 441.25 240.848C441.327 240.101 441.39 239.336 441.45 238.596C441.475 238.3 441.499 238.004 441.526 237.707C441.543 237.521 441.558 237.336 441.572 237.15C441.599 236.815 441.626 236.468 441.667 236.125L441.762 235.337C441.792 235.076 441.823 234.805 441.876 234.534L442.023 233.767L442.463 234.386C442.61 234.592 442.742 234.799 442.873 234.998C442.925 235.078 442.977 235.159 443.029 235.238L443.079 235.312C443.245 235.558 443.417 235.812 443.594 236.056L444.501 237.237C444.571 237.326 444.646 237.413 444.721 237.502L444.815 237.611C445.715 238.654 446.656 239.568 447.611 240.325C448.735 241.212 449.8 241.857 450.865 242.295C451.473 242.541 452.071 242.707 452.64 242.787C452.858 242.818 453.076 242.831 453.289 242.831C453.683 242.831 454.061 242.779 454.411 242.676C454.973 242.508 455.498 242.171 455.884 241.725C456.263 241.288 456.548 240.717 456.705 240.07C456.77 239.818 456.806 239.566 456.843 239.301L456.874 239.088C456.892 238.953 456.918 238.821 456.945 238.695C456.945 238.695 456.997 238.443 457.01 238.383C457.033 238.269 457.056 238.155 457.083 238.044C457.223 237.448 457.389 236.809 457.606 236.038C458.257 233.734 459.021 231.311 460.086 228.182C461.882 222.927 463.842 217.764 465.907 212.838C467.04 210.144 468.135 207.702 469.255 205.371C470.622 202.532 471.839 200.243 473.084 198.167C473.849 196.895 474.582 195.783 475.327 194.775C476.055 193.801 476.948 192.683 478.063 191.781C478.56 191.392 479.165 190.977 479.895 190.836C480.013 190.816 480.129 190.807 480.24 190.807C480.31 190.807 480.38 190.811 480.45 190.818C480.629 190.842 480.804 190.896 480.967 190.948C481.164 191.014 481.359 191.072 481.554 191.132C481.663 191.165 481.772 191.2 481.881 191.233C483.202 191.622 484.415 191.866 485.587 191.976C486.017 192.017 486.441 192.038 486.849 192.038C487.713 192.038 488.542 191.945 489.309 191.765C489.914 191.622 490.508 191.415 491.074 191.146C491.639 190.873 492.178 190.534 492.672 190.139C493.617 189.387 494.451 188.386 495.147 187.162C495.442 186.647 495.726 186.059 496.018 185.363C496.285 184.721 496.503 184.082 496.668 183.462C497.029 182.095 497.26 180.671 497.448 179.444C497.632 178.226 497.802 176.926 497.978 175.354C498.258 172.844 498.505 170.153 498.733 167.124C499.169 161.168 499.425 155.763 499.515 150.599L499.522 150.173L499.873 150.124L500.685 153.259C500.941 154.105 501.234 155.01 501.637 155.842C501.798 156.179 502.023 156.609 502.326 156.962C502.528 157.206 502.859 157.496 503.303 157.516C503.36 157.519 503.412 157.521 503.464 157.521C503.779 157.521 504.126 157.446 504.495 157.299C504.854 157.15 505.223 156.946 505.618 156.679C505.957 156.449 506.297 156.183 506.655 155.868C506.991 155.573 507.317 155.262 507.623 154.944C508.217 154.33 508.809 153.639 509.382 152.886C509.947 152.142 510.461 151.379 510.91 150.62C511.447 149.706 511.826 148.922 512.107 148.155L512.356 147.477L512.52 148.184C512.767 149.249 513.073 150.169 513.458 150.997C513.934 152.012 514.475 152.769 515.11 153.312C515.471 153.619 515.865 153.852 516.277 153.999C516.649 154.135 517.046 154.202 517.458 154.202C517.502 154.202 517.547 154.202 517.59 154.2C518.444 154.125 519.36 153.939 520.305 153.648C521.219 153.366 522.094 153.008 522.903 152.583C523.771 152.132 524.569 151.609 525.276 151.032C526.088 150.368 526.729 149.685 527.233 148.943C527.833 148.066 528.18 147.14 528.237 146.265L528.243 146.195L528.583 146.127L528.609 146.191C528.969 147.032 529.347 147.644 529.798 148.116C530.082 148.408 530.361 148.612 530.651 148.734C530.884 148.833 531.133 148.885 531.372 148.885C531.464 148.885 531.555 148.877 531.643 148.862C531.954 148.813 532.262 148.652 532.534 148.397C532.8 148.145 533.004 147.82 533.183 147.506C533.486 146.96 533.709 146.348 533.924 145.756C533.974 145.618 534.024 145.481 534.074 145.343L534.114 145.239C534.237 144.904 534.366 144.557 534.522 144.224C534.713 143.827 534.914 143.451 535.256 143.205C535.399 143.097 535.583 143.037 535.785 143.037C535.826 143.037 535.867 143.039 535.909 143.045L535.973 143.054C536.134 143.079 536.295 143.107 536.458 143.124C536.796 143.163 537.154 143.188 537.551 143.198C537.738 143.201 537.925 143.203 538.112 143.203C539.282 143.203 540.543 143.137 541.968 143L542 143.385C540.538 143.529 539.246 143.598 538.047 143.598C537.879 143.598 537.712 143.598 537.544 143.594C537.133 143.585 536.766 143.56 536.419 143.521C536.254 143.503 536.088 143.476 535.923 143.451L535.86 143.442C535.841 143.44 535.812 143.438 535.785 143.438C535.698 143.438 535.57 143.455 535.463 143.536C535.191 143.732 535.019 144.059 534.853 144.408C534.706 144.721 534.583 145.058 534.461 145.386L534.422 145.492C534.372 145.628 534.321 145.765 534.273 145.901C534.053 146.509 533.826 147.136 533.507 147.715C533.31 148.06 533.089 148.418 532.784 148.705C532.457 149.015 532.081 149.208 531.7 149.268C531.592 149.286 531.482 149.295 531.369 149.295C531.083 149.295 530.787 149.233 530.512 149.117C530.175 148.976 529.853 148.745 529.529 148.414C529.159 148.027 528.835 147.558 528.534 146.962C528.379 147.709 528.046 148.47 527.554 149.193C527.028 149.969 526.364 150.684 525.519 151.375C524.791 151.973 523.971 152.512 523.08 152.977C522.252 153.414 521.355 153.784 520.417 154.074C519.431 154.38 518.513 154.568 517.613 154.648C517.552 154.65 517.501 154.652 517.449 154.652C516.994 154.652 516.556 154.576 516.144 154.427C515.686 154.264 515.249 154.009 514.849 153.666C514.161 153.081 513.582 152.276 513.075 151.201C512.757 150.517 512.49 149.774 512.265 148.939C512.005 149.547 511.681 150.182 511.282 150.868C510.824 151.644 510.302 152.423 509.727 153.182C509.146 153.951 508.543 154.659 507.936 155.287C507.623 155.614 507.288 155.933 506.941 156.237C506.569 156.569 506.214 156.846 505.86 157.088C505.438 157.372 505.044 157.589 504.656 157.752C504.226 157.926 503.834 158.009 503.46 158.009C503.4 158.009 503.337 158.007 503.276 158.002C503.156 157.992 503.038 157.971 502.915 157.938C502.795 157.903 502.68 157.852 502.559 157.783C502.362 157.669 502.176 157.508 501.99 157.293C501.65 156.898 501.403 156.429 501.227 156.065C500.81 155.202 500.506 154.274 500.239 153.399L499.955 152.31C499.851 156.983 499.613 161.855 499.234 167.155C499.01 170.195 498.768 172.897 498.491 175.41C498.318 176.988 498.149 178.295 497.965 179.523C497.777 180.768 497.544 182.213 497.179 183.607C497.009 184.254 496.784 184.92 496.507 185.588C496.208 186.307 495.914 186.918 495.605 187.457C494.873 188.746 493.994 189.804 492.996 190.602C492.471 191.022 491.901 191.384 491.296 191.678C490.696 191.965 490.068 192.187 489.426 192.339C488.612 192.532 487.735 192.631 486.82 192.631C486.403 192.631 485.972 192.61 485.535 192.571C484.329 192.461 483.084 192.213 481.727 191.816C481.617 191.781 481.507 191.748 481.398 191.715C481.198 191.655 480.997 191.593 480.801 191.529L480.77 191.519C480.709 191.5 480.648 191.479 480.591 191.467L480.534 191.452C480.484 191.438 480.435 191.426 480.393 191.423C480.337 191.417 480.289 191.415 480.239 191.415C480.156 191.415 480.069 191.423 479.983 191.438C479.741 191.481 479.475 191.581 479.169 191.75C478.922 191.885 478.671 192.058 478.399 192.273C477.333 193.138 476.436 194.271 475.776 195.16C475.044 196.155 474.324 197.249 473.573 198.506C472.342 200.568 471.139 202.844 469.785 205.665C468.679 207.979 467.591 210.413 466.462 213.107C464.406 218.022 462.459 223.171 460.673 228.412C459.615 231.53 458.856 233.941 458.212 236.234C457.999 236.995 457.836 237.622 457.699 238.211C457.672 238.317 457.652 238.424 457.631 238.528C457.618 238.588 457.566 238.838 457.566 238.838C457.541 238.96 457.516 239.075 457.502 239.189L457.471 239.398C457.432 239.677 457.393 239.967 457.319 240.248C457.135 241.003 456.8 241.679 456.348 242.2C455.873 242.744 455.261 243.141 454.576 243.348C454.166 243.468 453.73 243.53 453.275 243.53C453.037 243.53 452.794 243.513 452.55 243.48C451.929 243.395 451.283 243.217 450.627 242.951C449.507 242.49 448.39 241.818 447.216 240.895C446.225 240.112 445.251 239.169 444.322 238.093L444.231 237.986C444.151 237.893 444.07 237.798 443.993 237.702L443.066 236.497C442.884 236.245 442.71 235.99 442.542 235.742L442.483 235.655L442.402 235.531L442.322 236.211C442.282 236.54 442.256 236.882 442.231 237.212C442.216 237.399 442.2 237.587 442.184 237.775C442.159 238.071 442.134 238.368 442.111 238.664C442.05 239.404 441.987 240.169 441.912 240.926C441.789 242.146 441.645 243.149 441.459 244.084C441.202 245.347 440.881 246.323 440.448 247.153C440.178 247.666 439.851 248.112 439.473 248.476C439.049 248.886 438.532 249.163 438.015 249.256C437.877 249.281 437.734 249.295 437.59 249.295C437.177 249.295 436.76 249.187 436.386 248.979C435.942 248.737 435.534 248.364 435.169 247.866C434.518 246.967 434.106 245.951 433.759 244.985C433.571 244.454 433.394 243.9 433.219 243.304C431.281 252.358 429.395 260.393 427.457 267.844C426.226 272.563 425.05 276.748 423.86 280.638C423.166 282.908 422.495 284.972 421.807 286.953C420.993 289.302 420.227 291.331 419.465 293.159C419.041 294.18 418.585 295.198 418.112 296.184C417.579 297.297 417.067 298.254 416.55 299.108C416.036 299.946 415.407 300.922 414.612 301.802C413.719 302.783 412.837 303.415 411.914 303.734C411.473 303.883 411.033 303.961 410.605 303.961C410.484 303.961 410.36 303.955 410.242 303.941C409.705 303.895 409.147 303.715 408.632 303.422C408.174 303.163 407.73 302.799 407.315 302.338C406.944 301.926 406.608 301.463 406.318 300.959L405.908 300.227L405.54 299.478L404.806 298.014C404.718 297.842 404.632 297.667 404.546 297.495C404.389 297.179 404.233 296.866 404.07 296.554C403.797 296.033 403.544 295.562 403.299 295.119C402.718 294.066 402.175 293.157 401.64 292.342C401.078 291.488 400.456 290.597 399.713 289.858C399.5 289.648 399.33 289.503 399.16 289.387C399.058 289.315 398.961 289.259 398.883 289.224C398.872 289.219 398.859 289.215 398.847 289.211C398.781 289.259 398.711 289.325 398.638 289.403C398.562 289.484 398.491 289.573 398.409 289.681C398.276 289.856 398.138 290.061 397.972 290.322C397.809 290.586 397.65 290.855 397.489 291.126C397.097 291.786 396.691 292.47 396.215 293.111C396.173 293.169 396.131 293.223 396.088 293.277L395.943 293.448C395.839 293.564 395.728 293.672 395.61 293.771C395.368 293.973 395.102 294.127 394.819 294.23C394.567 294.323 394.3 294.37 394.026 294.37C393.684 294.37 393.341 294.292 393.031 294.149C392.765 294.025 392.505 293.845 392.28 293.624C392.153 293.504 392.043 293.368 391.974 293.275C391.881 293.155 391.795 293.031 391.72 292.909C391.551 292.644 391.424 292.354 391.322 292.119C391.211 291.846 391.115 291.579 391.025 291.3C390.558 289.759 390.281 288.175 390.057 286.653C389.966 286.976 389.876 287.282 389.785 287.578C389.506 288.481 389.184 289.441 388.717 290.357C388.448 290.88 388.171 291.298 387.865 291.637C387.473 292.069 387.037 292.367 386.568 292.528C386.303 292.617 386.04 292.664 385.787 292.667H385.748C385.496 292.667 385.245 292.631 385.004 292.557C384.512 292.404 384.057 292.1 383.685 291.676C383.368 291.314 383.096 290.863 382.874 290.338C382.693 289.916 382.534 289.445 382.387 288.903C382.305 288.601 382.234 288.297 382.164 288.003C382.123 287.826 382.082 287.65 382.037 287.474C381.915 287.005 381.792 286.548 381.639 286.113C381.514 285.748 381.341 285.274 381.112 284.836C380.997 284.616 380.886 284.432 380.773 284.271C380.636 284.075 380.514 283.944 380.389 283.853C380.326 283.806 380.281 283.785 380.242 283.779C380.224 283.775 380.21 283.775 380.195 283.775C380.156 283.775 380.109 283.783 380.054 283.797C379.907 283.833 379.736 283.915 379.544 284.037C379.34 284.17 379.183 284.292 379.05 284.42L378.945 284.521C378.834 284.625 378.726 284.726 378.628 284.835C378.259 285.803 377.611 286.637 376.799 287.185C376.051 287.693 375.142 287.962 374.17 287.962C374.104 287.962 374.04 287.962 373.973 287.958C373.1 287.923 372.168 287.687 371.202 287.257C370.804 287.085 370.391 286.874 369.935 286.612C369.74 286.5 369.541 286.38 369.326 286.246C369.24 286.192 369.153 286.136 369.069 286.082C368.959 286.01 368.852 285.94 368.748 285.878C368.152 285.52 367.562 285.33 367.038 285.33C366.828 285.33 366.626 285.359 366.436 285.419C366.082 285.52 365.719 285.718 365.354 286.004C365.048 286.242 364.742 286.548 364.418 286.937C363.901 287.563 363.416 288.33 362.934 289.279C362.535 290.071 362.17 290.928 361.818 291.901C361.218 293.568 360.719 295.392 360.293 297.478C359.937 299.375 359.474 301.378 358.52 303.159C357.999 304.125 357.371 304.913 356.65 305.504C355.878 306.137 354.957 306.557 353.985 306.72C353.638 306.78 353.268 306.811 352.883 306.811C352.357 306.811 351.79 306.755 351.149 306.641C350.832 306.585 350.515 306.519 350.209 306.453C350.073 306.424 349.938 306.397 349.803 306.368C349.598 306.327 349.376 306.284 349.157 306.255C349.041 306.24 348.941 306.232 348.853 306.228C348.837 306.228 348.821 306.228 348.807 306.228C348.749 306.228 348.694 306.234 348.62 306.246C348.259 306.379 347.867 306.449 347.486 306.449C347.246 306.449 347.01 306.422 346.783 306.368C346.48 306.298 346.181 306.18 345.895 306.017C345.641 305.872 345.39 305.682 345.133 305.436C344.718 305.037 344.36 304.53 344.038 303.885C343.945 303.703 343.855 303.508 343.767 303.297L342.826 306.283L337.039 305.394L332.225 311.013L327.213 309.722L325.576 313.627L318.522 313.633C318.321 314.057 318.123 314.483 317.922 314.909C317.48 315.85 317.024 316.823 316.568 317.775C315.737 319.443 315.011 320.802 314.279 322.059C313.495 323.397 312.62 324.808 311.534 326.073C311.242 326.406 310.96 326.695 310.668 326.954C310.34 327.244 310.008 327.485 309.648 327.684C309.247 327.901 308.841 328.042 308.442 328.104L308.358 328.116C308.281 328.126 308.202 328.137 308.118 328.141C308.077 328.141 308.034 328.143 307.993 328.143C307.926 328.143 307.86 328.141 307.796 328.137C307.669 328.131 307.556 328.118 307.463 328.1C307.413 328.091 307.363 328.079 307.313 328.067C307.164 328.151 307.024 328.238 306.888 328.335C306.717 328.453 306.54 328.586 306.341 328.741C306.015 328.997 305.679 329.282 305.282 329.638C304.662 330.194 303.997 330.831 303.245 331.582C302.656 332.173 302.03 332.819 301.275 333.621L299.355 335.726L297.435 337.833L295.545 339.975L293.652 342.118L291.741 344.25C291.515 344.5 291.292 344.75 291.07 345C290.663 345.453 290.245 345.923 289.822 346.378L288.799 347.401C288.738 347.453 288.69 347.494 288.641 347.536C288.504 347.655 288.36 347.778 288.198 347.889C288.092 347.968 287.983 348.036 287.865 348.1C287.782 348.144 287.698 348.177 287.618 348.21C287.58 348.226 287.543 348.239 287.507 348.257C287.213 348.375 286.906 348.433 286.587 348.433C286.362 348.433 286.136 348.404 285.912 348.344C285.787 348.309 285.666 348.272 285.531 348.214C285.402 348.154 285.299 348.104 285.172 348.024C284.941 347.883 284.73 347.713 284.54 347.517C284.368 347.341 284.211 347.141 284.044 346.89C283.912 346.692 283.787 346.466 283.661 346.196C283.588 346.047 283.527 345.887 283.468 345.734C283.438 345.652 283.405 345.573 283.373 345.493L283.235 345.139L283.114 344.775C282.806 343.801 282.577 342.81 282.368 341.876C282.151 340.892 281.956 339.897 281.777 338.968L281.215 336.069C281.181 335.898 281.147 335.728 281.115 335.556C281.056 335.25 280.995 334.936 280.927 334.63L280.787 334.014C280.642 334.181 280.499 334.351 280.362 334.525C280.084 334.87 279.793 335.244 279.44 335.703L277.617 338.098L277.151 338.695L276.67 339.283L276.19 339.868C275.997 340.093 275.834 340.275 275.679 340.443C275.389 340.753 274.999 341.152 274.546 341.506C274.054 341.892 273.588 342.14 273.123 342.263C272.855 342.339 272.572 342.378 272.284 342.378C272.021 342.378 271.758 342.345 271.504 342.281C271.259 342.221 271.008 342.126 270.743 341.992C270.52 341.878 270.301 341.737 270.06 341.551C269.682 341.253 269.331 340.885 268.954 340.393C268.809 340.203 268.66 339.99 268.501 339.744L268.295 339.415C268.249 339.338 268.208 339.262 268.166 339.185L267.642 338.224C267.549 338.054 267.451 337.876 267.37 337.692L266.719 336.309C266.386 335.596 266.046 334.886 265.713 334.196C265.187 334.938 264.643 335.699 264.038 336.406C263.183 337.413 262.335 338.183 261.447 338.762C260.955 339.084 260.432 339.353 259.896 339.562C259.373 339.765 258.806 339.907 258.208 339.982C257.918 340.019 257.623 340.037 257.329 340.037C257.036 340.037 256.76 340.019 256.478 339.986C256.331 339.971 256.184 339.942 256.046 339.913L255.601 339.822C255.47 339.796 255.336 339.769 255.209 339.729L254.853 339.63H254.847C254.76 339.612 254.692 339.605 254.636 339.605C254.588 339.605 254.55 339.611 254.522 339.622C254.463 339.643 254.354 339.727 254.248 339.851C254.062 340.071 253.881 340.362 253.699 340.741C253.403 341.363 253.139 342.066 252.892 342.891L252.185 345.157L251.788 346.299C251.673 346.65 251.526 347.012 251.326 347.436C251.141 347.819 250.929 348.181 250.691 348.516C250.422 348.888 250.125 349.198 249.808 349.442C249.635 349.575 249.467 349.684 249.277 349.788C249.089 349.889 248.889 349.969 248.683 350.031C248.354 350.127 248.031 350.176 247.727 350.176C247.629 350.176 247.53 350.17 247.434 350.16C247.028 350.122 246.614 350.007 246.237 349.831C246.049 349.742 245.868 349.651 245.693 349.527C245.639 349.49 245.585 349.453 245.53 349.417C245.417 349.343 245.301 349.266 245.195 349.175C245.116 349.111 245.039 349.047 244.963 348.983C244.75 348.805 244.549 348.638 244.333 348.495C244.207 348.41 244.059 348.315 243.909 348.249C243.833 348.216 243.765 348.191 243.705 348.173C243.697 348.172 243.69 348.17 243.685 348.168C243.676 348.177 243.667 348.187 243.656 348.197C243.613 348.241 243.577 348.286 243.545 348.334C243.474 348.435 243.4 348.559 243.327 348.7C243.203 348.942 243.084 349.221 242.964 349.554C242.869 349.812 242.785 350.094 242.69 350.47C242.661 350.586 242.631 350.701 242.6 350.815C242.547 351.016 242.493 351.216 242.447 351.421L242.341 351.905L242.217 352.407L242.092 352.904C242.039 353.082 241.983 353.251 241.922 353.415C241.666 354.118 241.298 354.755 240.857 355.257C240.387 355.791 239.793 356.204 239.14 356.45C238.563 356.669 237.934 356.773 237.212 356.773H237.168C236.683 356.773 236.223 356.711 235.775 356.651C235.607 356.628 235.439 356.607 235.269 356.585C235.038 356.56 234.811 356.52 234.591 356.483C234.507 356.467 233.658 356.324 233.658 356.324L233.635 356.355C233.58 356.429 233.531 356.506 233.481 356.587C233.385 356.74 233.29 356.909 233.19 357.099C233.025 357.414 232.853 357.772 232.667 358.196C232.375 358.861 232.091 359.595 231.769 360.507C231.194 362.131 230.692 363.766 230.232 365.288C229.868 366.494 229.511 367.726 229.163 368.917C228.584 370.907 227.986 372.964 227.347 374.976C226.925 376.304 226.349 378.047 225.636 379.757C225.268 380.64 224.901 381.393 224.514 382.059L224.167 382.603C224.04 382.809 223.917 382.987 223.79 383.144C223.646 383.326 223.507 383.488 223.364 383.639C223.185 383.825 223.04 383.965 222.897 384.091C222.723 384.242 222.55 384.373 222.367 384.491C222.167 384.621 221.977 384.724 221.787 384.809C221.37 384.995 220.932 385.092 220.484 385.096H220.459C220.017 385.096 219.572 384.997 219.169 384.811L219.023 384.739L218.978 384.716C218.942 384.699 218.904 384.677 218.858 384.648C218.768 384.592 218.677 384.534 218.584 384.468C218.536 384.433 218.484 384.393 218.439 384.356L218.317 384.251C218.233 384.176 218.151 384.096 218.071 384.013C217.775 383.703 217.521 383.339 217.29 382.902C217.093 382.53 216.918 382.115 216.775 381.672C216.641 381.265 216.521 380.826 216.413 380.338L214.375 384.213L213.833 385.19C213.414 385.94 213.053 386.554 212.695 387.123C212.555 387.359 212.396 387.588 212.242 387.81C212.185 387.892 212.13 387.975 212.074 388.056C211.813 388.42 211.534 388.707 211.222 388.941C210.886 389.195 210.517 389.375 210.129 389.474C209.907 389.532 209.673 389.563 209.435 389.563C209.263 389.563 209.091 389.547 208.923 389.516C208.187 389.387 207.468 388.939 206.901 388.262C206.663 387.975 206.443 387.659 206.228 387.291C206.183 387.216 206.14 387.137 206.095 387.053L204.531 390.465L199.981 388.327L194.061 416.396L193.711 416.385L192.399 407.839C192.333 407.411 192.267 406.983 192.202 406.555C192.086 405.784 191.964 404.987 191.833 404.206L190.613 396.962C190.398 395.787 190.167 394.574 189.924 393.364C189.665 392.08 189.412 390.911 189.153 389.788C189.047 389.311 188.92 388.835 188.799 388.376L188.591 387.594L187.977 389.586C187.698 390.467 187.44 391.375 187.192 392.253L185.103 399.607C184.434 401.975 183.82 404.113 183.106 406.288C182.929 406.817 182.736 407.382 182.514 407.944C182.414 408.207 182.294 408.47 182.178 408.726L182.161 408.763C182.025 409.063 181.875 409.336 181.714 409.574C181.657 409.665 181.587 409.748 181.519 409.83C181.487 409.868 181.456 409.905 181.426 409.944C181.283 410.099 181.163 410.211 181.061 410.291C180.798 410.498 180.503 410.645 180.188 410.728C180.007 410.775 179.824 410.796 179.642 410.796C179.499 410.796 179.356 410.782 179.218 410.753L179.196 410.75C179.127 410.734 179.059 410.72 178.98 410.695C178.903 410.67 178.828 410.641 178.745 410.602C178.672 410.569 178.602 410.533 178.532 410.492L178.432 410.432L178.377 410.395L178.343 410.37L178.318 410.351C178.318 410.351 178.298 410.335 178.282 410.318L178.039 410.11C177.967 410.039 177.91 409.973 177.854 409.907L177.781 409.822C177.715 409.744 177.661 409.667 177.609 409.593L177.559 409.522L177.369 409.212C177.162 408.852 176.967 408.453 176.75 407.953C176.464 407.307 176.208 406.635 175.961 405.986C175.888 405.792 175.814 405.601 175.741 405.407C175.177 403.889 174.624 402.241 173.996 400.223C172.792 396.311 171.885 392.841 171.223 389.617C170.922 388.132 170.557 386.168 170.399 384.143C170.326 383.266 170.328 382.317 170.405 381.323C170.496 380.553 170.46 379.726 170.292 378.709C170.029 377.177 169.54 375.553 168.751 373.597C168.427 372.797 168.061 371.974 167.663 371.151L167.368 370.551C167.368 370.551 166.724 369.337 166.665 369.226C165.224 370.57 163.939 371.814 162.842 373.239L162.601 373.547C162.506 373.661 162.406 373.767 162.3 373.868C162.084 374.073 161.839 374.246 161.592 374.366C161.327 374.497 161.053 374.585 160.779 374.627C160.649 374.645 160.52 374.654 160.393 374.654C160.239 374.654 160.083 374.641 159.931 374.614C159.661 374.567 159.391 374.478 159.129 374.348C158.877 374.219 158.65 374.073 158.43 373.899C158.242 373.75 158.052 373.57 157.832 373.33C157.646 373.132 157.474 372.913 157.318 372.706C157.037 372.334 156.769 371.92 156.445 371.366C156.275 371.064 156.116 370.756 155.962 370.458C155.878 370.295 155.792 370.131 155.706 369.968L155.577 369.724C155.497 369.571 155.418 369.42 155.341 369.265L155.003 368.551C154.774 368.059 154.555 367.575 154.353 367.114C153.936 366.171 153.532 365.206 153.14 364.273C152.818 363.504 152.485 362.71 152.147 361.934C151.394 362.828 150.565 363.588 149.914 364.159C149.042 364.912 148.087 365.661 146.991 366.448C146.027 367.139 145.027 367.809 143.933 368.494C142.725 369.25 141.718 369.834 140.762 370.336L139.961 370.77L139.912 370.795C139.655 370.925 139.397 371.053 139.134 371.176C138.849 371.31 138.563 371.434 138.282 371.544C138.125 371.606 137.99 371.657 137.824 371.703C137.756 371.728 137.67 371.746 137.563 371.761L137.327 371.798C137.248 371.806 137.18 371.808 137.112 371.808C136.5 371.808 135.87 371.558 135.383 371.124C135.258 371.016 135.131 370.882 135.018 370.743C134.907 370.609 134.805 370.468 134.714 370.326C134.517 370.024 134.37 369.695 134.252 369.412C134.025 368.847 133.843 368.239 133.681 367.501C133.526 366.81 133.413 366.109 133.333 365.576C133.166 364.463 133.048 363.365 132.935 362.248C132.373 362.451 131.756 362.575 131.056 362.625C130.804 362.643 130.543 362.652 130.278 362.652C129.782 362.652 129.265 362.623 128.7 362.561C128.324 362.521 127.936 362.468 127.544 362.402C127.121 362.337 126.769 362.28 126.393 362.203C126.266 362.174 126.155 362.137 126.073 362.108C125.987 362.085 125.901 362.042 125.819 362.002L125.683 361.934C125.616 361.901 125.552 361.87 125.488 361.835C125.387 361.775 125.3 361.717 125.212 361.657C124.906 361.442 124.607 361.171 124.271 360.801C123.7 360.164 123.238 359.453 122.823 358.779C122.453 358.171 122.086 357.503 121.637 356.614C121.112 355.576 120.579 354.434 119.974 353.049L119.622 354.188L118.933 356.264C118.462 357.689 117.988 359.093 117.546 360.4L115.803 365.563L115.472 366.597L114.81 368.673C114.633 369.217 114.464 369.774 114.303 370.313L114.171 370.754C114.065 371.101 113.963 371.448 113.865 371.794C113.777 372.121 113.695 372.451 113.614 372.78L113.6 372.842C113.228 374.385 112.951 375.934 112.75 377.112C112.462 378.847 112.256 380.181 112.085 381.438L111.508 385.787C111.1 388.736 110.76 391.708 110.449 394.499C110.138 397.293 109.835 400.149 109.526 403.232C108.991 408.581 108.468 414.297 107.928 420.709C107.96 421.59 107.89 422.436 107.72 423.226C107.518 424.154 107.185 424.947 106.729 425.59C106.229 426.305 105.533 426.859 104.767 427.149C104.379 427.298 103.978 427.393 103.576 427.432C103.398 427.445 103.227 427.453 103.058 427.453C102.828 427.453 102.599 427.44 102.375 427.413C101.596 427.322 100.809 427.056 100.095 426.648C99.4312 426.268 98.796 425.749 98.2055 425.106C97.6901 424.545 97.2141 423.894 96.7524 423.121C96.4214 422.56 96.1261 421.983 95.8702 421.402C95.3513 422.039 94.7894 422.678 94.1953 423.307C93.7676 423.745 93.3882 424.066 92.9963 424.324C92.7315 424.494 92.481 424.603 92.2287 424.661C92.1016 424.692 91.9656 424.707 91.8296 424.707H91.7938C91.7169 424.705 91.6471 424.703 91.5702 424.69C91.5039 424.68 91.4324 424.663 91.3483 424.636C91.0315 424.529 90.7756 424.359 90.5877 424.126C90.4911 424.003 90.4034 423.877 90.3444 423.776C90.305 423.716 90.2549 423.648 90.2048 423.582L90.135 423.487C89.9417 423.245 89.7377 422.999 89.5337 422.752C89.4174 422.61 89.3011 422.469 89.1848 422.327C88.7339 421.816 88.1398 421.164 87.4741 420.561C87.118 421.973 86.7028 423.356 86.2716 424.764L84.8472 429.432L78.8149 447.981L77.3064 452.617L75.5957 457.778L75.2485 457.731L75.1966 457.168C75.1501 456.657 75.1036 456.145 75.0588 455.634C74.9139 454.01 74.7618 452.329 74.5864 450.681L73.9243 444.196C73.7811 442.621 73.5771 441.028 73.3803 439.488C73.3052 438.903 73.2318 438.317 73.1584 437.732C73.0242 436.605 72.8542 435.482 72.7039 434.515C72.5983 433.857 72.4999 433.28 72.3997 432.751C71.9863 434.728 71.2741 436.7 70.2774 438.625C69.6815 439.769 69.0033 440.851 68.2625 441.843C67.4232 442.954 66.5983 443.863 65.7393 444.62C64.6513 445.569 63.6242 446.21 62.5988 446.578C62.019 446.783 61.4536 446.885 60.9185 446.885C60.8666 446.885 60.8147 446.885 60.7646 446.882C60.124 446.864 59.4959 446.674 58.9537 446.332C58.4455 446.02 57.9892 445.549 57.5991 444.933C57.2806 444.424 57.0229 443.836 56.8135 443.131C56.7545 442.927 56.7043 442.726 56.6542 442.525C56.6274 442.416 56.6006 442.306 56.5719 442.197L56.4538 441.733C56.4288 441.64 56.3983 441.547 56.3679 441.452C56.35 441.398 56.3321 441.343 56.316 441.289C56.282 441.185 56.248 441.076 56.214 440.966C56.1532 440.774 56.0941 440.58 56.0279 440.391C55.9349 440.131 55.8221 439.848 55.6844 439.529C55.126 438.259 54.4461 437.255 53.6623 436.549C53.2024 436.128 52.7139 435.84 52.2057 435.687C51.9533 435.61 51.6867 435.569 51.4093 435.569C51.1212 435.577 50.851 435.627 50.5987 435.72C50.112 435.892 49.6503 436.221 49.2244 436.698C48.8612 437.106 48.5319 437.614 48.2492 438.204C48.0004 438.723 47.7911 439.291 47.6067 439.943L47.562 440.11C47.4135 440.664 47.2614 441.235 47.0806 441.789C46.3523 444.072 45.2894 446.401 43.9222 448.715C42.5623 451 41.0788 453.041 39.513 454.786L39.3681 454.947L39.2106 454.802C37.6269 453.328 36.1238 452.275 34.6153 451.581C33.2893 450.971 31.8864 450.65 30.5622 450.65C30.1327 450.65 29.705 450.683 29.2916 450.751C27.5469 451.027 25.8612 451.874 24.4136 453.202C23.7533 453.793 23.1252 454.517 22.5418 455.353C22.2519 455.783 22.0085 456.188 21.7992 456.591C21.5827 457.009 21.2713 457.416 20.8758 457.799C20.0992 458.545 19.2224 459.108 18.5442 459.517C17.8087 459.956 16.9873 460.392 16.0318 460.851C14.5089 461.577 12.8573 462.27 10.8298 463.029L10.556 463.13C8.91687 463.736 7.22404 464.364 5.52406 464.875C3.55028 465.469 1.75367 465.839 0.0322102 466L0 465.615L0.0268419 465.584Z" fill="url(#paint5_linear_3709_96662)"/>
<g filter="url(#filter0_d_3709_96662)">
<circle cx="40.5" cy="452.5" r="4.5" fill="#999999" shape-rendering="crispEdges"/>
<circle cx="40.5" cy="452.5" r="6.5" stroke="white" stroke-opacity="0.8" stroke-width="4" shape-rendering="crispEdges"/>
</g>
<g filter="url(#filter1_d_3709_96662)">
<circle cx="271.5" cy="336.5" r="4.5" fill="#BCDDFF" shape-rendering="crispEdges"/>
<circle cx="271.5" cy="336.5" r="6.5" stroke="white" stroke-opacity="0.8" stroke-width="4" shape-rendering="crispEdges"/>
</g>
<g filter="url(#filter2_d_3709_96662)">
<circle cx="502.5" cy="152.5" r="4.5" fill="#1A72E7" shape-rendering="crispEdges"/>
<circle cx="502.5" cy="152.5" r="6.5" stroke="white" stroke-opacity="0.8" stroke-width="4" shape-rendering="crispEdges"/>
</g>
<path d="M543 41.612L535.308 0L493.661 7.6851L479.237 28.6161L508.774 23.1594C489.263 50.0261 467.752 75.4764 444.281 99.0941L434.047 109.008C432.337 110.653 430.649 112.34 428.919 113.944L423.624 118.734C420.081 121.899 416.6 125.148 413.015 128.272L402.134 137.499C387.459 149.578 372.368 161.241 356.651 172.05C340.977 182.901 324.864 193.169 308.293 202.645C291.7 212.1 274.691 220.869 257.307 228.887C239.944 236.905 222.205 244.174 204.154 250.651C186.103 257.066 167.781 262.897 149 267C167.948 263.793 186.603 258.836 205.03 253.254C223.435 247.589 241.549 240.946 259.371 233.594C277.193 226.221 294.702 218.057 311.878 209.185C329.033 200.271 345.75 190.545 362.092 180.194C394.797 159.45 425.375 135.354 453.828 108.945C478.841 85.3067 502.083 59.6897 522.989 32.2608L528.576 62.543L543 41.612Z" fill="#1D8FFF"/>
<defs>
<filter id="filter0_d_3709_96662" x="28" y="444" width="25" height="25" filterUnits="userSpaceOnUse" color-interpolation-filters="sRGB">
<feFlood flood-opacity="0" result="BackgroundImageFix"/>
<feColorMatrix in="SourceAlpha" type="matrix" values="0 0 0 0 0 0 0 0 0 0 0 0 0 0 0 0 0 0 127 0" result="hardAlpha"/>
<feOffset dy="4"/>
<feGaussianBlur stdDeviation="2"/>
<feComposite in2="hardAlpha" operator="out"/>
<feColorMatrix type="matrix" values="0 0 0 0 0 0 0 0 0 0 0 0 0 0 0 0 0 0 0.2 0"/>
<feBlend mode="normal" in2="BackgroundImageFix" result="effect1_dropShadow_3709_96662"/>
<feBlend mode="normal" in="SourceGraphic" in2="effect1_dropShadow_3709_96662" result="shape"/>
</filter>
<filter id="filter1_d_3709_96662" x="259" y="328" width="25" height="25" filterUnits="userSpaceOnUse" color-interpolation-filters="sRGB">
<feFlood flood-opacity="0" result="BackgroundImageFix"/>
<feColorMatrix in="SourceAlpha" type="matrix" values="0 0 0 0 0 0 0 0 0 0 0 0 0 0 0 0 0 0 127 0" result="hardAlpha"/>
<feOffset dy="4"/>
<feGaussianBlur stdDeviation="2"/>
<feComposite in2="hardAlpha" operator="out"/>
<feColorMatrix type="matrix" values="0 0 0 0 0 0 0 0 0 0 0 0 0 0 0 0 0 0 0.2 0"/>
<feBlend mode="normal" in2="BackgroundImageFix" result="effect1_dropShadow_3709_96662"/>
<feBlend mode="normal" in="SourceGraphic" in2="effect1_dropShadow_3709_96662" result="shape"/>
</filter>
<filter id="filter2_d_3709_96662" x="490" y="144" width="25" height="25" filterUnits="userSpaceOnUse" color-interpolation-filters="sRGB">
<feFlood flood-opacity="0" result="BackgroundImageFix"/>
<feColorMatrix in="SourceAlpha" type="matrix" values="0 0 0 0 0 0 0 0 0 0 0 0 0 0 0 0 0 0 127 0" result="hardAlpha"/>
<feOffset dy="4"/>
<feGaussianBlur stdDeviation="2"/>
<feComposite in2="hardAlpha" operator="out"/>
<feColorMatrix type="matrix" values="0 0 0 0 0 0 0 0 0 0 0 0 0 0 0 0 0 0 0.2 0"/>
<feBlend mode="normal" in2="BackgroundImageFix" result="effect1_dropShadow_3709_96662"/>
<feBlend mode="normal" in="SourceGraphic" in2="effect1_dropShadow_3709_96662" result="shape"/>
</filter>
<linearGradient id="paint0_linear_3709_96662" x1="-21.3207" y1="243.252" x2="9.16778" y2="513.072" gradientUnits="userSpaceOnUse">
<stop stop-color="#B2BCC3"/>
<stop offset="1" stop-color="white"/>
</linearGradient>
<linearGradient id="paint1_linear_3709_96662" x1="-21.3207" y1="243.252" x2="9.16778" y2="513.072" gradientUnits="userSpaceOnUse">
<stop stop-color="#B2BCC3"/>
<stop offset="1" stop-color="white"/>
</linearGradient>
<linearGradient id="paint2_linear_3709_96662" x1="-21.3207" y1="243.252" x2="9.16778" y2="513.072" gradientUnits="userSpaceOnUse">
<stop stop-color="#B2BCC3"/>
<stop offset="1" stop-color="white"/>
</linearGradient>
<linearGradient id="paint3_linear_3709_96662" x1="-21.3207" y1="243.252" x2="9.16778" y2="513.072" gradientUnits="userSpaceOnUse">
<stop stop-color="#B2BCC3"/>
<stop offset="1" stop-color="white"/>
</linearGradient>
<linearGradient id="paint4_linear_3709_96662" x1="-21.3207" y1="243.252" x2="9.16778" y2="513.072" gradientUnits="userSpaceOnUse">
<stop stop-color="#B2BCC3"/>
<stop offset="1" stop-color="white"/>
</linearGradient>
<linearGradient id="paint5_linear_3709_96662" x1="533.907" y1="132.028" x2="-23.9952" y2="463.955" gradientUnits="userSpaceOnUse">
<stop stop-color="#71AEEA"/>
<stop offset="0.446874" stop-color="#87C4FF"/>
<stop offset="1" stop-color="#CFE7FF"/>
</linearGradient>
</defs>
</svg>
