<svg width="14" height="14" viewBox="0 0 14 14" fill="none" xmlns="http://www.w3.org/2000/svg">
<path d="M7 0C3.14025 0 0 3.14025 0 7C0 10.8597 3.14025 14 7 14C10.8597 14 14 10.8597 14 7C14 3.14025 10.8597 0 7 0ZM7.45533 11.1533C7.12276 11.2087 6.46103 11.3472 6.12499 11.375C5.84055 11.3986 5.57213 11.2357 5.40851 11.002C5.24446 10.7683 5.20515 10.4692 5.30254 10.2009L6.62572 6.56251H5.24999C5.24881 5.80437 5.81748 5.24692 6.5448 5.03298C6.8919 4.93086 7.53857 4.79111 7.87498 4.81252C8.07653 4.82534 8.42784 4.95179 8.59146 5.18552C8.75551 5.41922 8.79482 5.71829 8.69743 5.9866L7.37425 9.62502H8.74956C8.74983 10.3823 8.20236 11.0288 7.45533 11.1533ZM7.87498 4.37501C7.39172 4.37501 6.99997 3.98321 6.99997 3.5C6.99997 3.01674 7.39172 2.62499 7.87498 2.62499C8.35824 2.62499 8.74999 3.01674 8.74999 3.5C8.74999 3.98324 8.35827 4.37501 7.87498 4.37501Z" fill="#707884"/>
</svg>
