<svg width="24" height="24" viewBox="0 0 24 24" fill="none" xmlns="http://www.w3.org/2000/svg">
<path d="M20.5 10C20.5 13.2731 18.3784 16.1485 16.1564 18.2508C15.055 19.2927 13.9517 20.1232 13.1229 20.6933C12.7089 20.978 12.3647 21.197 12.1251 21.3442C12.0795 21.3722 12.0377 21.3976 12 21.4203C11.9623 21.3976 11.9205 21.3722 11.8749 21.3442C11.6353 21.197 11.2911 20.978 10.8771 20.6933C10.0483 20.1232 8.94496 19.2927 7.84363 18.2508C5.62157 16.1485 3.5 13.2731 3.5 10C3.5 5.30558 7.30558 1.5 12 1.5C16.6944 1.5 20.5 5.30558 20.5 10Z" stroke="#444444"/>
<circle cx="12" cy="10" r="3.5" stroke="#444444"/>
<path d="M5 23.5H19" stroke="#444444" stroke-linecap="round"/>
</svg>
