<svg width="24" height="25" viewBox="0 0 24 25" fill="none" xmlns="http://www.w3.org/2000/svg">
<path d="M12 1.75C5.93468 1.75 1 6.68468 1 12.75C1 18.8153 5.93468 23.75 12 23.75C18.0653 23.75 23 18.8153 23 12.75C23 6.68468 18.0653 1.75 12 1.75ZM12.7155 19.2766C12.1929 19.3637 11.153 19.5813 10.625 19.625C10.178 19.662 9.75621 19.4062 9.49909 19.0389C9.24129 18.6716 9.17952 18.2017 9.33257 17.78L11.4118 12.0625H9.24998C9.24813 10.8711 10.1418 9.99515 11.2847 9.65896C11.8301 9.49849 12.8463 9.27888 13.375 9.31254C13.6917 9.33268 14.2437 9.53139 14.5009 9.89867C14.7587 10.2659 14.8204 10.7359 14.6674 11.1575L12.5881 16.875H14.7493C14.7497 18.065 13.8894 19.0809 12.7155 19.2766ZM13.375 8.62501C12.6156 8.62501 12 8.00933 12 7.25C12 6.49059 12.6156 5.87499 13.375 5.87499C14.1344 5.87499 14.75 6.49059 14.75 7.25C14.75 8.00937 14.1344 8.62501 13.375 8.62501Z" fill="#1D8FFF"/>
</svg>
