<svg width="40" height="40" viewBox="0 0 40 40" fill="none" xmlns="http://www.w3.org/2000/svg">
<circle cx="20" cy="20" r="20" fill="url(#paint0_linear_1262_20393)"/>
<circle cx="15" cy="21" r="2" fill="#222222"/>
<circle cx="31" cy="21" r="2" fill="#222222"/>
<path d="M16 31H24" stroke="#222222" stroke-width="3" stroke-linecap="round"/>
<path d="M8 20H16" stroke="#222222" stroke-width="2" stroke-linecap="round"/>
<path d="M24 20H32" stroke="#222222" stroke-width="2" stroke-linecap="round"/>
<path d="M32 6.2L33.5 2L35 6.2L36.8128 12.1219C37.4031 14.0501 35.9608 16 33.9442 16H33.0558C31.0392 16 29.5969 14.0501 30.1872 12.1219L32 6.2Z" fill="#5894D1"/>
<path d="M32.3333 5.6L33.5 2L34.6667 5.6L36.0632 10.6277C36.5341 12.3228 35.2593 14 33.5 14C31.7407 14 30.4659 12.3228 30.9368 10.6277L32.3333 5.6Z" fill="#BCDDFF"/>
<defs>
<linearGradient id="paint0_linear_1262_20393" x1="20" y1="3.5" x2="20" y2="23.5" gradientUnits="userSpaceOnUse">
<stop stop-color="#FFB200"/>
<stop offset="1" stop-color="#FFDF7F"/>
</linearGradient>
</defs>
</svg>
