<svg width="40" height="40" viewBox="0 0 40 40" fill="none" xmlns="http://www.w3.org/2000/svg">
<circle cx="20" cy="20" r="20" fill="#FFDF7F"/>
<path d="M29 18L29 22" stroke="#222222" stroke-width="3" stroke-linecap="round"/>
<path d="M11 18L11 22" stroke="#222222" stroke-width="3" stroke-linecap="round"/>
<ellipse cx="8.5" cy="26.5" rx="4.5" ry="2.5" fill="#FE8F98"/>
<ellipse cx="31.5" cy="26.5" rx="4.5" ry="2.5" fill="#FE8F98"/>
<path d="M26 28C26 31.3137 23.3137 34 20 34C16.6863 34 14 31.3137 14 28H19.64H26Z" fill="#222222"/>
<path fill-rule="evenodd" clip-rule="evenodd" d="M7.5 0C3.35786 0 0 3.35786 0 7.5C0 9.33696 0.660408 11.0197 1.75675 12.3237C1.76552 12.3374 1.77502 12.3508 1.78525 12.3639L6.2616 18.0743C6.53397 18.4218 7.08125 18.2613 7.13654 17.8177L7.48775 15C7.49183 15 7.49591 15 7.5 15H10.5C14.6421 15 18 11.6421 18 7.5C18 3.35786 14.6421 0 10.5 0H7.5Z" fill="#FC1F2D"/>
<path d="M8.98807 4.15649C10.41 2.98796 12.5935 2.47256 13.9375 3.72911C15.2816 4.98566 15.3068 6.98756 14.0301 8.29323L8.89248 12.9994L3.85599 8.29323C2.60743 6.98756 2.67615 4.9825 4.04657 3.72911C5.41854 2.47431 7.58718 2.98623 8.98807 4.15649Z" fill="white"/>
</svg>
