<svg width="24" height="24" viewBox="0 0 24 24" fill="none" xmlns="http://www.w3.org/2000/svg">
<path fill-rule="evenodd" clip-rule="evenodd" d="M13.19 1.5C18.4569 1.5 22.7266 5.76965 22.7266 11.0365C22.7266 13.4544 21.8268 15.6621 20.3438 17.343V21.9044C20.3438 22.3677 19.8383 22.6538 19.4411 22.4155L15.7782 20.2177C14.9552 20.4492 14.0871 20.5731 13.19 20.5731H10.8068C5.53989 20.5731 1.27024 16.3034 1.27024 11.0365C1.27024 5.76965 5.5399 1.5 10.8068 1.5H13.19Z" fill="#82E19B"/>
<ellipse cx="1.25" cy="1.25005" rx="1.25" ry="1.25005" transform="matrix(-1 0 0 1 17.9609 9.84375)" fill="white"/>
<ellipse cx="1.25" cy="1.25005" rx="1.25" ry="1.25005" transform="matrix(-1 0 0 1 13.1953 9.84375)" fill="white"/>
<ellipse cx="1.25" cy="1.25005" rx="1.25" ry="1.25005" transform="matrix(-1 0 0 1 8.42188 9.84375)" fill="white"/>
</svg>
