<svg width="170" height="141" viewBox="0 0 170 141" fill="none" xmlns="http://www.w3.org/2000/svg">
<path d="M97.9012 18.6429C101.056 13.119 108.944 13.119 112.099 18.6429L168.89 118.071C172.045 123.595 168.101 130.5 161.791 130.5H48.2093C41.8992 130.5 37.9554 123.595 41.1104 118.071L97.9012 18.6429Z" fill="#D9D9D9"/>
<g opacity="0.8">
<mask id="mask0_1394_19330" style="mask-type:alpha" maskUnits="userSpaceOnUse" x="40" y="14" width="65" height="117">
<rect x="40" y="14.5" width="65" height="116" fill="#F9FAFB"/>
</mask>
<g mask="url(#mask0_1394_19330)">
<path d="M97.448 18.6429C100.603 13.119 108.491 13.119 111.646 18.6429L168.436 118.071C171.591 123.595 167.648 130.5 161.338 130.5H47.7561C41.4461 130.5 37.5023 123.595 40.6573 118.071L97.448 18.6429Z" fill="#F9FAFB"/>
<path d="M97.448 18.6429C100.603 13.119 108.491 13.119 111.646 18.6429L168.436 118.071C171.591 123.595 167.648 130.5 161.338 130.5H47.7561C41.4461 130.5 37.5023 123.595 40.6573 118.071L97.448 18.6429Z" fill="#F9FAFB"/>
</g>
</g>
<path d="M111.608 51.5493L110.465 93.5812H99.7367L98.5642 51.5493H111.608ZM105.101 112.34C103.166 112.34 101.505 111.656 100.118 110.288C98.7303 108.901 98.0464 107.24 98.066 105.306C98.0464 103.391 98.7303 101.749 100.118 100.381C101.505 99.0135 103.166 98.3296 105.101 98.3296C106.957 98.3296 108.589 99.0135 109.996 100.381C111.402 101.749 112.116 103.391 112.135 105.306C112.116 106.595 111.774 107.777 111.109 108.852C110.465 109.907 109.614 110.757 108.559 111.402C107.504 112.028 106.351 112.34 105.101 112.34Z" fill="white"/>
<circle cx="48" cy="71.5" r="20" fill="#FFB200"/>
<path d="M88 135.5H48H8C8 113.409 25.9086 95.5 48 95.5C70.0914 95.5 88 113.409 88 135.5Z" fill="#FFB200"/>
</svg>
