<svg width="40" height="40" viewBox="0 0 40 40" fill="none" xmlns="http://www.w3.org/2000/svg">
<circle cx="20" cy="20" r="19" stroke="#32A13B" stroke-width="2"/>
<path fill-rule="evenodd" clip-rule="evenodd" d="M10.1133 14.5925C10.378 14.0632 11.0215 13.8487 11.5507 14.1133L14.4078 15.5418C14.7707 15.7232 15 16.0942 15 16.5C15 16.9058 14.7707 17.2768 14.4078 17.4582L11.5507 18.8867C11.0215 19.1513 10.378 18.9368 10.1133 18.4075C9.84872 17.8783 10.0632 17.2348 10.5925 16.9702L11.5329 16.5L10.5925 16.0298C10.0632 15.7652 9.84872 15.1217 10.1133 14.5925Z" fill="#32A13B"/>
<circle cx="27.5" cy="16.5" r="2.5" fill="#32A13B"/>
<path d="M12.1537 23.3348C11.173 24.6154 15.0142 27 19.9998 27C24.9854 27 28.8285 24.6163 27.8458 23.3348C26.8631 22.0532 25.9825 24.8643 20 24.8643C15.0145 24.8643 13.1344 22.0542 12.1537 23.3348Z" fill="#32A13B"/>
</svg>
