<svg width="37" height="34" viewBox="0 0 37 34" fill="none" xmlns="http://www.w3.org/2000/svg">
<rect x="2" y="15" width="6" height="11" rx="1" fill="#1D8FFF"/>
<rect x="9" y="5" width="6" height="21" rx="1" fill="#BCDDFF"/>
<rect x="16" y="10" width="6" height="16" rx="1" fill="#1D8FFF"/>
<rect x="23" width="6" height="26" rx="1" fill="#1D8FFF"/>
<g filter="url(#filter0_d_1895_30334)">
<path d="M28 30C31.3137 30 34 28.8807 34 27.5V25.5C34 26.8807 31.3137 28 28 28C24.6863 28 22 26.8807 22 25.5V27.5C22 28.8807 24.6863 30 28 30Z" fill="#FFB200"/>
<g filter="url(#filter1_i_1895_30334)">
<ellipse cx="28" cy="25.5" rx="6" ry="2.5" fill="#FFDF7F"/>
</g>
<path d="M28 27C31.3137 27 34 25.8807 34 24.5V22.5C34 23.8807 31.3137 25 28 25C24.6863 25 22 23.8807 22 22.5V24.5C22 25.8807 24.6863 27 28 27Z" fill="#FFB200"/>
<g filter="url(#filter2_i_1895_30334)">
<ellipse cx="28" cy="22.5" rx="6" ry="2.5" fill="#FFDF7F"/>
</g>
<path d="M28 24C31.3137 24 34 22.8807 34 21.5V19.5C34 20.8807 31.3137 22 28 22C24.6863 22 22 20.8807 22 19.5V21.5C22 22.8807 24.6863 24 28 24Z" fill="#FFB200"/>
<g filter="url(#filter3_i_1895_30334)">
<ellipse cx="28" cy="19.5" rx="6" ry="2.5" fill="#FFDF7F"/>
</g>
</g>
<g filter="url(#filter4_d_1895_30334)">
<path d="M19 31C22.3137 31 25 29.8807 25 28.5V26.5C25 27.8807 22.3137 29 19 29C15.6863 29 13 27.8807 13 26.5V28.5C13 29.8807 15.6863 31 19 31Z" fill="#FFB200"/>
<g filter="url(#filter5_i_1895_30334)">
<ellipse cx="19" cy="26.5" rx="6" ry="2.5" fill="#FFDF7F"/>
</g>
<path d="M19 28C22.3137 28 25 26.8807 25 25.5V23.5C25 24.8807 22.3137 26 19 26C15.6863 26 13 24.8807 13 23.5V25.5C13 26.8807 15.6863 28 19 28Z" fill="#FFB200"/>
<g filter="url(#filter6_i_1895_30334)">
<ellipse cx="19" cy="23.5" rx="6" ry="2.5" fill="#FFDF7F"/>
</g>
</g>
<g filter="url(#filter7_d_1895_30334)">
<path d="M11 32C14.3137 32 17 30.8807 17 29.5V27.5C17 28.8807 14.3137 30 11 30C7.68629 30 5 28.8807 5 27.5V29.5C5 30.8807 7.68629 32 11 32Z" fill="#FFB200"/>
<g filter="url(#filter8_i_1895_30334)">
<ellipse cx="11" cy="27.5" rx="6" ry="2.5" fill="#FFDF7F"/>
</g>
</g>
<defs>
<filter id="filter0_d_1895_30334" x="17" y="11" width="20" height="21" filterUnits="userSpaceOnUse" color-interpolation-filters="sRGB">
<feFlood flood-opacity="0" result="BackgroundImageFix"/>
<feColorMatrix in="SourceAlpha" type="matrix" values="0 0 0 0 0 0 0 0 0 0 0 0 0 0 0 0 0 0 127 0" result="hardAlpha"/>
<feOffset dx="-1" dy="-2"/>
<feGaussianBlur stdDeviation="2"/>
<feComposite in2="hardAlpha" operator="out"/>
<feColorMatrix type="matrix" values="0 0 0 0 0 0 0 0 0 0 0 0 0 0 0 0 0 0 0.12 0"/>
<feBlend mode="overlay" in2="BackgroundImageFix" result="effect1_dropShadow_1895_30334"/>
<feBlend mode="normal" in="SourceGraphic" in2="effect1_dropShadow_1895_30334" result="shape"/>
</filter>
<filter id="filter1_i_1895_30334" x="22" y="23" width="12" height="5" filterUnits="userSpaceOnUse" color-interpolation-filters="sRGB">
<feFlood flood-opacity="0" result="BackgroundImageFix"/>
<feBlend mode="normal" in="SourceGraphic" in2="BackgroundImageFix" result="shape"/>
<feColorMatrix in="SourceAlpha" type="matrix" values="0 0 0 0 0 0 0 0 0 0 0 0 0 0 0 0 0 0 127 0" result="hardAlpha"/>
<feOffset dy="-1"/>
<feComposite in2="hardAlpha" operator="arithmetic" k2="-1" k3="1"/>
<feColorMatrix type="matrix" values="0 0 0 0 1 0 0 0 0 0.870588 0 0 0 0 0.486275 0 0 0 0.6 0"/>
<feBlend mode="multiply" in2="shape" result="effect1_innerShadow_1895_30334"/>
</filter>
<filter id="filter2_i_1895_30334" x="22" y="20" width="12" height="5" filterUnits="userSpaceOnUse" color-interpolation-filters="sRGB">
<feFlood flood-opacity="0" result="BackgroundImageFix"/>
<feBlend mode="normal" in="SourceGraphic" in2="BackgroundImageFix" result="shape"/>
<feColorMatrix in="SourceAlpha" type="matrix" values="0 0 0 0 0 0 0 0 0 0 0 0 0 0 0 0 0 0 127 0" result="hardAlpha"/>
<feOffset dy="-1"/>
<feComposite in2="hardAlpha" operator="arithmetic" k2="-1" k3="1"/>
<feColorMatrix type="matrix" values="0 0 0 0 1 0 0 0 0 0.870588 0 0 0 0 0.486275 0 0 0 0.6 0"/>
<feBlend mode="multiply" in2="shape" result="effect1_innerShadow_1895_30334"/>
</filter>
<filter id="filter3_i_1895_30334" x="22" y="17" width="12" height="5" filterUnits="userSpaceOnUse" color-interpolation-filters="sRGB">
<feFlood flood-opacity="0" result="BackgroundImageFix"/>
<feBlend mode="normal" in="SourceGraphic" in2="BackgroundImageFix" result="shape"/>
<feColorMatrix in="SourceAlpha" type="matrix" values="0 0 0 0 0 0 0 0 0 0 0 0 0 0 0 0 0 0 127 0" result="hardAlpha"/>
<feOffset dy="-1"/>
<feComposite in2="hardAlpha" operator="arithmetic" k2="-1" k3="1"/>
<feColorMatrix type="matrix" values="0 0 0 0 1 0 0 0 0 0.870588 0 0 0 0 0.486275 0 0 0 0.6 0"/>
<feBlend mode="multiply" in2="shape" result="effect1_innerShadow_1895_30334"/>
</filter>
<filter id="filter4_d_1895_30334" x="8" y="15" width="20" height="18" filterUnits="userSpaceOnUse" color-interpolation-filters="sRGB">
<feFlood flood-opacity="0" result="BackgroundImageFix"/>
<feColorMatrix in="SourceAlpha" type="matrix" values="0 0 0 0 0 0 0 0 0 0 0 0 0 0 0 0 0 0 127 0" result="hardAlpha"/>
<feOffset dx="-1" dy="-2"/>
<feGaussianBlur stdDeviation="2"/>
<feComposite in2="hardAlpha" operator="out"/>
<feColorMatrix type="matrix" values="0 0 0 0 0 0 0 0 0 0 0 0 0 0 0 0 0 0 0.12 0"/>
<feBlend mode="overlay" in2="BackgroundImageFix" result="effect1_dropShadow_1895_30334"/>
<feBlend mode="normal" in="SourceGraphic" in2="effect1_dropShadow_1895_30334" result="shape"/>
</filter>
<filter id="filter5_i_1895_30334" x="13" y="24" width="12" height="5" filterUnits="userSpaceOnUse" color-interpolation-filters="sRGB">
<feFlood flood-opacity="0" result="BackgroundImageFix"/>
<feBlend mode="normal" in="SourceGraphic" in2="BackgroundImageFix" result="shape"/>
<feColorMatrix in="SourceAlpha" type="matrix" values="0 0 0 0 0 0 0 0 0 0 0 0 0 0 0 0 0 0 127 0" result="hardAlpha"/>
<feOffset dy="-1"/>
<feComposite in2="hardAlpha" operator="arithmetic" k2="-1" k3="1"/>
<feColorMatrix type="matrix" values="0 0 0 0 1 0 0 0 0 0.870588 0 0 0 0 0.486275 0 0 0 0.6 0"/>
<feBlend mode="multiply" in2="shape" result="effect1_innerShadow_1895_30334"/>
</filter>
<filter id="filter6_i_1895_30334" x="13" y="21" width="12" height="5" filterUnits="userSpaceOnUse" color-interpolation-filters="sRGB">
<feFlood flood-opacity="0" result="BackgroundImageFix"/>
<feBlend mode="normal" in="SourceGraphic" in2="BackgroundImageFix" result="shape"/>
<feColorMatrix in="SourceAlpha" type="matrix" values="0 0 0 0 0 0 0 0 0 0 0 0 0 0 0 0 0 0 127 0" result="hardAlpha"/>
<feOffset dy="-1"/>
<feComposite in2="hardAlpha" operator="arithmetic" k2="-1" k3="1"/>
<feColorMatrix type="matrix" values="0 0 0 0 1 0 0 0 0 0.870588 0 0 0 0 0.486275 0 0 0 0.6 0"/>
<feBlend mode="multiply" in2="shape" result="effect1_innerShadow_1895_30334"/>
</filter>
<filter id="filter7_d_1895_30334" x="0" y="19" width="20" height="15" filterUnits="userSpaceOnUse" color-interpolation-filters="sRGB">
<feFlood flood-opacity="0" result="BackgroundImageFix"/>
<feColorMatrix in="SourceAlpha" type="matrix" values="0 0 0 0 0 0 0 0 0 0 0 0 0 0 0 0 0 0 127 0" result="hardAlpha"/>
<feOffset dx="-1" dy="-2"/>
<feGaussianBlur stdDeviation="2"/>
<feComposite in2="hardAlpha" operator="out"/>
<feColorMatrix type="matrix" values="0 0 0 0 0 0 0 0 0 0 0 0 0 0 0 0 0 0 0.12 0"/>
<feBlend mode="overlay" in2="BackgroundImageFix" result="effect1_dropShadow_1895_30334"/>
<feBlend mode="normal" in="SourceGraphic" in2="effect1_dropShadow_1895_30334" result="shape"/>
</filter>
<filter id="filter8_i_1895_30334" x="5" y="25" width="12" height="5" filterUnits="userSpaceOnUse" color-interpolation-filters="sRGB">
<feFlood flood-opacity="0" result="BackgroundImageFix"/>
<feBlend mode="normal" in="SourceGraphic" in2="BackgroundImageFix" result="shape"/>
<feColorMatrix in="SourceAlpha" type="matrix" values="0 0 0 0 0 0 0 0 0 0 0 0 0 0 0 0 0 0 127 0" result="hardAlpha"/>
<feOffset dy="-1"/>
<feComposite in2="hardAlpha" operator="arithmetic" k2="-1" k3="1"/>
<feColorMatrix type="matrix" values="0 0 0 0 1 0 0 0 0 0.870588 0 0 0 0 0.486275 0 0 0 0.6 0"/>
<feBlend mode="multiply" in2="shape" result="effect1_innerShadow_1895_30334"/>
</filter>
</defs>
</svg>
