<svg width="36" height="34" viewBox="0 0 36 34" fill="none" xmlns="http://www.w3.org/2000/svg">
<path d="M4 5C4 3.89543 4.89543 3 6 3H24C25.1046 3 26 3.89543 26 5V29C26 30.1046 25.1046 31 24 31H8C5.79086 31 4 29.2091 4 27V5Z" fill="#1D8FFF"/>
<g filter="url(#filter0_d_1895_30336)">
<path d="M30.2857 23H13.1429C12.1961 23 11.4286 23.597 11.4286 24.3333V28.3333C11.4286 29.8061 9.89355 31 8 31H11.4286H28.5714C30.465 31 32 29.8061 32 28.3333V24.3333C32 23.597 31.2325 23 30.2857 23Z" fill="#BCDDFF"/>
</g>
<path d="M9 10H21" stroke="#BCDDFF" stroke-width="2" stroke-linecap="square"/>
<path d="M9 16H15" stroke="#BCDDFF" stroke-width="2" stroke-linecap="square"/>
<circle cx="28.5" cy="7.5" r="7.5" fill="#FFB200"/>
<path d="M24.5 6.68182L27.4091 10.3182L32.5 4.5" stroke="white" stroke-width="2" stroke-linecap="round" stroke-linejoin="round"/>
<defs>
<filter id="filter0_d_1895_30336" x="0" y="18" width="32" height="16" filterUnits="userSpaceOnUse" color-interpolation-filters="sRGB">
<feFlood flood-opacity="0" result="BackgroundImageFix"/>
<feColorMatrix in="SourceAlpha" type="matrix" values="0 0 0 0 0 0 0 0 0 0 0 0 0 0 0 0 0 0 127 0" result="hardAlpha"/>
<feOffset dx="-4" dy="-1"/>
<feGaussianBlur stdDeviation="2"/>
<feComposite in2="hardAlpha" operator="out"/>
<feColorMatrix type="matrix" values="0 0 0 0 0 0 0 0 0 0 0 0 0 0 0 0 0 0 0.12 0"/>
<feBlend mode="overlay" in2="BackgroundImageFix" result="effect1_dropShadow_1895_30336"/>
<feBlend mode="normal" in="SourceGraphic" in2="effect1_dropShadow_1895_30336" result="shape"/>
</filter>
</defs>
</svg>
