<svg width="32" height="32" viewBox="0 0 32 32" fill="none" xmlns="http://www.w3.org/2000/svg">
<ellipse cx="12" cy="29.5" rx="10" ry="2.5" fill="#BCDDFF"/>
<path d="M24 12.6234C24 22.4003 12 29.4545 12 29.4545C12 29.4545 0 22.4003 0 12.6234C0 5.65168 5.37258 0 12 0C18.6274 0 24 5.65168 24 12.6234Z" fill="#1D8FFF"/>
<circle cx="12" cy="12" r="8" fill="white" stroke="#BCDDFF" stroke-width="2"/>
<path d="M11.7245 5.63982C11.8286 5.39803 12.1714 5.39803 12.2755 5.63982L13.8222 9.23136C13.8656 9.33221 13.9607 9.40128 14.07 9.41142L17.9637 9.77255C18.2259 9.79686 18.3318 10.1229 18.134 10.2966L15.1962 12.8775C15.1137 12.9499 15.0774 13.0617 15.1016 13.1688L15.9613 16.9835C16.0192 17.2403 15.7419 17.4419 15.5155 17.3074L12.1532 15.3109C12.0588 15.2549 11.9412 15.2549 11.8468 15.3109L8.4845 17.3074C8.25814 17.4419 7.98079 17.2403 8.03867 16.9835L8.89843 13.1688C8.92257 13.0617 8.88626 12.9499 8.80377 12.8775L5.86597 10.2966C5.66819 10.1229 5.77413 9.79686 6.03626 9.77255L9.92996 9.41142C10.0393 9.40128 10.1344 9.33221 10.1778 9.23136L11.7245 5.63982Z" fill="#1D8FFF"/>
<path d="M29 20V26.5C29 28.9853 26.9853 31 24.5 31C22.0147 31 20 28.9853 20 26.5V19.5C20 18.1193 18.8807 17 17.5 17C16.1193 17 15 18.1193 15 19.5V26.1707C16.1652 26.5825 17 27.6938 17 29C17 30.6568 15.6569 32 14 32C12.3431 32 11 30.6568 11 29C11 27.6938 11.8348 26.5825 13 26.1707V19.5C13 17.0147 15.0147 15 17.5 15C19.9853 15 22 17.0147 22 19.5V26.5C22 27.8807 23.1193 29 24.5 29C25.8807 29 27 27.8807 27 26.5V20H24L28 15L32 20H29Z" fill="#FFB200"/>
</svg>
