<svg width="32" height="32" viewBox="0 0 32 32" fill="none" xmlns="http://www.w3.org/2000/svg">
<rect x="7.75" y="13.75" width="16.5" height="11.5" rx="1.25" stroke="#111111" stroke-width="1.5"/>
<circle cx="13" cy="19" r="1" fill="#111111"/>
<circle cx="16" cy="19" r="1" fill="#111111"/>
<circle cx="19" cy="19" r="1" fill="#111111"/>
<path d="M15.5 6.75H16V5.25H15.5V6.75ZM20.75 11.5V14H22.25V11.5H20.75ZM16 6.75C18.6234 6.75 20.75 8.87665 20.75 11.5H22.25C22.25 8.04822 19.4518 5.25 16 5.25V6.75ZM15.5 5.25C12.3244 5.25 9.75 7.82436 9.75 11H11.25C11.25 8.65279 13.1528 6.75 15.5 6.75V5.25Z" fill="#111111"/>
</svg>
