<svg width="72" height="72" viewBox="0 0 72 72" fill="none" xmlns="http://www.w3.org/2000/svg">
<path d="M7 27.3846L31 8L55 27.3846V56.4C55 57.5046 54.1046 58.4 53 58.4H9C7.89543 58.4 7 57.5046 7 56.4V27.3846Z" fill="#E5E5E5"/>
<path d="M22.6016 37.6016C22.6016 36.497 23.497 35.6016 24.6016 35.6016H37.4016C38.5061 35.6016 39.4016 36.497 39.4016 37.6016V58.4016H22.6016V37.6016Z" fill="#999999"/>
<path d="M57.9997 33.2039C57.2651 33.205 56.5559 32.9354 56.0076 32.4465L30.9997 10.2175L5.99192 32.4465C5.39712 32.9749 4.6168 33.2453 3.82261 33.1983C3.02842 33.1514 2.28542 32.7908 1.75706 32.196C1.2287 31.6012 0.958261 30.8209 1.00524 30.0267C1.05222 29.2325 1.41276 28.4895 2.00756 27.9612L29.0076 3.96117C29.5563 3.47288 30.2652 3.20312 30.9997 3.20312C31.7343 3.20312 32.4432 3.47288 32.9919 3.96117L59.9919 27.9612C60.4467 28.3653 60.7679 28.8981 60.9129 29.4889C61.0579 30.0798 61.0198 30.7008 60.8037 31.2695C60.5876 31.8382 60.2037 32.3278 59.7029 32.6732C59.2021 33.0187 58.6081 33.2038 57.9997 33.2039Z" fill="#1D8FFF"/>
<rect x="23.7969" y="46.3984" width="3.6" height="2.4" rx="1" fill="#333333"/>
<path d="M56 68C63.732 68 70 61.732 70 54C70 46.268 63.732 40 56 40C48.268 40 42 46.268 42 54C42 61.732 48.268 68 56 68Z" fill="#FF8908"/>
<path d="M51.5781 58.418L60.4198 49.5763" stroke="white" stroke-width="3" stroke-linecap="round"/>
<path d="M51.5781 49.582L60.4198 58.4237" stroke="white" stroke-width="3" stroke-linecap="round"/>
</svg>
