<svg width="72" height="72" viewBox="0 0 72 72" fill="none" xmlns="http://www.w3.org/2000/svg">
<g id="&#235;&#134;&#141;&#236;&#167;&#128;&#236;&#151;&#176;&#234;&#184;&#136;&#236;&#161;&#176;&#237;&#154;&#140;&#236;&#139;&#160;&#236;&#178;&#173;_icon" clip-path="url(#clip0_3998_108771)">
<g id="Group 34044">
<rect id="Rectangle 956906" x="9.48438" y="6" width="29.2394" height="9.81818" rx="4" fill="#FF8908"/>
<path id="Rectangle 956906_2" d="M9.48438 37.8438C9.48438 33.4255 13.0661 29.8438 17.4844 29.8438H53.0002C57.4185 29.8438 61.0002 33.4255 61.0002 37.8438V46.1814C61.0002 48.3905 59.2094 50.1814 57.0002 50.1814H13.4844C11.2752 50.1814 9.48438 48.3906 9.48438 46.1814V37.8438Z" fill="#1D8FFF"/>
<ellipse id="Ellipse 2543" cx="19.9235" cy="45.9732" rx="13.9235" ry="14.026" fill="#333333"/>
<ellipse id="Ellipse 2543_2" cx="52.6435" cy="51.5836" rx="8.35443" ry="8.41558" fill="#333333"/>
<rect id="Rectangle 956907" x="12.9609" y="15.8184" width="3.48101" height="14.026" fill="#E5E5E5"/>
<path id="Rectangle 956907_2" d="M32.4531 15.8184H35.9341L40.1114 29.8443H36.6303L32.4531 15.8184Z" fill="#E5E5E5"/>
<path id="Union" d="M20.6268 19.3242C19.8578 19.3242 19.2344 19.9522 19.2344 20.7268V29.8437H31.0698V25.6359C31.0698 24.8613 30.4464 24.2333 29.6774 24.2333H22.7154V20.7268C22.7154 19.9522 22.092 19.3242 21.323 19.3242H20.6268Z" fill="#1A72E7"/>
</g>
<g id="coin">
<g id="coin 2" filter="url(#filter0_d_3998_108771)">
<g id="coin 7">
<path id="Vector" d="M60.088 59.7935C64.6066 59.7935 68.2697 58.3476 68.2697 56.564V53.9805C68.2697 55.764 64.6066 57.2099 60.088 57.2099C55.5693 57.2099 51.9062 55.764 51.9062 53.9805V56.564C51.9062 58.3476 55.5693 59.7935 60.088 59.7935Z" fill="#FFB200"/>
<g id="Ellipse 455" filter="url(#filter1_i_3998_108771)">
<ellipse cx="60.088" cy="53.986" rx="8.18171" ry="3.23016" fill="#FFDF7F"/>
</g>
</g>
<g id="coin 6">
<path id="Vector_2" d="M60.088 55.9087C64.6066 55.9087 68.2697 54.4628 68.2697 52.6793V50.0957C68.2697 51.8793 64.6066 53.3251 60.088 53.3251C55.5693 53.3251 51.9062 51.8793 51.9062 50.0957V52.6793C51.9062 54.4628 55.5693 55.9087 60.088 55.9087Z" fill="#FFB200"/>
<g id="Ellipse 455_2" filter="url(#filter2_i_3998_108771)">
<ellipse cx="60.088" cy="50.1013" rx="8.18171" ry="3.23016" fill="#FFDF7F"/>
</g>
</g>
<g id="coin 3">
<path id="Vector_3" d="M60.088 52.0376C64.6066 52.0376 68.2697 50.5917 68.2697 48.8082V46.2246C68.2697 48.0082 64.6066 49.4541 60.088 49.4541C55.5693 49.4541 51.9062 48.0082 51.9062 46.2246V48.8082C51.9062 50.5917 55.5693 52.0376 60.088 52.0376Z" fill="#FFB200"/>
<g id="Ellipse 455_3" filter="url(#filter3_i_3998_108771)">
<ellipse cx="60.088" cy="46.2302" rx="8.18171" ry="3.23016" fill="#FFDF7F"/>
</g>
</g>
</g>
<g id="coin 3_2" filter="url(#filter4_d_3998_108771)">
<g id="coin 7_2">
<path id="Vector_4" d="M49.1817 61.1975C53.7003 61.1975 57.3634 59.7876 57.3634 58.0485V55.5293C57.3634 57.2684 53.7003 58.6783 49.1817 58.6783C44.6631 58.6783 41 57.2684 41 55.5293V58.0485C41 59.7876 44.6631 61.1975 49.1817 61.1975Z" fill="#FFB200"/>
<g id="Ellipse 455_4" filter="url(#filter5_i_3998_108771)">
<ellipse cx="49.1817" cy="55.5259" rx="8.18171" ry="3.14898" fill="#FFDF7F"/>
</g>
</g>
<g id="coin 6_2">
<path id="Vector_5" d="M49.1817 57.4123C53.7003 57.4123 57.3634 56.0025 57.3634 54.2633V51.7441C57.3634 53.4833 53.7003 54.8931 49.1817 54.8931C44.6631 54.8931 41 53.4833 41 51.7441V54.2633C41 56.0025 44.6631 57.4123 49.1817 57.4123Z" fill="#FFB200"/>
<g id="Ellipse 455_5" filter="url(#filter6_i_3998_108771)">
<ellipse cx="49.1817" cy="51.7408" rx="8.18171" ry="3.14898" fill="#FFDF7F"/>
</g>
</g>
</g>
<g id="coin 4" filter="url(#filter7_d_3998_108771)">
<g id="coin 7_3">
<path id="Vector_6" d="M62.8223 63.9977C67.341 63.9977 71.004 62.4311 71.004 60.4986V57.6992C71.004 59.6318 67.341 61.1984 62.8223 61.1984C58.3037 61.1984 54.6406 59.6318 54.6406 57.6992V60.4986C54.6406 62.4311 58.3037 63.9977 62.8223 63.9977Z" fill="#FFB200"/>
<g id="Ellipse 455_6" filter="url(#filter8_i_3998_108771)">
<ellipse cx="62.8223" cy="57.7023" rx="8.18171" ry="3.49918" fill="#FFDF7F"/>
</g>
</g>
</g>
</g>
</g>
<defs>
<filter id="filter0_d_3998_108771" x="46.9062" y="37" width="24.3672" height="24.793" filterUnits="userSpaceOnUse" color-interpolation-filters="sRGB">
<feFlood flood-opacity="0" result="BackgroundImageFix"/>
<feColorMatrix in="SourceAlpha" type="matrix" values="0 0 0 0 0 0 0 0 0 0 0 0 0 0 0 0 0 0 127 0" result="hardAlpha"/>
<feOffset dx="-1" dy="-2"/>
<feGaussianBlur stdDeviation="2"/>
<feComposite in2="hardAlpha" operator="out"/>
<feColorMatrix type="matrix" values="0 0 0 0 0 0 0 0 0 0 0 0 0 0 0 0 0 0 0.12 0"/>
<feBlend mode="overlay" in2="BackgroundImageFix" result="effect1_dropShadow_3998_108771"/>
<feBlend mode="normal" in="SourceGraphic" in2="effect1_dropShadow_3998_108771" result="shape"/>
</filter>
<filter id="filter1_i_3998_108771" x="51.9062" y="50.7559" width="16.3672" height="6.46094" filterUnits="userSpaceOnUse" color-interpolation-filters="sRGB">
<feFlood flood-opacity="0" result="BackgroundImageFix"/>
<feBlend mode="normal" in="SourceGraphic" in2="BackgroundImageFix" result="shape"/>
<feColorMatrix in="SourceAlpha" type="matrix" values="0 0 0 0 0 0 0 0 0 0 0 0 0 0 0 0 0 0 127 0" result="hardAlpha"/>
<feOffset dy="-1"/>
<feComposite in2="hardAlpha" operator="arithmetic" k2="-1" k3="1"/>
<feColorMatrix type="matrix" values="0 0 0 0 1 0 0 0 0 0.870588 0 0 0 0 0.486275 0 0 0 0.6 0"/>
<feBlend mode="multiply" in2="shape" result="effect1_innerShadow_3998_108771"/>
</filter>
<filter id="filter2_i_3998_108771" x="51.9062" y="46.8711" width="16.3672" height="6.46094" filterUnits="userSpaceOnUse" color-interpolation-filters="sRGB">
<feFlood flood-opacity="0" result="BackgroundImageFix"/>
<feBlend mode="normal" in="SourceGraphic" in2="BackgroundImageFix" result="shape"/>
<feColorMatrix in="SourceAlpha" type="matrix" values="0 0 0 0 0 0 0 0 0 0 0 0 0 0 0 0 0 0 127 0" result="hardAlpha"/>
<feOffset dy="-1"/>
<feComposite in2="hardAlpha" operator="arithmetic" k2="-1" k3="1"/>
<feColorMatrix type="matrix" values="0 0 0 0 1 0 0 0 0 0.870588 0 0 0 0 0.486275 0 0 0 0.6 0"/>
<feBlend mode="multiply" in2="shape" result="effect1_innerShadow_3998_108771"/>
</filter>
<filter id="filter3_i_3998_108771" x="51.9062" y="43" width="16.3672" height="6.46094" filterUnits="userSpaceOnUse" color-interpolation-filters="sRGB">
<feFlood flood-opacity="0" result="BackgroundImageFix"/>
<feBlend mode="normal" in="SourceGraphic" in2="BackgroundImageFix" result="shape"/>
<feColorMatrix in="SourceAlpha" type="matrix" values="0 0 0 0 0 0 0 0 0 0 0 0 0 0 0 0 0 0 127 0" result="hardAlpha"/>
<feOffset dy="-1"/>
<feComposite in2="hardAlpha" operator="arithmetic" k2="-1" k3="1"/>
<feColorMatrix type="matrix" values="0 0 0 0 1 0 0 0 0 0.870588 0 0 0 0 0.486275 0 0 0 0.6 0"/>
<feBlend mode="multiply" in2="shape" result="effect1_innerShadow_3998_108771"/>
</filter>
<filter id="filter4_d_3998_108771" x="36" y="42.5918" width="24.3672" height="20.6055" filterUnits="userSpaceOnUse" color-interpolation-filters="sRGB">
<feFlood flood-opacity="0" result="BackgroundImageFix"/>
<feColorMatrix in="SourceAlpha" type="matrix" values="0 0 0 0 0 0 0 0 0 0 0 0 0 0 0 0 0 0 127 0" result="hardAlpha"/>
<feOffset dx="-1" dy="-2"/>
<feGaussianBlur stdDeviation="2"/>
<feComposite in2="hardAlpha" operator="out"/>
<feColorMatrix type="matrix" values="0 0 0 0 0 0 0 0 0 0 0 0 0 0 0 0 0 0 0.12 0"/>
<feBlend mode="overlay" in2="BackgroundImageFix" result="effect1_dropShadow_3998_108771"/>
<feBlend mode="normal" in="SourceGraphic" in2="effect1_dropShadow_3998_108771" result="shape"/>
</filter>
<filter id="filter5_i_3998_108771" x="41" y="52.377" width="16.3672" height="6.29883" filterUnits="userSpaceOnUse" color-interpolation-filters="sRGB">
<feFlood flood-opacity="0" result="BackgroundImageFix"/>
<feBlend mode="normal" in="SourceGraphic" in2="BackgroundImageFix" result="shape"/>
<feColorMatrix in="SourceAlpha" type="matrix" values="0 0 0 0 0 0 0 0 0 0 0 0 0 0 0 0 0 0 127 0" result="hardAlpha"/>
<feOffset dy="-1"/>
<feComposite in2="hardAlpha" operator="arithmetic" k2="-1" k3="1"/>
<feColorMatrix type="matrix" values="0 0 0 0 1 0 0 0 0 0.870588 0 0 0 0 0.486275 0 0 0 0.6 0"/>
<feBlend mode="multiply" in2="shape" result="effect1_innerShadow_3998_108771"/>
</filter>
<filter id="filter6_i_3998_108771" x="41" y="48.5918" width="16.3672" height="6.29883" filterUnits="userSpaceOnUse" color-interpolation-filters="sRGB">
<feFlood flood-opacity="0" result="BackgroundImageFix"/>
<feBlend mode="normal" in="SourceGraphic" in2="BackgroundImageFix" result="shape"/>
<feColorMatrix in="SourceAlpha" type="matrix" values="0 0 0 0 0 0 0 0 0 0 0 0 0 0 0 0 0 0 127 0" result="hardAlpha"/>
<feOffset dy="-1"/>
<feComposite in2="hardAlpha" operator="arithmetic" k2="-1" k3="1"/>
<feColorMatrix type="matrix" values="0 0 0 0 1 0 0 0 0 0.870588 0 0 0 0 0.486275 0 0 0 0.6 0"/>
<feBlend mode="multiply" in2="shape" result="effect1_innerShadow_3998_108771"/>
</filter>
<filter id="filter7_d_3998_108771" x="49.6406" y="48.2031" width="24.3672" height="17.7949" filterUnits="userSpaceOnUse" color-interpolation-filters="sRGB">
<feFlood flood-opacity="0" result="BackgroundImageFix"/>
<feColorMatrix in="SourceAlpha" type="matrix" values="0 0 0 0 0 0 0 0 0 0 0 0 0 0 0 0 0 0 127 0" result="hardAlpha"/>
<feOffset dx="-1" dy="-2"/>
<feGaussianBlur stdDeviation="2"/>
<feComposite in2="hardAlpha" operator="out"/>
<feColorMatrix type="matrix" values="0 0 0 0 0 0 0 0 0 0 0 0 0 0 0 0 0 0 0.12 0"/>
<feBlend mode="overlay" in2="BackgroundImageFix" result="effect1_dropShadow_3998_108771"/>
<feBlend mode="normal" in="SourceGraphic" in2="effect1_dropShadow_3998_108771" result="shape"/>
</filter>
<filter id="filter8_i_3998_108771" x="54.6406" y="54.2031" width="16.3672" height="6.99805" filterUnits="userSpaceOnUse" color-interpolation-filters="sRGB">
<feFlood flood-opacity="0" result="BackgroundImageFix"/>
<feBlend mode="normal" in="SourceGraphic" in2="BackgroundImageFix" result="shape"/>
<feColorMatrix in="SourceAlpha" type="matrix" values="0 0 0 0 0 0 0 0 0 0 0 0 0 0 0 0 0 0 127 0" result="hardAlpha"/>
<feOffset dy="-1"/>
<feComposite in2="hardAlpha" operator="arithmetic" k2="-1" k3="1"/>
<feColorMatrix type="matrix" values="0 0 0 0 1 0 0 0 0 0.870588 0 0 0 0 0.486275 0 0 0 0.6 0"/>
<feBlend mode="multiply" in2="shape" result="effect1_innerShadow_3998_108771"/>
</filter>
<clipPath id="clip0_3998_108771">
<rect width="72" height="72" fill="white"/>
</clipPath>
</defs>
</svg>
