<svg width="72" height="72" viewBox="0 0 72 72" fill="none" xmlns="http://www.w3.org/2000/svg">
<rect y="5" width="72" height="32" rx="4" fill="#1A72E7"/>
<rect x="5" y="10" width="62" height="22" rx="2" fill="white"/>
<rect x="10" y="15" width="4" height="12" rx="1" fill="#BCDDFF"/>
<g filter="url(#filter0_d_3659_160030)">
<path d="M43.625 51C53.5661 51 61.625 42.9411 61.625 33C61.625 23.0589 53.5661 15 43.625 15C33.6839 15 25.625 23.0589 25.625 33C25.625 42.9411 33.6839 51 43.625 51Z" fill="white"/>
<path d="M60.125 33C60.125 42.1127 52.7377 49.5 43.625 49.5C34.5123 49.5 27.125 42.1127 27.125 33C27.125 23.8873 34.5123 16.5 43.625 16.5C52.7377 16.5 60.125 23.8873 60.125 33Z" stroke="#CCCCCC" stroke-width="3"/>
</g>
<rect x="25" y="49.3242" width="7" height="3" transform="rotate(-45 25 49.3242)" fill="#BCBCBC"/>
<path d="M21.7671 48.3344L9.03921 61.0623C8.25817 61.8434 8.25816 63.1097 9.03921 63.8908L12.5747 67.4263C13.3558 68.2074 14.6221 68.2074 15.4032 67.4263L28.1311 54.6984C28.9121 53.9173 28.9121 52.651 28.1311 51.87L24.5956 48.3344C23.8145 47.5534 22.5482 47.5534 21.7671 48.3344Z" fill="#FFB200"/>
<defs>
<filter id="filter0_d_3659_160030" x="22.625" y="14" width="42" height="42" filterUnits="userSpaceOnUse" color-interpolation-filters="sRGB">
<feFlood flood-opacity="0" result="BackgroundImageFix"/>
<feColorMatrix in="SourceAlpha" type="matrix" values="0 0 0 0 0 0 0 0 0 0 0 0 0 0 0 0 0 0 127 0" result="hardAlpha"/>
<feOffset dy="2"/>
<feGaussianBlur stdDeviation="1.5"/>
<feComposite in2="hardAlpha" operator="out"/>
<feColorMatrix type="matrix" values="0 0 0 0 0 0 0 0 0 0 0 0 0 0 0 0 0 0 0.1 0"/>
<feBlend mode="normal" in2="BackgroundImageFix" result="effect1_dropShadow_3659_160030"/>
<feBlend mode="normal" in="SourceGraphic" in2="effect1_dropShadow_3659_160030" result="shape"/>
</filter>
</defs>
</svg>
