<svg width="72" height="72" viewBox="0 0 72 72" fill="none" xmlns="http://www.w3.org/2000/svg">
<path d="M25 14V11H37V14H43V11C42.9962 7.68785 40.3122 5.00378 37 5H25C21.6878 5.00378 19.0038 7.68785 19 11V14H25Z" fill="#1A72E7"/>
<path d="M22 41C20.3436 41.0004 19.0004 39.658 19 38.0016C19 38.001 19 38.0005 19 38V32C19 30.3431 20.3431 29 22 29C23.6569 29 25 30.3431 25 32V38C25.0004 39.6564 23.658 40.9996 22.0016 41C22.001 41 22.0005 41 22 41ZM40 41C38.3436 41.0004 37.0004 39.658 37 38.0016C37 38.001 37 38.0005 37 38V32C37 30.3431 38.3431 29 40 29C41.6569 29 43 30.3431 43 32V38C43.0004 39.6564 41.658 40.9996 40.0016 41C40.001 41 40.0005 41 40 41Z" fill="#333333"/>
<path d="M55 14H7C3.68629 14 1 16.6863 1 20V29C1 32.3137 3.68629 35 7 35H19V32C19 30.3431 20.3431 29 22 29C23.6569 29 25 30.3431 25 32V35H37V32C37 30.3431 38.3431 29 40 29C41.6569 29 43 30.3431 43 32V35H55C58.3137 35 61 32.3137 61 29V20C61 16.6863 58.3137 14 55 14Z" fill="#BCDDFF"/>
<path d="M55 35H43V38C43 39.6569 41.6569 41 40 41C38.3431 41 37 39.6569 37 38V35H25V38C25 39.6569 23.6569 41 22 41C20.3431 41 19 39.6569 19 38V35H7C3.68629 35 1 32.3137 1 29V53C1 56.3137 3.68629 59 7 59H55C58.3137 59 61 56.3137 61 53V29C61 32.3137 58.3137 35 55 35Z" fill="#1D8FFF"/>
<path d="M57 69C64.732 69 71 62.732 71 55C71 47.268 64.732 41 57 41C49.268 41 43 47.268 43 55C43 62.732 49.268 69 57 69Z" fill="#FF8908"/>
<path d="M52.5781 59.418L61.4198 50.5763" stroke="white" stroke-width="3" stroke-linecap="round"/>
<path d="M52.5781 50.582L61.4198 59.4237" stroke="white" stroke-width="3" stroke-linecap="round"/>
</svg>
