<svg width="72" height="72" viewBox="0 0 72 72" fill="none" xmlns="http://www.w3.org/2000/svg">
<g id="&#234;&#181;&#176;&#236;&#157;&#184;&#236;&#151;&#176;&#234;&#184;&#136;&#236;&#161;&#176;&#237;&#154;&#140;&#236;&#139;&#160;&#236;&#178;&#173;_icon" clip-path="url(#clip0_3998_108628)">
<g id="Group 34041">
<g id="Union">
<mask id="path-1-inside-1_3998_108628" fill="white">
<path fill-rule="evenodd" clip-rule="evenodd" d="M66.0446 45.5604C66.3527 44.2619 66.5134 42.7056 66.5134 40.8478C66.5134 23.811 52.9933 10 36.3153 10C19.6373 10 6.11719 23.811 6.11719 40.8478C6.11719 42.5358 6.24991 43.975 6.50529 45.1981C4.26274 45.8367 3 46.7392 3 48.0145C3 52.3768 17.7746 53 36 53C54.2254 53 69 51.1304 69 48.0145C69 47.0086 68.0917 46.1976 66.0446 45.5604Z"/>
</mask>
<path fill-rule="evenodd" clip-rule="evenodd" d="M66.0446 45.5604C66.3527 44.2619 66.5134 42.7056 66.5134 40.8478C66.5134 23.811 52.9933 10 36.3153 10C19.6373 10 6.11719 23.811 6.11719 40.8478C6.11719 42.5358 6.24991 43.975 6.50529 45.1981C4.26274 45.8367 3 46.7392 3 48.0145C3 52.3768 17.7746 53 36 53C54.2254 53 69 51.1304 69 48.0145C69 47.0086 68.0917 46.1976 66.0446 45.5604Z" fill="#1D8FFF"/>
<path d="M66.0446 45.5604L64.0986 45.0988L63.6676 46.9152L65.4502 47.4701L66.0446 45.5604ZM6.50529 45.1981L7.05308 47.1216L8.84358 46.6117L8.46307 44.7893L6.50529 45.1981ZM64.5134 40.8478C64.5134 42.5971 64.3614 43.9913 64.0986 45.0988L67.9906 46.0221C68.344 44.5325 68.5134 42.814 68.5134 40.8478H64.5134ZM36.3153 12C51.8488 12 64.5134 24.8753 64.5134 40.8478H68.5134C68.5134 22.7468 54.1378 8 36.3153 8V12ZM8.11719 40.8478C8.11719 24.8753 20.7818 12 36.3153 12V8C18.4929 8 4.11719 22.7468 4.11719 40.8478H8.11719ZM8.46307 44.7893C8.24254 43.7331 8.11719 42.4361 8.11719 40.8478H4.11719C4.11719 42.6355 4.25729 44.2169 4.54751 45.6068L8.46307 44.7893ZM5 48.0145C5 48.1506 4.89221 48.1392 5.14172 47.9446C5.44351 47.7092 6.03637 47.4111 7.05308 47.1216L5.9575 43.2745C4.73167 43.6236 3.57188 44.0961 2.68166 44.7905C1.73916 45.5256 1 46.6031 1 48.0145H5ZM36 51C26.8789 51 18.7389 50.8424 12.8987 50.1568C9.95788 49.8115 7.75626 49.3483 6.33984 48.7784C4.75724 48.1416 5 47.7509 5 48.0145H1C1 50.4593 3.08959 51.7823 4.84677 52.4893C6.77012 53.2631 9.40124 53.7736 12.4323 54.1295C18.5357 54.846 26.8957 55 36 55V51ZM67 48.0145C67 47.5346 67.2964 47.3898 67.0853 47.5575C66.8861 47.7158 66.4642 47.9562 65.717 48.2307C64.2434 48.7721 61.9894 49.2743 59.0505 49.696C53.2074 50.5344 45.0606 51 36 51V55C45.1647 55 53.518 54.5308 59.6186 53.6554C62.6515 53.2203 65.2303 52.6709 67.0964 51.9853C68.0191 51.6464 68.8939 51.2295 69.5738 50.6891C70.2419 50.1583 71 49.2734 71 48.0145H67ZM65.4502 47.4701C66.3615 47.7537 66.8101 48.0172 66.999 48.1768C67.0802 48.2454 67.0737 48.2618 67.0481 48.2121C67.0176 48.1529 67 48.0778 67 48.0145H71C71 46.8076 70.4173 45.8285 69.5808 45.1216C68.8038 44.465 67.7747 44.0043 66.639 43.6508L65.4502 47.4701Z" fill="#1A72E7" mask="url(#path-1-inside-1_3998_108628)"/>
</g>
<path id="Vector 2556" d="M37.0501 48.0142C23.5426 48.0142 12.9577 46.7679 7.97656 45.8331C15.7596 46.1447 24.0954 47.0795 37.0501 47.0795C50.0049 47.0795 57.3064 45.9369 64.6369 45.5215C59.0332 46.7679 48.3813 48.0142 37.0501 48.0142Z" fill="white"/>
<g id="Group 34040">
<path id="Vector 2551" d="M35.3922 14.136C35.6985 11.6758 32.0225 11.6758 23.445 14.751C20.3816 16.5965 17.6246 19.6708 19.7689 21.5159C21.9133 23.361 21.9133 22.131 25.283 21.5159C28.6528 20.9009 27.4274 22.131 30.4908 23.6685C33.5542 25.2061 34.7795 24.2836 34.4732 22.131C34.1669 19.9784 30.7971 21.5159 31.1035 19.0558C31.4098 16.5957 35.0859 16.5961 35.3922 14.136Z" fill="#BCDDFF"/>
<path id="Vector 2552" d="M15.4628 37.0619C14.8711 37.9549 13.6879 41.2293 12.2089 39.7409C11.0256 38.5502 12.2089 37.6573 13.3921 37.0619C14.5753 36.4666 14.5753 35.2761 15.4628 34.0853C16.3502 32.8945 15.4628 31.4065 17.5334 31.1088C19.6041 30.8112 19.0125 32.2995 19.0125 33.4901C19.0125 34.6808 19.3083 35.2761 20.4915 35.2761C21.6748 35.2761 22.2664 35.2761 21.9706 36.1691C21.6748 37.0621 20.1957 37.3596 19.0125 36.7643C17.8292 36.1689 16.0544 36.1689 15.4628 37.0619Z" fill="white"/>
<path id="Vector 2553" d="M30.5186 29.6014C28.6744 29.3014 27.4449 28.7014 26.5228 30.5014C25.9081 31.7008 26.5228 32.9018 28.6744 32.6019C30.826 32.3019 31.1333 32.3019 32.0554 33.8018C32.9775 35.3018 31.7481 35.0018 31.4407 35.9018C31.1333 36.8017 32.0554 36.8017 32.6702 38.3017C33.2849 39.8016 35.1291 41.0016 38.2028 41.3016C41.2765 41.6016 44.3502 39.5017 44.3502 38.0017C44.3502 36.5017 42.506 36.5017 40.6617 36.8017C38.8175 37.1017 39.1249 36.2018 39.4323 35.3018C39.7396 34.4018 38.8175 34.4018 37.5881 35.0018C36.3586 35.6018 36.3586 34.4018 37.2807 33.5018C38.2028 32.6019 40.047 32.6019 42.506 32.3019C44.9649 32.0019 46.1944 31.1019 45.5796 30.2019C44.9649 29.302 44.0428 29.6014 42.8133 30.5014C41.5839 31.4014 39.7396 32.0019 38.8175 31.1019C37.8954 30.2019 36.9733 29.9019 34.8218 29.6014C32.6702 29.3009 32.3628 29.9014 30.5186 29.6014Z" fill="#BCDDFF"/>
<path id="Vector 2554" d="M44.0776 23.3687C42.5343 23.0691 40.3736 23.3687 40.9909 25.4659C42.2276 28.4617 44.693 26.3647 47.471 26.0651C50.249 25.7656 50.8664 27.2635 51.4837 28.7615C52.101 30.2595 53.3357 32.3566 55.1877 31.4578C57.0398 30.5591 55.4964 29.0611 54.2617 27.8627C53.0271 26.6643 54.2617 25.7656 54.8791 25.1664C55.4964 24.5672 57.0398 23.3687 55.1877 21.5711C53.3357 19.7734 50.5577 21.5711 49.0143 22.7694C47.471 23.9678 45.621 23.6683 44.0776 23.3687Z" fill="white"/>
<path id="Vector 2555" d="M53.9664 36.4822C52.1028 35.5917 50.5499 35.8886 51.4816 37.3727C52.1047 39.4504 53.6539 38.2632 55.828 38.2632C58.0022 38.2632 58.0022 39.4504 58.3128 40.3409C58.6234 41.2314 58.0022 43.0123 60.1763 42.4187C62.3505 41.825 59.8657 40.6377 59.8657 39.4504C59.8657 38.2632 62.0399 38.2632 61.4187 36.4822C60.7975 34.7013 58.6234 35.2949 57.381 35.8886C56.1386 36.4822 55.8299 37.3727 53.9664 36.4822Z" fill="#BCDDFF"/>
</g>
</g>
<g id="coin">
<g id="coin 2" filter="url(#filter0_d_3998_108628)">
<g id="coin 7">
<path id="Vector" d="M60.088 59.7935C64.6066 59.7935 68.2697 58.3476 68.2697 56.564V53.9805C68.2697 55.764 64.6066 57.2099 60.088 57.2099C55.5693 57.2099 51.9062 55.764 51.9062 53.9805V56.564C51.9062 58.3476 55.5693 59.7935 60.088 59.7935Z" fill="#FFB200"/>
<g id="Ellipse 455" filter="url(#filter1_i_3998_108628)">
<ellipse cx="60.088" cy="53.986" rx="8.18171" ry="3.23016" fill="#FFDF7F"/>
</g>
</g>
<g id="coin 6">
<path id="Vector_2" d="M60.088 55.9087C64.6066 55.9087 68.2697 54.4628 68.2697 52.6793V50.0957C68.2697 51.8793 64.6066 53.3251 60.088 53.3251C55.5693 53.3251 51.9062 51.8793 51.9062 50.0957V52.6793C51.9062 54.4628 55.5693 55.9087 60.088 55.9087Z" fill="#FFB200"/>
<g id="Ellipse 455_2" filter="url(#filter2_i_3998_108628)">
<ellipse cx="60.088" cy="50.1013" rx="8.18171" ry="3.23016" fill="#FFDF7F"/>
</g>
</g>
<g id="coin 3">
<path id="Vector_3" d="M60.088 52.0376C64.6066 52.0376 68.2697 50.5917 68.2697 48.8082V46.2246C68.2697 48.0082 64.6066 49.4541 60.088 49.4541C55.5693 49.4541 51.9062 48.0082 51.9062 46.2246V48.8082C51.9062 50.5917 55.5693 52.0376 60.088 52.0376Z" fill="#FFB200"/>
<g id="Ellipse 455_3" filter="url(#filter3_i_3998_108628)">
<ellipse cx="60.088" cy="46.2302" rx="8.18171" ry="3.23016" fill="#FFDF7F"/>
</g>
</g>
</g>
<g id="coin 3_2" filter="url(#filter4_d_3998_108628)">
<g id="coin 7_2">
<path id="Vector_4" d="M49.1817 61.1975C53.7003 61.1975 57.3634 59.7876 57.3634 58.0485V55.5293C57.3634 57.2684 53.7003 58.6783 49.1817 58.6783C44.6631 58.6783 41 57.2684 41 55.5293V58.0485C41 59.7876 44.6631 61.1975 49.1817 61.1975Z" fill="#FFB200"/>
<g id="Ellipse 455_4" filter="url(#filter5_i_3998_108628)">
<ellipse cx="49.1817" cy="55.5259" rx="8.18171" ry="3.14898" fill="#FFDF7F"/>
</g>
</g>
<g id="coin 6_2">
<path id="Vector_5" d="M49.1817 57.4123C53.7003 57.4123 57.3634 56.0025 57.3634 54.2633V51.7441C57.3634 53.4833 53.7003 54.8931 49.1817 54.8931C44.6631 54.8931 41 53.4833 41 51.7441V54.2633C41 56.0025 44.6631 57.4123 49.1817 57.4123Z" fill="#FFB200"/>
<g id="Ellipse 455_5" filter="url(#filter6_i_3998_108628)">
<ellipse cx="49.1817" cy="51.7408" rx="8.18171" ry="3.14898" fill="#FFDF7F"/>
</g>
</g>
</g>
<g id="coin 4" filter="url(#filter7_d_3998_108628)">
<g id="coin 7_3">
<path id="Vector_6" d="M62.8223 63.9977C67.341 63.9977 71.004 62.4311 71.004 60.4986V57.6992C71.004 59.6318 67.341 61.1984 62.8223 61.1984C58.3037 61.1984 54.6406 59.6318 54.6406 57.6992V60.4986C54.6406 62.4311 58.3037 63.9977 62.8223 63.9977Z" fill="#FFB200"/>
<g id="Ellipse 455_6" filter="url(#filter8_i_3998_108628)">
<ellipse cx="62.8223" cy="57.7023" rx="8.18171" ry="3.49918" fill="#FFDF7F"/>
</g>
</g>
</g>
</g>
</g>
<defs>
<filter id="filter0_d_3998_108628" x="46.9062" y="37" width="24.3672" height="24.793" filterUnits="userSpaceOnUse" color-interpolation-filters="sRGB">
<feFlood flood-opacity="0" result="BackgroundImageFix"/>
<feColorMatrix in="SourceAlpha" type="matrix" values="0 0 0 0 0 0 0 0 0 0 0 0 0 0 0 0 0 0 127 0" result="hardAlpha"/>
<feOffset dx="-1" dy="-2"/>
<feGaussianBlur stdDeviation="2"/>
<feComposite in2="hardAlpha" operator="out"/>
<feColorMatrix type="matrix" values="0 0 0 0 0 0 0 0 0 0 0 0 0 0 0 0 0 0 0.12 0"/>
<feBlend mode="overlay" in2="BackgroundImageFix" result="effect1_dropShadow_3998_108628"/>
<feBlend mode="normal" in="SourceGraphic" in2="effect1_dropShadow_3998_108628" result="shape"/>
</filter>
<filter id="filter1_i_3998_108628" x="51.9062" y="50.7559" width="16.3672" height="6.46094" filterUnits="userSpaceOnUse" color-interpolation-filters="sRGB">
<feFlood flood-opacity="0" result="BackgroundImageFix"/>
<feBlend mode="normal" in="SourceGraphic" in2="BackgroundImageFix" result="shape"/>
<feColorMatrix in="SourceAlpha" type="matrix" values="0 0 0 0 0 0 0 0 0 0 0 0 0 0 0 0 0 0 127 0" result="hardAlpha"/>
<feOffset dy="-1"/>
<feComposite in2="hardAlpha" operator="arithmetic" k2="-1" k3="1"/>
<feColorMatrix type="matrix" values="0 0 0 0 1 0 0 0 0 0.870588 0 0 0 0 0.486275 0 0 0 0.6 0"/>
<feBlend mode="multiply" in2="shape" result="effect1_innerShadow_3998_108628"/>
</filter>
<filter id="filter2_i_3998_108628" x="51.9062" y="46.8711" width="16.3672" height="6.46094" filterUnits="userSpaceOnUse" color-interpolation-filters="sRGB">
<feFlood flood-opacity="0" result="BackgroundImageFix"/>
<feBlend mode="normal" in="SourceGraphic" in2="BackgroundImageFix" result="shape"/>
<feColorMatrix in="SourceAlpha" type="matrix" values="0 0 0 0 0 0 0 0 0 0 0 0 0 0 0 0 0 0 127 0" result="hardAlpha"/>
<feOffset dy="-1"/>
<feComposite in2="hardAlpha" operator="arithmetic" k2="-1" k3="1"/>
<feColorMatrix type="matrix" values="0 0 0 0 1 0 0 0 0 0.870588 0 0 0 0 0.486275 0 0 0 0.6 0"/>
<feBlend mode="multiply" in2="shape" result="effect1_innerShadow_3998_108628"/>
</filter>
<filter id="filter3_i_3998_108628" x="51.9062" y="43" width="16.3672" height="6.46094" filterUnits="userSpaceOnUse" color-interpolation-filters="sRGB">
<feFlood flood-opacity="0" result="BackgroundImageFix"/>
<feBlend mode="normal" in="SourceGraphic" in2="BackgroundImageFix" result="shape"/>
<feColorMatrix in="SourceAlpha" type="matrix" values="0 0 0 0 0 0 0 0 0 0 0 0 0 0 0 0 0 0 127 0" result="hardAlpha"/>
<feOffset dy="-1"/>
<feComposite in2="hardAlpha" operator="arithmetic" k2="-1" k3="1"/>
<feColorMatrix type="matrix" values="0 0 0 0 1 0 0 0 0 0.870588 0 0 0 0 0.486275 0 0 0 0.6 0"/>
<feBlend mode="multiply" in2="shape" result="effect1_innerShadow_3998_108628"/>
</filter>
<filter id="filter4_d_3998_108628" x="36" y="42.5918" width="24.3672" height="20.6055" filterUnits="userSpaceOnUse" color-interpolation-filters="sRGB">
<feFlood flood-opacity="0" result="BackgroundImageFix"/>
<feColorMatrix in="SourceAlpha" type="matrix" values="0 0 0 0 0 0 0 0 0 0 0 0 0 0 0 0 0 0 127 0" result="hardAlpha"/>
<feOffset dx="-1" dy="-2"/>
<feGaussianBlur stdDeviation="2"/>
<feComposite in2="hardAlpha" operator="out"/>
<feColorMatrix type="matrix" values="0 0 0 0 0 0 0 0 0 0 0 0 0 0 0 0 0 0 0.12 0"/>
<feBlend mode="overlay" in2="BackgroundImageFix" result="effect1_dropShadow_3998_108628"/>
<feBlend mode="normal" in="SourceGraphic" in2="effect1_dropShadow_3998_108628" result="shape"/>
</filter>
<filter id="filter5_i_3998_108628" x="41" y="52.377" width="16.3672" height="6.29883" filterUnits="userSpaceOnUse" color-interpolation-filters="sRGB">
<feFlood flood-opacity="0" result="BackgroundImageFix"/>
<feBlend mode="normal" in="SourceGraphic" in2="BackgroundImageFix" result="shape"/>
<feColorMatrix in="SourceAlpha" type="matrix" values="0 0 0 0 0 0 0 0 0 0 0 0 0 0 0 0 0 0 127 0" result="hardAlpha"/>
<feOffset dy="-1"/>
<feComposite in2="hardAlpha" operator="arithmetic" k2="-1" k3="1"/>
<feColorMatrix type="matrix" values="0 0 0 0 1 0 0 0 0 0.870588 0 0 0 0 0.486275 0 0 0 0.6 0"/>
<feBlend mode="multiply" in2="shape" result="effect1_innerShadow_3998_108628"/>
</filter>
<filter id="filter6_i_3998_108628" x="41" y="48.5918" width="16.3672" height="6.29883" filterUnits="userSpaceOnUse" color-interpolation-filters="sRGB">
<feFlood flood-opacity="0" result="BackgroundImageFix"/>
<feBlend mode="normal" in="SourceGraphic" in2="BackgroundImageFix" result="shape"/>
<feColorMatrix in="SourceAlpha" type="matrix" values="0 0 0 0 0 0 0 0 0 0 0 0 0 0 0 0 0 0 127 0" result="hardAlpha"/>
<feOffset dy="-1"/>
<feComposite in2="hardAlpha" operator="arithmetic" k2="-1" k3="1"/>
<feColorMatrix type="matrix" values="0 0 0 0 1 0 0 0 0 0.870588 0 0 0 0 0.486275 0 0 0 0.6 0"/>
<feBlend mode="multiply" in2="shape" result="effect1_innerShadow_3998_108628"/>
</filter>
<filter id="filter7_d_3998_108628" x="49.6406" y="48.2031" width="24.3672" height="17.7949" filterUnits="userSpaceOnUse" color-interpolation-filters="sRGB">
<feFlood flood-opacity="0" result="BackgroundImageFix"/>
<feColorMatrix in="SourceAlpha" type="matrix" values="0 0 0 0 0 0 0 0 0 0 0 0 0 0 0 0 0 0 127 0" result="hardAlpha"/>
<feOffset dx="-1" dy="-2"/>
<feGaussianBlur stdDeviation="2"/>
<feComposite in2="hardAlpha" operator="out"/>
<feColorMatrix type="matrix" values="0 0 0 0 0 0 0 0 0 0 0 0 0 0 0 0 0 0 0.12 0"/>
<feBlend mode="overlay" in2="BackgroundImageFix" result="effect1_dropShadow_3998_108628"/>
<feBlend mode="normal" in="SourceGraphic" in2="effect1_dropShadow_3998_108628" result="shape"/>
</filter>
<filter id="filter8_i_3998_108628" x="54.6406" y="54.2031" width="16.3672" height="6.99805" filterUnits="userSpaceOnUse" color-interpolation-filters="sRGB">
<feFlood flood-opacity="0" result="BackgroundImageFix"/>
<feBlend mode="normal" in="SourceGraphic" in2="BackgroundImageFix" result="shape"/>
<feColorMatrix in="SourceAlpha" type="matrix" values="0 0 0 0 0 0 0 0 0 0 0 0 0 0 0 0 0 0 127 0" result="hardAlpha"/>
<feOffset dy="-1"/>
<feComposite in2="hardAlpha" operator="arithmetic" k2="-1" k3="1"/>
<feColorMatrix type="matrix" values="0 0 0 0 1 0 0 0 0 0.870588 0 0 0 0 0.486275 0 0 0 0.6 0"/>
<feBlend mode="multiply" in2="shape" result="effect1_innerShadow_3998_108628"/>
</filter>
<clipPath id="clip0_3998_108628">
<rect width="72" height="72" fill="white"/>
</clipPath>
</defs>
</svg>
