<svg width="72" height="72" viewBox="0 0 72 72" fill="none" xmlns="http://www.w3.org/2000/svg">
<g id="&#235;&#179;&#132;&#236;&#160;&#149;&#236;&#154;&#176;&#236;&#178;&#180;&#234;&#181;&#173;&#236;&#151;&#176;&#234;&#184;&#136;&#236;&#161;&#176;&#237;&#154;&#140;&#236;&#139;&#160;&#236;&#178;&#173;_icon" clip-path="url(#clip0_3998_108668)">
<path id="Vector" d="M58 56.9944V63C58 64.1046 57.1046 65 56 65H16C14.8954 65 14 64.1046 14 63V25.9474C14 25.4237 14.2053 24.921 14.5719 24.5471L31.1811 7.60769C31.5573 7.22407 32.072 7.00792 32.6092 7.00792H56C57.1046 7.00792 58 7.88553 58 8.9901C58 9.88479 58 11.1785 58 13.0472V56.9944Z" fill="#F9FAFB"/>
<g id="Group 34042">
<path id="Rectangle 956901" d="M26.4188 34.1295C27.0806 33.6567 28 34.1298 28 34.9432V41.0568C28 41.8702 27.0806 42.3433 26.4188 41.8705L22.1392 38.8137C21.5809 38.4149 21.5809 37.5851 22.1392 37.1863L26.4188 34.1295Z" fill="#FC1F2D"/>
<path id="Rectangle 956902" d="M27.5361 31.6757C26.9481 31.0343 27.4031 30 28.2732 30H41C41.961 30 42.3688 31.2234 41.6 31.8L34.0582 37.4563C33.6468 37.7649 33.0685 37.7111 32.7211 37.3321L27.5361 31.6757Z" fill="#FC1F2D"/>
<path id="Rectangle 956902_2" d="M27.5361 44.3243C26.9481 44.9657 27.4031 46 28.2732 46H41C41.961 46 42.3688 44.7766 41.6 44.2L34.0582 38.5437C33.6468 38.2351 33.0685 38.2889 32.7211 38.6679L27.5361 44.3243Z" fill="#FC1F2D"/>
<path id="Rectangle 956903" d="M39 36C39 34.8954 39.8954 34 41 34H49.7632C50.2973 34 50.4594 34.725 49.9761 34.9524L43.8845 37.819C43.7314 37.8911 43.7314 38.1089 43.8845 38.181L49.9761 41.0476C50.4594 41.275 50.2973 42 49.7632 42H41C39.8954 42 39 41.1046 39 40V36Z" fill="#FC1F2D"/>
</g>
<path id="Vector_2" d="M32 23C32 24.1046 31.1046 25 30 25H14L32 7V23Z" fill="#E5E5E5"/>
<g id="coin">
<g id="coin 2" filter="url(#filter0_d_3998_108668)">
<g id="coin 7">
<path id="Vector_3" d="M60.088 59.7935C64.6066 59.7935 68.2697 58.3476 68.2697 56.564V53.9805C68.2697 55.764 64.6066 57.2099 60.088 57.2099C55.5693 57.2099 51.9062 55.764 51.9062 53.9805V56.564C51.9062 58.3476 55.5693 59.7935 60.088 59.7935Z" fill="#FFB200"/>
<g id="Ellipse 455" filter="url(#filter1_i_3998_108668)">
<ellipse cx="60.088" cy="53.986" rx="8.18171" ry="3.23016" fill="#FFDF7F"/>
</g>
</g>
<g id="coin 6">
<path id="Vector_4" d="M60.088 55.9087C64.6066 55.9087 68.2697 54.4628 68.2697 52.6793V50.0957C68.2697 51.8793 64.6066 53.3251 60.088 53.3251C55.5693 53.3251 51.9062 51.8793 51.9062 50.0957V52.6793C51.9062 54.4628 55.5693 55.9087 60.088 55.9087Z" fill="#FFB200"/>
<g id="Ellipse 455_2" filter="url(#filter2_i_3998_108668)">
<ellipse cx="60.088" cy="50.1013" rx="8.18171" ry="3.23016" fill="#FFDF7F"/>
</g>
</g>
<g id="coin 3">
<path id="Vector_5" d="M60.088 52.0376C64.6066 52.0376 68.2697 50.5917 68.2697 48.8082V46.2246C68.2697 48.0082 64.6066 49.4541 60.088 49.4541C55.5693 49.4541 51.9062 48.0082 51.9062 46.2246V48.8082C51.9062 50.5917 55.5693 52.0376 60.088 52.0376Z" fill="#FFB200"/>
<g id="Ellipse 455_3" filter="url(#filter3_i_3998_108668)">
<ellipse cx="60.088" cy="46.2302" rx="8.18171" ry="3.23016" fill="#FFDF7F"/>
</g>
</g>
</g>
<g id="coin 3_2" filter="url(#filter4_d_3998_108668)">
<g id="coin 7_2">
<path id="Vector_6" d="M49.1817 61.1975C53.7003 61.1975 57.3634 59.7876 57.3634 58.0485V55.5293C57.3634 57.2684 53.7003 58.6783 49.1817 58.6783C44.6631 58.6783 41 57.2684 41 55.5293V58.0485C41 59.7876 44.6631 61.1975 49.1817 61.1975Z" fill="#FFB200"/>
<g id="Ellipse 455_4" filter="url(#filter5_i_3998_108668)">
<ellipse cx="49.1817" cy="55.5259" rx="8.18171" ry="3.14898" fill="#FFDF7F"/>
</g>
</g>
<g id="coin 6_2">
<path id="Vector_7" d="M49.1817 57.4123C53.7003 57.4123 57.3634 56.0025 57.3634 54.2633V51.7441C57.3634 53.4833 53.7003 54.8931 49.1817 54.8931C44.6631 54.8931 41 53.4833 41 51.7441V54.2633C41 56.0025 44.6631 57.4123 49.1817 57.4123Z" fill="#FFB200"/>
<g id="Ellipse 455_5" filter="url(#filter6_i_3998_108668)">
<ellipse cx="49.1817" cy="51.7408" rx="8.18171" ry="3.14898" fill="#FFDF7F"/>
</g>
</g>
</g>
<g id="coin 4" filter="url(#filter7_d_3998_108668)">
<g id="coin 7_3">
<path id="Vector_8" d="M62.8223 63.9977C67.341 63.9977 71.004 62.4311 71.004 60.4986V57.6992C71.004 59.6318 67.341 61.1984 62.8223 61.1984C58.3037 61.1984 54.6406 59.6318 54.6406 57.6992V60.4986C54.6406 62.4311 58.3037 63.9977 62.8223 63.9977Z" fill="#FFB200"/>
<g id="Ellipse 455_6" filter="url(#filter8_i_3998_108668)">
<ellipse cx="62.8223" cy="57.7023" rx="8.18171" ry="3.49918" fill="#FFDF7F"/>
</g>
</g>
</g>
</g>
</g>
<defs>
<filter id="filter0_d_3998_108668" x="46.9062" y="37" width="24.3672" height="24.793" filterUnits="userSpaceOnUse" color-interpolation-filters="sRGB">
<feFlood flood-opacity="0" result="BackgroundImageFix"/>
<feColorMatrix in="SourceAlpha" type="matrix" values="0 0 0 0 0 0 0 0 0 0 0 0 0 0 0 0 0 0 127 0" result="hardAlpha"/>
<feOffset dx="-1" dy="-2"/>
<feGaussianBlur stdDeviation="2"/>
<feComposite in2="hardAlpha" operator="out"/>
<feColorMatrix type="matrix" values="0 0 0 0 0 0 0 0 0 0 0 0 0 0 0 0 0 0 0.12 0"/>
<feBlend mode="overlay" in2="BackgroundImageFix" result="effect1_dropShadow_3998_108668"/>
<feBlend mode="normal" in="SourceGraphic" in2="effect1_dropShadow_3998_108668" result="shape"/>
</filter>
<filter id="filter1_i_3998_108668" x="51.9062" y="50.7559" width="16.3672" height="6.46094" filterUnits="userSpaceOnUse" color-interpolation-filters="sRGB">
<feFlood flood-opacity="0" result="BackgroundImageFix"/>
<feBlend mode="normal" in="SourceGraphic" in2="BackgroundImageFix" result="shape"/>
<feColorMatrix in="SourceAlpha" type="matrix" values="0 0 0 0 0 0 0 0 0 0 0 0 0 0 0 0 0 0 127 0" result="hardAlpha"/>
<feOffset dy="-1"/>
<feComposite in2="hardAlpha" operator="arithmetic" k2="-1" k3="1"/>
<feColorMatrix type="matrix" values="0 0 0 0 1 0 0 0 0 0.870588 0 0 0 0 0.486275 0 0 0 0.6 0"/>
<feBlend mode="multiply" in2="shape" result="effect1_innerShadow_3998_108668"/>
</filter>
<filter id="filter2_i_3998_108668" x="51.9062" y="46.8711" width="16.3672" height="6.46094" filterUnits="userSpaceOnUse" color-interpolation-filters="sRGB">
<feFlood flood-opacity="0" result="BackgroundImageFix"/>
<feBlend mode="normal" in="SourceGraphic" in2="BackgroundImageFix" result="shape"/>
<feColorMatrix in="SourceAlpha" type="matrix" values="0 0 0 0 0 0 0 0 0 0 0 0 0 0 0 0 0 0 127 0" result="hardAlpha"/>
<feOffset dy="-1"/>
<feComposite in2="hardAlpha" operator="arithmetic" k2="-1" k3="1"/>
<feColorMatrix type="matrix" values="0 0 0 0 1 0 0 0 0 0.870588 0 0 0 0 0.486275 0 0 0 0.6 0"/>
<feBlend mode="multiply" in2="shape" result="effect1_innerShadow_3998_108668"/>
</filter>
<filter id="filter3_i_3998_108668" x="51.9062" y="43" width="16.3672" height="6.46094" filterUnits="userSpaceOnUse" color-interpolation-filters="sRGB">
<feFlood flood-opacity="0" result="BackgroundImageFix"/>
<feBlend mode="normal" in="SourceGraphic" in2="BackgroundImageFix" result="shape"/>
<feColorMatrix in="SourceAlpha" type="matrix" values="0 0 0 0 0 0 0 0 0 0 0 0 0 0 0 0 0 0 127 0" result="hardAlpha"/>
<feOffset dy="-1"/>
<feComposite in2="hardAlpha" operator="arithmetic" k2="-1" k3="1"/>
<feColorMatrix type="matrix" values="0 0 0 0 1 0 0 0 0 0.870588 0 0 0 0 0.486275 0 0 0 0.6 0"/>
<feBlend mode="multiply" in2="shape" result="effect1_innerShadow_3998_108668"/>
</filter>
<filter id="filter4_d_3998_108668" x="36" y="42.5918" width="24.3672" height="20.6055" filterUnits="userSpaceOnUse" color-interpolation-filters="sRGB">
<feFlood flood-opacity="0" result="BackgroundImageFix"/>
<feColorMatrix in="SourceAlpha" type="matrix" values="0 0 0 0 0 0 0 0 0 0 0 0 0 0 0 0 0 0 127 0" result="hardAlpha"/>
<feOffset dx="-1" dy="-2"/>
<feGaussianBlur stdDeviation="2"/>
<feComposite in2="hardAlpha" operator="out"/>
<feColorMatrix type="matrix" values="0 0 0 0 0 0 0 0 0 0 0 0 0 0 0 0 0 0 0.12 0"/>
<feBlend mode="overlay" in2="BackgroundImageFix" result="effect1_dropShadow_3998_108668"/>
<feBlend mode="normal" in="SourceGraphic" in2="effect1_dropShadow_3998_108668" result="shape"/>
</filter>
<filter id="filter5_i_3998_108668" x="41" y="52.377" width="16.3672" height="6.29883" filterUnits="userSpaceOnUse" color-interpolation-filters="sRGB">
<feFlood flood-opacity="0" result="BackgroundImageFix"/>
<feBlend mode="normal" in="SourceGraphic" in2="BackgroundImageFix" result="shape"/>
<feColorMatrix in="SourceAlpha" type="matrix" values="0 0 0 0 0 0 0 0 0 0 0 0 0 0 0 0 0 0 127 0" result="hardAlpha"/>
<feOffset dy="-1"/>
<feComposite in2="hardAlpha" operator="arithmetic" k2="-1" k3="1"/>
<feColorMatrix type="matrix" values="0 0 0 0 1 0 0 0 0 0.870588 0 0 0 0 0.486275 0 0 0 0.6 0"/>
<feBlend mode="multiply" in2="shape" result="effect1_innerShadow_3998_108668"/>
</filter>
<filter id="filter6_i_3998_108668" x="41" y="48.5918" width="16.3672" height="6.29883" filterUnits="userSpaceOnUse" color-interpolation-filters="sRGB">
<feFlood flood-opacity="0" result="BackgroundImageFix"/>
<feBlend mode="normal" in="SourceGraphic" in2="BackgroundImageFix" result="shape"/>
<feColorMatrix in="SourceAlpha" type="matrix" values="0 0 0 0 0 0 0 0 0 0 0 0 0 0 0 0 0 0 127 0" result="hardAlpha"/>
<feOffset dy="-1"/>
<feComposite in2="hardAlpha" operator="arithmetic" k2="-1" k3="1"/>
<feColorMatrix type="matrix" values="0 0 0 0 1 0 0 0 0 0.870588 0 0 0 0 0.486275 0 0 0 0.6 0"/>
<feBlend mode="multiply" in2="shape" result="effect1_innerShadow_3998_108668"/>
</filter>
<filter id="filter7_d_3998_108668" x="49.6406" y="48.2031" width="24.3672" height="17.7949" filterUnits="userSpaceOnUse" color-interpolation-filters="sRGB">
<feFlood flood-opacity="0" result="BackgroundImageFix"/>
<feColorMatrix in="SourceAlpha" type="matrix" values="0 0 0 0 0 0 0 0 0 0 0 0 0 0 0 0 0 0 127 0" result="hardAlpha"/>
<feOffset dx="-1" dy="-2"/>
<feGaussianBlur stdDeviation="2"/>
<feComposite in2="hardAlpha" operator="out"/>
<feColorMatrix type="matrix" values="0 0 0 0 0 0 0 0 0 0 0 0 0 0 0 0 0 0 0.12 0"/>
<feBlend mode="overlay" in2="BackgroundImageFix" result="effect1_dropShadow_3998_108668"/>
<feBlend mode="normal" in="SourceGraphic" in2="effect1_dropShadow_3998_108668" result="shape"/>
</filter>
<filter id="filter8_i_3998_108668" x="54.6406" y="54.2031" width="16.3672" height="6.99805" filterUnits="userSpaceOnUse" color-interpolation-filters="sRGB">
<feFlood flood-opacity="0" result="BackgroundImageFix"/>
<feBlend mode="normal" in="SourceGraphic" in2="BackgroundImageFix" result="shape"/>
<feColorMatrix in="SourceAlpha" type="matrix" values="0 0 0 0 0 0 0 0 0 0 0 0 0 0 0 0 0 0 127 0" result="hardAlpha"/>
<feOffset dy="-1"/>
<feComposite in2="hardAlpha" operator="arithmetic" k2="-1" k3="1"/>
<feColorMatrix type="matrix" values="0 0 0 0 1 0 0 0 0 0.870588 0 0 0 0 0.486275 0 0 0 0.6 0"/>
<feBlend mode="multiply" in2="shape" result="effect1_innerShadow_3998_108668"/>
</filter>
<clipPath id="clip0_3998_108668">
<rect width="72" height="72" fill="white"/>
</clipPath>
</defs>
</svg>
