<svg width="80" height="80" viewBox="0 0 80 80" fill="none" xmlns="http://www.w3.org/2000/svg">
<g filter="url(#filter0_d_3869_106236)">
<path d="M61.6641 68.5875C65.5301 68.5875 68.6641 67.2152 68.6641 65.5224V63.0703C68.6641 64.7631 65.5301 66.1354 61.6641 66.1354C57.7981 66.1354 54.6641 64.7631 54.6641 63.0703V65.5224C54.6641 67.2152 57.7981 68.5875 61.6641 68.5875Z" fill="#FFB200"/>
<g filter="url(#filter1_i_3869_106236)">
<ellipse cx="61.6641" cy="63.0736" rx="7" ry="3.06581" fill="#FFDF7F"/>
</g>
<path d="M61.6641 64.9391C65.5301 64.9391 68.6641 63.5668 68.6641 61.874V59.4219C68.6641 61.1147 65.5301 62.487 61.6641 62.487C57.7981 62.487 54.6641 61.1147 54.6641 59.4219V61.874C54.6641 63.5668 57.7981 64.9391 61.6641 64.9391Z" fill="#FFB200"/>
<g filter="url(#filter2_i_3869_106236)">
<ellipse cx="61.6641" cy="59.4252" rx="7" ry="3.06581" fill="#FFDF7F"/>
</g>
<path d="M61.6641 61.2438C65.5301 61.2438 68.6641 59.8715 68.6641 58.1787V55.7266C68.6641 57.4194 65.5301 58.7917 61.6641 58.7917C57.7981 58.7917 54.6641 57.4194 54.6641 55.7266V58.1787C54.6641 59.8715 57.7981 61.2438 61.6641 61.2438Z" fill="#FFB200"/>
<g filter="url(#filter3_i_3869_106236)">
<ellipse cx="61.6641" cy="55.7299" rx="7" ry="3.06581" fill="#FFDF7F"/>
</g>
</g>
<g filter="url(#filter4_d_3869_106236)">
<path d="M41.6562 68.9782C45.5222 68.9782 48.6562 67.6059 48.6562 65.913V63.4609C48.6562 65.1538 45.5222 66.5261 41.6562 66.5261C37.7903 66.5261 34.6562 65.1538 34.6562 63.4609V65.913C34.6562 67.6059 37.7903 68.9782 41.6562 68.9782Z" fill="#FFB200"/>
<g filter="url(#filter5_i_3869_106236)">
<ellipse cx="41.6562" cy="63.4643" rx="7" ry="3.06581" fill="#FFDF7F"/>
</g>
<path d="M41.6562 65.3297C45.5222 65.3297 48.6562 63.9574 48.6562 62.2646V59.8125C48.6562 61.5053 45.5222 62.8776 41.6562 62.8776C37.7903 62.8776 34.6562 61.5053 34.6562 59.8125V62.2646C34.6562 63.9574 37.7903 65.3297 41.6562 65.3297Z" fill="#FFB200"/>
<g filter="url(#filter6_i_3869_106236)">
<ellipse cx="41.6562" cy="59.8158" rx="7" ry="3.06581" fill="#FFDF7F"/>
</g>
<path d="M41.6562 61.6344C45.5222 61.6344 48.6562 60.2621 48.6562 58.5693V56.1172C48.6562 57.81 45.5222 59.1823 41.6562 59.1823C37.7903 59.1823 34.6562 57.81 34.6562 56.1172V58.5693C34.6562 60.2621 37.7903 61.6344 41.6562 61.6344Z" fill="#FFB200"/>
<g filter="url(#filter7_i_3869_106236)">
<ellipse cx="41.6562" cy="56.1205" rx="7" ry="3.06581" fill="#FFDF7F"/>
</g>
</g>
<g filter="url(#filter8_d_3869_106236)">
<path d="M41.6562 58.2829C45.5222 58.2829 48.6562 56.9106 48.6562 55.2177V52.7656C48.6562 54.4584 45.5222 55.8308 41.6562 55.8308C37.7903 55.8308 34.6562 54.4584 34.6562 52.7656V55.2177C34.6562 56.9106 37.7903 58.2829 41.6562 58.2829Z" fill="#FFB200"/>
<g filter="url(#filter9_i_3869_106236)">
<ellipse cx="41.6562" cy="52.7689" rx="7" ry="3.06581" fill="#FFDF7F"/>
</g>
<path d="M41.6562 54.6422C45.5222 54.6422 48.6562 53.2699 48.6562 51.5771V49.125C48.6562 50.8178 45.5222 52.1901 41.6562 52.1901C37.7903 52.1901 34.6562 50.8178 34.6562 49.125V51.5771C34.6562 53.2699 37.7903 54.6422 41.6562 54.6422Z" fill="#FFB200"/>
<g filter="url(#filter10_i_3869_106236)">
<ellipse cx="41.6562" cy="49.1283" rx="7" ry="3.06581" fill="#FFDF7F"/>
</g>
<path d="M41.6562 50.9469C45.5222 50.9469 48.6562 49.5746 48.6562 47.8818V45.4297C48.6562 47.1225 45.5222 48.4948 41.6562 48.4948C37.7903 48.4948 34.6562 47.1225 34.6562 45.4297V47.8818C34.6562 49.5746 37.7903 50.9469 41.6562 50.9469Z" fill="#FFB200"/>
<g filter="url(#filter11_i_3869_106236)">
<ellipse cx="41.6562" cy="45.433" rx="7" ry="3.06581" fill="#FFDF7F"/>
</g>
</g>
<g filter="url(#filter12_d_3869_106236)">
<path d="M20.2969 69.275C24.1629 69.275 27.2969 67.9027 27.2969 66.2099V63.7578C27.2969 65.4506 24.1629 66.8229 20.2969 66.8229C16.4309 66.8229 13.2969 65.4506 13.2969 63.7578V66.2099C13.2969 67.9027 16.4309 69.275 20.2969 69.275Z" fill="#FFB200"/>
<g filter="url(#filter13_i_3869_106236)">
<ellipse cx="20.2969" cy="63.7611" rx="7" ry="3.06581" fill="#FFDF7F"/>
</g>
<path d="M20.2969 65.6266C24.1629 65.6266 27.2969 64.2543 27.2969 62.5615V60.1094C27.2969 61.8022 24.1629 63.1745 20.2969 63.1745C16.4309 63.1745 13.2969 61.8022 13.2969 60.1094V62.5615C13.2969 64.2543 16.4309 65.6266 20.2969 65.6266Z" fill="#FFB200"/>
<g filter="url(#filter14_i_3869_106236)">
<ellipse cx="20.2969" cy="60.1127" rx="7" ry="3.06581" fill="#FFDF7F"/>
</g>
<path d="M20.2969 61.9313C24.1629 61.9313 27.2969 60.559 27.2969 58.8662V56.4141C27.2969 58.1069 24.1629 59.4792 20.2969 59.4792C16.4309 59.4792 13.2969 58.1069 13.2969 56.4141V58.8662C13.2969 60.559 16.4309 61.9313 20.2969 61.9313Z" fill="#FFB200"/>
<g filter="url(#filter15_i_3869_106236)">
<ellipse cx="20.2969" cy="56.4174" rx="7" ry="3.06581" fill="#FFDF7F"/>
</g>
</g>
<g filter="url(#filter16_d_3869_106236)">
<path d="M20.2969 58.0563C24.1629 58.0563 27.2969 56.684 27.2969 54.9912V52.5391C27.2969 54.2319 24.1629 55.6042 20.2969 55.6042C16.4309 55.6042 13.2969 54.2319 13.2969 52.5391V54.9912C13.2969 56.684 16.4309 58.0563 20.2969 58.0563Z" fill="#FFB200"/>
<g filter="url(#filter17_i_3869_106236)">
<ellipse cx="20.2969" cy="52.5424" rx="7" ry="3.06581" fill="#FFDF7F"/>
</g>
<path d="M20.2969 54.4157C24.1629 54.4157 27.2969 53.0434 27.2969 51.3505V48.8984C27.2969 50.5913 24.1629 51.9636 20.2969 51.9636C16.4309 51.9636 13.2969 50.5913 13.2969 48.8984V51.3505C13.2969 53.0434 16.4309 54.4157 20.2969 54.4157Z" fill="#FFB200"/>
<g filter="url(#filter18_i_3869_106236)">
<ellipse cx="20.2969" cy="48.9018" rx="7" ry="3.06581" fill="#FFDF7F"/>
</g>
<path d="M20.2969 50.7204C24.1629 50.7204 27.2969 49.3481 27.2969 47.6552V45.2031C27.2969 46.8959 24.1629 48.2683 20.2969 48.2683C16.4309 48.2683 13.2969 46.8959 13.2969 45.2031V47.6552C13.2969 49.3481 16.4309 50.7204 20.2969 50.7204Z" fill="#FFB200"/>
<g filter="url(#filter19_i_3869_106236)">
<ellipse cx="20.2969" cy="45.2064" rx="7" ry="3.06581" fill="#FFDF7F"/>
</g>
</g>
<g filter="url(#filter20_d_3869_106236)">
<path d="M20.2969 46.8375C24.1629 46.8375 27.2969 45.4652 27.2969 43.7724V41.3203C27.2969 43.0131 24.1629 44.3854 20.2969 44.3854C16.4309 44.3854 13.2969 43.0131 13.2969 41.3203V43.7724C13.2969 45.4652 16.4309 46.8375 20.2969 46.8375Z" fill="#FFB200"/>
<g filter="url(#filter21_i_3869_106236)">
<ellipse cx="20.2969" cy="41.3236" rx="7" ry="3.06581" fill="#FFDF7F"/>
</g>
<path d="M20.2969 43.1891C24.1629 43.1891 27.2969 41.8168 27.2969 40.124V37.6719C27.2969 39.3647 24.1629 40.737 20.2969 40.737C16.4309 40.737 13.2969 39.3647 13.2969 37.6719V40.124C13.2969 41.8168 16.4309 43.1891 20.2969 43.1891Z" fill="#FFB200"/>
<g filter="url(#filter22_i_3869_106236)">
<ellipse cx="20.2969" cy="37.6752" rx="7" ry="3.06581" fill="#FFDF7F"/>
</g>
<path d="M20.2969 39.4938C24.1629 39.4938 27.2969 38.1215 27.2969 36.4287V33.9766C27.2969 35.6694 24.1629 37.0417 20.2969 37.0417C16.4309 37.0417 13.2969 35.6694 13.2969 33.9766V36.4287C13.2969 38.1215 16.4309 39.4938 20.2969 39.4938Z" fill="#FFB200"/>
<g filter="url(#filter23_i_3869_106236)">
<ellipse cx="20.2969" cy="33.9799" rx="7" ry="3.06581" fill="#FFDF7F"/>
</g>
</g>
<path d="M2.99219 7.83228L7.10361 3.125L11.215 7.83228" stroke="white" stroke-width="3" stroke-linecap="round" stroke-linejoin="round"/>
<path d="M72.8906 67.4609L77.0021 72.1682L72.8906 76.8755" stroke="white" stroke-width="3" stroke-linecap="round" stroke-linejoin="round"/>
<path d="M7.10938 3.125V72.1652H13.9618H20.8141H29.037H35.8894H44.1122H50.9646H59.1874H66.0398H77.0036" stroke="white" stroke-width="3" stroke-linecap="round" stroke-linejoin="round"/>
<g clip-path="url(#clip0_3869_106236)">
<path d="M65.5391 37.8281L61.8404 41.5887L58.1418 37.8281" stroke="#FF8908" stroke-width="3" stroke-linecap="round" stroke-linejoin="round"/>
<path d="M61.8438 31L61.8437 41.5892" stroke="#FF8908" stroke-width="3" stroke-linecap="round" stroke-linejoin="round"/>
</g>
<path d="M37.0392 16.677C34.0401 16.677 32 14.4543 32 10.7852C32 7.11617 34.0401 5 37.0392 5C40.0232 5 42.0632 7.1314 42.0632 10.7852C42.0632 14.4543 40.0232 16.677 37.0392 16.677ZM37.0392 14.7283C38.7139 14.7283 39.7796 13.1907 39.7796 10.7852C39.7796 8.37979 38.7139 6.93348 37.0392 6.93348C35.3493 6.93348 34.2989 8.37979 34.2989 10.7852C34.2989 13.1907 35.3493 14.7283 37.0392 14.7283Z" fill="white"/>
<path d="M43.5176 16.4639V5.19792H50.4294V7.0705H45.7708V9.67385H49.7139V11.5769H45.7708V14.5761H50.5969V16.4639H43.5176Z" fill="white"/>
<path d="M56.7054 16.677C53.8585 16.677 51.5596 14.637 51.5596 10.8766C51.5596 7.16185 53.9346 5 56.7968 5C58.2278 5 59.3697 5.66987 60.1004 6.43108L58.9129 7.87739C58.3344 7.31409 57.695 6.93348 56.8272 6.93348C55.1373 6.93348 53.8585 8.39501 53.8585 10.8004C53.8585 13.2668 55.0003 14.7283 56.7968 14.7283C57.7559 14.7283 58.5171 14.2716 59.1108 13.6169L60.2983 15.0328C59.3697 16.1137 58.1669 16.677 56.7054 16.677Z" fill="white"/>
<path d="M61.3526 16.4639V5.19792H64.4431C67.8838 5.19792 70 6.97915 70 10.7852C70 14.5761 67.8838 16.4639 64.5649 16.4639H61.3526ZM63.6058 14.6522H64.2909C66.4071 14.6522 67.7011 13.5256 67.7011 10.7852C67.7011 8.04485 66.4071 6.99438 64.2909 6.99438H63.6058V14.6522Z" fill="white"/>
<defs>
<filter id="filter0_d_3869_106236" x="49.6641" y="46.6641" width="22" height="23.9219" filterUnits="userSpaceOnUse" color-interpolation-filters="sRGB">
<feFlood flood-opacity="0" result="BackgroundImageFix"/>
<feColorMatrix in="SourceAlpha" type="matrix" values="0 0 0 0 0 0 0 0 0 0 0 0 0 0 0 0 0 0 127 0" result="hardAlpha"/>
<feOffset dx="-1" dy="-2"/>
<feGaussianBlur stdDeviation="2"/>
<feComposite in2="hardAlpha" operator="out"/>
<feColorMatrix type="matrix" values="0 0 0 0 0 0 0 0 0 0 0 0 0 0 0 0 0 0 0.12 0"/>
<feBlend mode="overlay" in2="BackgroundImageFix" result="effect1_dropShadow_3869_106236"/>
<feBlend mode="normal" in="SourceGraphic" in2="effect1_dropShadow_3869_106236" result="shape"/>
</filter>
<filter id="filter1_i_3869_106236" x="54.6641" y="60.0078" width="14" height="6.13281" filterUnits="userSpaceOnUse" color-interpolation-filters="sRGB">
<feFlood flood-opacity="0" result="BackgroundImageFix"/>
<feBlend mode="normal" in="SourceGraphic" in2="BackgroundImageFix" result="shape"/>
<feColorMatrix in="SourceAlpha" type="matrix" values="0 0 0 0 0 0 0 0 0 0 0 0 0 0 0 0 0 0 127 0" result="hardAlpha"/>
<feOffset dy="-1"/>
<feComposite in2="hardAlpha" operator="arithmetic" k2="-1" k3="1"/>
<feColorMatrix type="matrix" values="0 0 0 0 1 0 0 0 0 0.870588 0 0 0 0 0.486275 0 0 0 0.6 0"/>
<feBlend mode="multiply" in2="shape" result="effect1_innerShadow_3869_106236"/>
</filter>
<filter id="filter2_i_3869_106236" x="54.6641" y="56.3594" width="14" height="6.13281" filterUnits="userSpaceOnUse" color-interpolation-filters="sRGB">
<feFlood flood-opacity="0" result="BackgroundImageFix"/>
<feBlend mode="normal" in="SourceGraphic" in2="BackgroundImageFix" result="shape"/>
<feColorMatrix in="SourceAlpha" type="matrix" values="0 0 0 0 0 0 0 0 0 0 0 0 0 0 0 0 0 0 127 0" result="hardAlpha"/>
<feOffset dy="-1"/>
<feComposite in2="hardAlpha" operator="arithmetic" k2="-1" k3="1"/>
<feColorMatrix type="matrix" values="0 0 0 0 1 0 0 0 0 0.870588 0 0 0 0 0.486275 0 0 0 0.6 0"/>
<feBlend mode="multiply" in2="shape" result="effect1_innerShadow_3869_106236"/>
</filter>
<filter id="filter3_i_3869_106236" x="54.6641" y="52.6641" width="14" height="6.13281" filterUnits="userSpaceOnUse" color-interpolation-filters="sRGB">
<feFlood flood-opacity="0" result="BackgroundImageFix"/>
<feBlend mode="normal" in="SourceGraphic" in2="BackgroundImageFix" result="shape"/>
<feColorMatrix in="SourceAlpha" type="matrix" values="0 0 0 0 0 0 0 0 0 0 0 0 0 0 0 0 0 0 127 0" result="hardAlpha"/>
<feOffset dy="-1"/>
<feComposite in2="hardAlpha" operator="arithmetic" k2="-1" k3="1"/>
<feColorMatrix type="matrix" values="0 0 0 0 1 0 0 0 0 0.870588 0 0 0 0 0.486275 0 0 0 0.6 0"/>
<feBlend mode="multiply" in2="shape" result="effect1_innerShadow_3869_106236"/>
</filter>
<filter id="filter4_d_3869_106236" x="29.6562" y="47.0547" width="22" height="23.9219" filterUnits="userSpaceOnUse" color-interpolation-filters="sRGB">
<feFlood flood-opacity="0" result="BackgroundImageFix"/>
<feColorMatrix in="SourceAlpha" type="matrix" values="0 0 0 0 0 0 0 0 0 0 0 0 0 0 0 0 0 0 127 0" result="hardAlpha"/>
<feOffset dx="-1" dy="-2"/>
<feGaussianBlur stdDeviation="2"/>
<feComposite in2="hardAlpha" operator="out"/>
<feColorMatrix type="matrix" values="0 0 0 0 0 0 0 0 0 0 0 0 0 0 0 0 0 0 0.12 0"/>
<feBlend mode="overlay" in2="BackgroundImageFix" result="effect1_dropShadow_3869_106236"/>
<feBlend mode="normal" in="SourceGraphic" in2="effect1_dropShadow_3869_106236" result="shape"/>
</filter>
<filter id="filter5_i_3869_106236" x="34.6562" y="60.3984" width="14" height="6.13281" filterUnits="userSpaceOnUse" color-interpolation-filters="sRGB">
<feFlood flood-opacity="0" result="BackgroundImageFix"/>
<feBlend mode="normal" in="SourceGraphic" in2="BackgroundImageFix" result="shape"/>
<feColorMatrix in="SourceAlpha" type="matrix" values="0 0 0 0 0 0 0 0 0 0 0 0 0 0 0 0 0 0 127 0" result="hardAlpha"/>
<feOffset dy="-1"/>
<feComposite in2="hardAlpha" operator="arithmetic" k2="-1" k3="1"/>
<feColorMatrix type="matrix" values="0 0 0 0 1 0 0 0 0 0.870588 0 0 0 0 0.486275 0 0 0 0.6 0"/>
<feBlend mode="multiply" in2="shape" result="effect1_innerShadow_3869_106236"/>
</filter>
<filter id="filter6_i_3869_106236" x="34.6562" y="56.75" width="14" height="6.13281" filterUnits="userSpaceOnUse" color-interpolation-filters="sRGB">
<feFlood flood-opacity="0" result="BackgroundImageFix"/>
<feBlend mode="normal" in="SourceGraphic" in2="BackgroundImageFix" result="shape"/>
<feColorMatrix in="SourceAlpha" type="matrix" values="0 0 0 0 0 0 0 0 0 0 0 0 0 0 0 0 0 0 127 0" result="hardAlpha"/>
<feOffset dy="-1"/>
<feComposite in2="hardAlpha" operator="arithmetic" k2="-1" k3="1"/>
<feColorMatrix type="matrix" values="0 0 0 0 1 0 0 0 0 0.870588 0 0 0 0 0.486275 0 0 0 0.6 0"/>
<feBlend mode="multiply" in2="shape" result="effect1_innerShadow_3869_106236"/>
</filter>
<filter id="filter7_i_3869_106236" x="34.6562" y="53.0547" width="14" height="6.13281" filterUnits="userSpaceOnUse" color-interpolation-filters="sRGB">
<feFlood flood-opacity="0" result="BackgroundImageFix"/>
<feBlend mode="normal" in="SourceGraphic" in2="BackgroundImageFix" result="shape"/>
<feColorMatrix in="SourceAlpha" type="matrix" values="0 0 0 0 0 0 0 0 0 0 0 0 0 0 0 0 0 0 127 0" result="hardAlpha"/>
<feOffset dy="-1"/>
<feComposite in2="hardAlpha" operator="arithmetic" k2="-1" k3="1"/>
<feColorMatrix type="matrix" values="0 0 0 0 1 0 0 0 0 0.870588 0 0 0 0 0.486275 0 0 0 0.6 0"/>
<feBlend mode="multiply" in2="shape" result="effect1_innerShadow_3869_106236"/>
</filter>
<filter id="filter8_d_3869_106236" x="29.6562" y="36.3672" width="22" height="23.9141" filterUnits="userSpaceOnUse" color-interpolation-filters="sRGB">
<feFlood flood-opacity="0" result="BackgroundImageFix"/>
<feColorMatrix in="SourceAlpha" type="matrix" values="0 0 0 0 0 0 0 0 0 0 0 0 0 0 0 0 0 0 127 0" result="hardAlpha"/>
<feOffset dx="-1" dy="-2"/>
<feGaussianBlur stdDeviation="2"/>
<feComposite in2="hardAlpha" operator="out"/>
<feColorMatrix type="matrix" values="0 0 0 0 0 0 0 0 0 0 0 0 0 0 0 0 0 0 0.12 0"/>
<feBlend mode="overlay" in2="BackgroundImageFix" result="effect1_dropShadow_3869_106236"/>
<feBlend mode="normal" in="SourceGraphic" in2="effect1_dropShadow_3869_106236" result="shape"/>
</filter>
<filter id="filter9_i_3869_106236" x="34.6562" y="49.7031" width="14" height="6.13281" filterUnits="userSpaceOnUse" color-interpolation-filters="sRGB">
<feFlood flood-opacity="0" result="BackgroundImageFix"/>
<feBlend mode="normal" in="SourceGraphic" in2="BackgroundImageFix" result="shape"/>
<feColorMatrix in="SourceAlpha" type="matrix" values="0 0 0 0 0 0 0 0 0 0 0 0 0 0 0 0 0 0 127 0" result="hardAlpha"/>
<feOffset dy="-1"/>
<feComposite in2="hardAlpha" operator="arithmetic" k2="-1" k3="1"/>
<feColorMatrix type="matrix" values="0 0 0 0 1 0 0 0 0 0.870588 0 0 0 0 0.486275 0 0 0 0.6 0"/>
<feBlend mode="multiply" in2="shape" result="effect1_innerShadow_3869_106236"/>
</filter>
<filter id="filter10_i_3869_106236" x="34.6562" y="46.0625" width="14" height="6.13281" filterUnits="userSpaceOnUse" color-interpolation-filters="sRGB">
<feFlood flood-opacity="0" result="BackgroundImageFix"/>
<feBlend mode="normal" in="SourceGraphic" in2="BackgroundImageFix" result="shape"/>
<feColorMatrix in="SourceAlpha" type="matrix" values="0 0 0 0 0 0 0 0 0 0 0 0 0 0 0 0 0 0 127 0" result="hardAlpha"/>
<feOffset dy="-1"/>
<feComposite in2="hardAlpha" operator="arithmetic" k2="-1" k3="1"/>
<feColorMatrix type="matrix" values="0 0 0 0 1 0 0 0 0 0.870588 0 0 0 0 0.486275 0 0 0 0.6 0"/>
<feBlend mode="multiply" in2="shape" result="effect1_innerShadow_3869_106236"/>
</filter>
<filter id="filter11_i_3869_106236" x="34.6562" y="42.3672" width="14" height="6.13281" filterUnits="userSpaceOnUse" color-interpolation-filters="sRGB">
<feFlood flood-opacity="0" result="BackgroundImageFix"/>
<feBlend mode="normal" in="SourceGraphic" in2="BackgroundImageFix" result="shape"/>
<feColorMatrix in="SourceAlpha" type="matrix" values="0 0 0 0 0 0 0 0 0 0 0 0 0 0 0 0 0 0 127 0" result="hardAlpha"/>
<feOffset dy="-1"/>
<feComposite in2="hardAlpha" operator="arithmetic" k2="-1" k3="1"/>
<feColorMatrix type="matrix" values="0 0 0 0 1 0 0 0 0 0.870588 0 0 0 0 0.486275 0 0 0 0.6 0"/>
<feBlend mode="multiply" in2="shape" result="effect1_innerShadow_3869_106236"/>
</filter>
<filter id="filter12_d_3869_106236" x="8.29688" y="47.3516" width="22" height="23.9219" filterUnits="userSpaceOnUse" color-interpolation-filters="sRGB">
<feFlood flood-opacity="0" result="BackgroundImageFix"/>
<feColorMatrix in="SourceAlpha" type="matrix" values="0 0 0 0 0 0 0 0 0 0 0 0 0 0 0 0 0 0 127 0" result="hardAlpha"/>
<feOffset dx="-1" dy="-2"/>
<feGaussianBlur stdDeviation="2"/>
<feComposite in2="hardAlpha" operator="out"/>
<feColorMatrix type="matrix" values="0 0 0 0 0 0 0 0 0 0 0 0 0 0 0 0 0 0 0.12 0"/>
<feBlend mode="overlay" in2="BackgroundImageFix" result="effect1_dropShadow_3869_106236"/>
<feBlend mode="normal" in="SourceGraphic" in2="effect1_dropShadow_3869_106236" result="shape"/>
</filter>
<filter id="filter13_i_3869_106236" x="13.2969" y="60.6953" width="14" height="6.13281" filterUnits="userSpaceOnUse" color-interpolation-filters="sRGB">
<feFlood flood-opacity="0" result="BackgroundImageFix"/>
<feBlend mode="normal" in="SourceGraphic" in2="BackgroundImageFix" result="shape"/>
<feColorMatrix in="SourceAlpha" type="matrix" values="0 0 0 0 0 0 0 0 0 0 0 0 0 0 0 0 0 0 127 0" result="hardAlpha"/>
<feOffset dy="-1"/>
<feComposite in2="hardAlpha" operator="arithmetic" k2="-1" k3="1"/>
<feColorMatrix type="matrix" values="0 0 0 0 1 0 0 0 0 0.870588 0 0 0 0 0.486275 0 0 0 0.6 0"/>
<feBlend mode="multiply" in2="shape" result="effect1_innerShadow_3869_106236"/>
</filter>
<filter id="filter14_i_3869_106236" x="13.2969" y="57.0469" width="14" height="6.13281" filterUnits="userSpaceOnUse" color-interpolation-filters="sRGB">
<feFlood flood-opacity="0" result="BackgroundImageFix"/>
<feBlend mode="normal" in="SourceGraphic" in2="BackgroundImageFix" result="shape"/>
<feColorMatrix in="SourceAlpha" type="matrix" values="0 0 0 0 0 0 0 0 0 0 0 0 0 0 0 0 0 0 127 0" result="hardAlpha"/>
<feOffset dy="-1"/>
<feComposite in2="hardAlpha" operator="arithmetic" k2="-1" k3="1"/>
<feColorMatrix type="matrix" values="0 0 0 0 1 0 0 0 0 0.870588 0 0 0 0 0.486275 0 0 0 0.6 0"/>
<feBlend mode="multiply" in2="shape" result="effect1_innerShadow_3869_106236"/>
</filter>
<filter id="filter15_i_3869_106236" x="13.2969" y="53.3516" width="14" height="6.13281" filterUnits="userSpaceOnUse" color-interpolation-filters="sRGB">
<feFlood flood-opacity="0" result="BackgroundImageFix"/>
<feBlend mode="normal" in="SourceGraphic" in2="BackgroundImageFix" result="shape"/>
<feColorMatrix in="SourceAlpha" type="matrix" values="0 0 0 0 0 0 0 0 0 0 0 0 0 0 0 0 0 0 127 0" result="hardAlpha"/>
<feOffset dy="-1"/>
<feComposite in2="hardAlpha" operator="arithmetic" k2="-1" k3="1"/>
<feColorMatrix type="matrix" values="0 0 0 0 1 0 0 0 0 0.870588 0 0 0 0 0.486275 0 0 0 0.6 0"/>
<feBlend mode="multiply" in2="shape" result="effect1_innerShadow_3869_106236"/>
</filter>
<filter id="filter16_d_3869_106236" x="8.29688" y="36.1406" width="22" height="23.9141" filterUnits="userSpaceOnUse" color-interpolation-filters="sRGB">
<feFlood flood-opacity="0" result="BackgroundImageFix"/>
<feColorMatrix in="SourceAlpha" type="matrix" values="0 0 0 0 0 0 0 0 0 0 0 0 0 0 0 0 0 0 127 0" result="hardAlpha"/>
<feOffset dx="-1" dy="-2"/>
<feGaussianBlur stdDeviation="2"/>
<feComposite in2="hardAlpha" operator="out"/>
<feColorMatrix type="matrix" values="0 0 0 0 0 0 0 0 0 0 0 0 0 0 0 0 0 0 0.12 0"/>
<feBlend mode="overlay" in2="BackgroundImageFix" result="effect1_dropShadow_3869_106236"/>
<feBlend mode="normal" in="SourceGraphic" in2="effect1_dropShadow_3869_106236" result="shape"/>
</filter>
<filter id="filter17_i_3869_106236" x="13.2969" y="49.4766" width="14" height="6.13281" filterUnits="userSpaceOnUse" color-interpolation-filters="sRGB">
<feFlood flood-opacity="0" result="BackgroundImageFix"/>
<feBlend mode="normal" in="SourceGraphic" in2="BackgroundImageFix" result="shape"/>
<feColorMatrix in="SourceAlpha" type="matrix" values="0 0 0 0 0 0 0 0 0 0 0 0 0 0 0 0 0 0 127 0" result="hardAlpha"/>
<feOffset dy="-1"/>
<feComposite in2="hardAlpha" operator="arithmetic" k2="-1" k3="1"/>
<feColorMatrix type="matrix" values="0 0 0 0 1 0 0 0 0 0.870588 0 0 0 0 0.486275 0 0 0 0.6 0"/>
<feBlend mode="multiply" in2="shape" result="effect1_innerShadow_3869_106236"/>
</filter>
<filter id="filter18_i_3869_106236" x="13.2969" y="45.8359" width="14" height="6.13281" filterUnits="userSpaceOnUse" color-interpolation-filters="sRGB">
<feFlood flood-opacity="0" result="BackgroundImageFix"/>
<feBlend mode="normal" in="SourceGraphic" in2="BackgroundImageFix" result="shape"/>
<feColorMatrix in="SourceAlpha" type="matrix" values="0 0 0 0 0 0 0 0 0 0 0 0 0 0 0 0 0 0 127 0" result="hardAlpha"/>
<feOffset dy="-1"/>
<feComposite in2="hardAlpha" operator="arithmetic" k2="-1" k3="1"/>
<feColorMatrix type="matrix" values="0 0 0 0 1 0 0 0 0 0.870588 0 0 0 0 0.486275 0 0 0 0.6 0"/>
<feBlend mode="multiply" in2="shape" result="effect1_innerShadow_3869_106236"/>
</filter>
<filter id="filter19_i_3869_106236" x="13.2969" y="42.1406" width="14" height="6.13281" filterUnits="userSpaceOnUse" color-interpolation-filters="sRGB">
<feFlood flood-opacity="0" result="BackgroundImageFix"/>
<feBlend mode="normal" in="SourceGraphic" in2="BackgroundImageFix" result="shape"/>
<feColorMatrix in="SourceAlpha" type="matrix" values="0 0 0 0 0 0 0 0 0 0 0 0 0 0 0 0 0 0 127 0" result="hardAlpha"/>
<feOffset dy="-1"/>
<feComposite in2="hardAlpha" operator="arithmetic" k2="-1" k3="1"/>
<feColorMatrix type="matrix" values="0 0 0 0 1 0 0 0 0 0.870588 0 0 0 0 0.486275 0 0 0 0.6 0"/>
<feBlend mode="multiply" in2="shape" result="effect1_innerShadow_3869_106236"/>
</filter>
<filter id="filter20_d_3869_106236" x="8.29688" y="24.9141" width="22" height="23.9219" filterUnits="userSpaceOnUse" color-interpolation-filters="sRGB">
<feFlood flood-opacity="0" result="BackgroundImageFix"/>
<feColorMatrix in="SourceAlpha" type="matrix" values="0 0 0 0 0 0 0 0 0 0 0 0 0 0 0 0 0 0 127 0" result="hardAlpha"/>
<feOffset dx="-1" dy="-2"/>
<feGaussianBlur stdDeviation="2"/>
<feComposite in2="hardAlpha" operator="out"/>
<feColorMatrix type="matrix" values="0 0 0 0 0 0 0 0 0 0 0 0 0 0 0 0 0 0 0.12 0"/>
<feBlend mode="overlay" in2="BackgroundImageFix" result="effect1_dropShadow_3869_106236"/>
<feBlend mode="normal" in="SourceGraphic" in2="effect1_dropShadow_3869_106236" result="shape"/>
</filter>
<filter id="filter21_i_3869_106236" x="13.2969" y="38.2578" width="14" height="6.13281" filterUnits="userSpaceOnUse" color-interpolation-filters="sRGB">
<feFlood flood-opacity="0" result="BackgroundImageFix"/>
<feBlend mode="normal" in="SourceGraphic" in2="BackgroundImageFix" result="shape"/>
<feColorMatrix in="SourceAlpha" type="matrix" values="0 0 0 0 0 0 0 0 0 0 0 0 0 0 0 0 0 0 127 0" result="hardAlpha"/>
<feOffset dy="-1"/>
<feComposite in2="hardAlpha" operator="arithmetic" k2="-1" k3="1"/>
<feColorMatrix type="matrix" values="0 0 0 0 1 0 0 0 0 0.870588 0 0 0 0 0.486275 0 0 0 0.6 0"/>
<feBlend mode="multiply" in2="shape" result="effect1_innerShadow_3869_106236"/>
</filter>
<filter id="filter22_i_3869_106236" x="13.2969" y="34.6094" width="14" height="6.13281" filterUnits="userSpaceOnUse" color-interpolation-filters="sRGB">
<feFlood flood-opacity="0" result="BackgroundImageFix"/>
<feBlend mode="normal" in="SourceGraphic" in2="BackgroundImageFix" result="shape"/>
<feColorMatrix in="SourceAlpha" type="matrix" values="0 0 0 0 0 0 0 0 0 0 0 0 0 0 0 0 0 0 127 0" result="hardAlpha"/>
<feOffset dy="-1"/>
<feComposite in2="hardAlpha" operator="arithmetic" k2="-1" k3="1"/>
<feColorMatrix type="matrix" values="0 0 0 0 1 0 0 0 0 0.870588 0 0 0 0 0.486275 0 0 0 0.6 0"/>
<feBlend mode="multiply" in2="shape" result="effect1_innerShadow_3869_106236"/>
</filter>
<filter id="filter23_i_3869_106236" x="13.2969" y="30.9141" width="14" height="6.13281" filterUnits="userSpaceOnUse" color-interpolation-filters="sRGB">
<feFlood flood-opacity="0" result="BackgroundImageFix"/>
<feBlend mode="normal" in="SourceGraphic" in2="BackgroundImageFix" result="shape"/>
<feColorMatrix in="SourceAlpha" type="matrix" values="0 0 0 0 0 0 0 0 0 0 0 0 0 0 0 0 0 0 127 0" result="hardAlpha"/>
<feOffset dy="-1"/>
<feComposite in2="hardAlpha" operator="arithmetic" k2="-1" k3="1"/>
<feColorMatrix type="matrix" values="0 0 0 0 1 0 0 0 0 0.870588 0 0 0 0 0.486275 0 0 0 0.6 0"/>
<feBlend mode="multiply" in2="shape" result="effect1_innerShadow_3869_106236"/>
</filter>
<clipPath id="clip0_3869_106236">
<rect width="17.5947" height="15.4734" fill="white" transform="translate(66.9453 26) rotate(75)"/>
</clipPath>
</defs>
</svg>
