<svg width="80" height="80" viewBox="0 0 80 80" fill="none" xmlns="http://www.w3.org/2000/svg">
<path d="M31.4074 18.1385C32.2222 21.7095 30.373 25.0893 27.2695 25.701C26.1335 25.9206 24.9809 25.7458 23.9465 25.2357C23.3773 23.6911 22.1846 22.4677 20.6683 21.8559C20.4345 21.3741 20.2597 20.864 20.1298 20.3255C19.315 16.7544 21.1643 13.3747 24.2677 12.763C27.3853 12.1654 30.5761 14.5698 31.4074 18.1408V18.1385Z" fill="#FFE7C6"/>
<path d="M30.7143 13.7991L19.1232 16.9049C19.1232 16.9049 18.2078 10.9386 20.4681 10.3329C22.0908 9.8981 22.0475 10.7794 23.5833 10.3678C25.1191 9.95632 24.6409 9.21482 26.2636 8.78C28.5239 8.17437 30.7143 13.7991 30.7143 13.7991Z" fill="#1D8FFF"/>
<path d="M32.6971 12.2268L15.6554 16.7931C15.2935 16.8901 15.0927 17.3147 15.2071 17.7415L15.3106 18.1279C15.4249 18.5546 15.8111 18.822 16.1731 18.725L33.2148 14.1587C33.5768 14.0617 33.7775 13.6371 33.6632 13.2103L33.5596 12.8239C33.4453 12.3972 33.0591 12.1298 32.6971 12.2268Z" fill="#1D8FFF"/>
<path d="M21.9382 58.1147C22.5357 58.887 22.8569 59.8341 22.8569 60.8095V71.388C22.8569 72.772 21.7492 73.8797 20.3652 73.8797C17.7129 73.8797 15.5707 71.7376 15.5707 69.0853V63.6791L12.6562 58.9437V54.9357L16.1683 50.5781L21.9382 58.1123V58.1147Z" fill="#D6D6DB"/>
<path d="M12.6579 58.9385V62.2309C12.6579 63.1779 12.3957 64.0967 11.8998 64.9115L7.32493 72.474L7.29658 72.5024C6.84548 73.2605 6.059 73.74 5.18276 73.8132C4.30653 73.8864 3.4492 73.551 2.86583 72.8944L1.96126 71.8883C1.30467 71.1443 1 70.5326 1 69.2076C1 68.655 1.34955 68.1 1.68492 67.6205L5.37171 62.2143V54.9281L3.79874 51.7799C2.03683 48.2537 1.97779 44.1016 3.66648 40.5306L10.1804 26.688C11.6966 23.4688 14.93 21.4141 18.4868 21.4141C19.2591 21.4141 20.0031 21.5605 20.6715 21.851C22.1878 22.4627 23.3829 23.6861 23.9497 25.2307C24.1835 25.8566 24.3134 26.5274 24.3134 27.2406V37.4413L31.6563 44.7842C32.4286 45.5565 32.4286 46.8106 31.6563 47.5829C29.9818 49.2574 27.2987 49.3448 25.5227 47.786L20.2039 43.138L19.8685 44.0709C19.1552 46.0525 18.1491 47.9183 16.895 49.6235C16.706 49.8715 16.5171 50.1337 16.3116 50.3817L16.1652 50.5706L12.6532 54.9281V58.9361L12.6579 58.9385Z" fill="#D6D6DB"/>
<path d="M34 50.9415C34 49.3229 32.8878 48 31.5 48C30.1122 48 29 49.3229 29 50.9415V73" stroke="#3A3A3C" stroke-width="3" stroke-linecap="round" stroke-linejoin="round"/>
<path d="M38.6612 72.5843C38.1089 72.5843 37.6612 72.1366 37.6612 71.5843V70.2764C37.6612 69.9967 37.7793 69.7292 37.9846 69.5392C42.7523 65.1273 45.9324 61.5872 45.9324 58.7426C45.9324 56.9114 44.9484 55.9151 43.3526 55.9151C42.3334 55.9151 41.4944 56.432 40.7341 57.1232C40.3155 57.5038 39.6702 57.5219 39.2706 57.1214L38.1003 55.9486C37.7213 55.5688 37.7065 54.9535 38.0939 54.5822C39.7965 52.9505 41.4988 52.1719 43.9909 52.1719C47.8206 52.1719 50.4802 54.6494 50.4802 58.4733C50.4802 61.9203 47.5547 65.7174 44.5228 68.8142C45.5069 68.6796 46.8632 68.5449 47.7675 68.5449H50.3844C50.9367 68.5449 51.3844 68.9926 51.3844 69.5449V71.5843C51.3844 72.1366 50.9367 72.5843 50.3844 72.5843H38.6612Z" fill="#FF8908"/>
<path d="M59.5326 72.9613C55.3571 72.9613 52.5114 69.3528 52.5114 62.4589C52.5114 55.565 55.3571 52.1719 59.5326 52.1719C63.708 52.1719 66.5271 55.5919 66.5271 62.4589C66.5271 69.3528 63.708 72.9613 59.5326 72.9613ZM59.5326 69.2451C60.9421 69.2451 62.0591 67.9525 62.0591 62.4589C62.0591 56.9922 60.9421 55.8343 59.5326 55.8343C58.123 55.8343 56.9794 56.9922 56.9794 62.4589C56.9794 67.9525 58.123 69.2451 59.5326 69.2451Z" fill="#FF8908"/>
<path d="M69.8817 69.3413C68.5416 69.3413 67.5703 68.2628 67.5703 66.4572C67.5703 64.6515 68.5416 63.6094 69.8817 63.6094C71.2219 63.6094 72.2055 64.6515 72.2055 66.4572C72.2055 68.2628 71.2219 69.3413 69.8817 69.3413ZM69.8817 68.1537C70.3121 68.1537 70.6809 67.7175 70.6809 66.4572C70.6809 65.1969 70.3121 64.797 69.8817 64.797C69.4514 64.797 69.0826 65.1969 69.0826 66.4572C69.0826 67.7175 69.4514 68.1537 69.8817 68.1537ZM71.1208 72.9646C70.7032 72.9646 70.4354 72.5207 70.63 72.1513L74.9756 63.9055C75.0716 63.7234 75.2605 63.6094 75.4663 63.6094C75.8839 63.6094 76.1518 64.0533 75.9571 64.4227L71.6115 72.6685C71.5156 72.8506 71.3266 72.9646 71.1208 72.9646ZM76.6931 72.9646C75.3652 72.9646 74.3817 71.8861 74.3817 70.0805C74.3817 68.2749 75.3652 67.2206 76.6931 67.2206C78.0209 67.2206 79.0045 68.2749 79.0045 70.0805C79.0045 71.8861 78.0209 72.9646 76.6931 72.9646ZM76.6931 71.7649C77.1234 71.7649 77.4923 71.3408 77.4923 70.0805C77.4923 68.8081 77.1234 68.4203 76.6931 68.4203C76.2628 68.4203 75.8939 68.8081 75.8939 70.0805C75.8939 71.3408 76.2628 71.7649 76.6931 71.7649Z" fill="#FF8908"/>
<path d="M39.7734 42.2204L51.7188 36.2118L55.3024 26.5981L73.2205 16.9844" stroke="#FF8908" stroke-width="4" stroke-linecap="round" stroke-linejoin="round"/>
<path d="M67.25 15.7812L73.2227 16.983L70.8336 22.9916" stroke="#FF8908" stroke-width="4" stroke-linecap="round" stroke-linejoin="round"/>
</svg>
