<svg width="100" height="100" viewBox="0 0 100 100" fill="none" xmlns="http://www.w3.org/2000/svg">
<path fill-rule="evenodd" clip-rule="evenodd" d="M62 64.0015C66.8578 60.3526 70 54.5433 70 48C70 36.9543 61.0457 28 50 28C38.9543 28 30 36.9543 30 48C30 54.5433 33.1422 60.3526 38 64.0015V66C38 68.2091 39.7909 70 42 70H58C60.2091 70 62 68.2091 62 66V64.0015Z" fill="#FFB200"/>
<rect x="38" y="72" width="24" height="6" rx="3" fill="#1A72E7"/>
<rect x="43" y="80" width="14" height="4" rx="2" fill="#1D8FFF"/>
<path d="M49.1006 17.0458C49.1006 16.4682 49.565 16 50.1377 16C50.7105 16 51.1749 16.4682 51.1749 17.0458V23.3204C51.1749 23.8979 50.7105 24.3661 50.1377 24.3661C49.565 24.3661 49.1006 23.8979 49.1006 23.3204V17.0458Z" fill="#FFDF7F"/>
<path d="M62.0645 18.9972C62.3509 18.497 62.9852 18.3256 63.4813 18.6144C63.9773 18.9032 64.1473 19.5428 63.8609 20.043L60.7495 25.4769C60.4631 25.9771 59.8289 26.1485 59.3328 25.8597C58.8368 25.5709 58.6668 24.9314 58.9532 24.4312L62.0645 18.9972Z" fill="#FFDF7F"/>
<path d="M37.9355 18.9972C37.6491 18.497 37.0148 18.3256 36.5187 18.6144C36.0227 18.9032 35.8527 19.5428 36.1391 20.043L39.2505 25.4769C39.5369 25.9771 40.1711 26.1485 40.6672 25.8597C41.1632 25.5709 41.3332 24.9314 41.0468 24.4312L37.9355 18.9972Z" fill="#FFDF7F"/>
</svg>
