<svg width="100" height="100" viewBox="0 0 100 100" fill="none" xmlns="http://www.w3.org/2000/svg">
<path fill-rule="evenodd" clip-rule="evenodd" d="M74.9491 40.0009C75.5009 39.9775 75.9671 40.4059 75.9905 40.9577C76.0569 42.5265 75.7836 43.7893 75.202 44.7627C74.6123 45.7495 73.7571 46.3521 72.8292 46.6768C71.0405 47.3028 68.9695 46.9097 67.6541 46.4244C67.136 46.2332 66.8709 45.6582 67.0621 45.1401C67.2533 44.6219 67.8283 44.3569 68.3464 44.5481C69.4628 44.96 71.0089 45.1949 72.1686 44.7891C72.7149 44.5979 73.1667 44.2697 73.4851 43.7368C73.8116 43.1904 74.0474 42.3447 73.9923 41.0423C73.9689 40.4905 74.3973 40.0243 74.9491 40.0009Z" fill="#BCDDFF"/>
<path fill-rule="evenodd" clip-rule="evenodd" d="M35 30.5C35 29.1193 36.1193 28 37.5 28C38.8807 28 40 29.1193 40 30.5V31.0328C40.3305 31.011 40.664 31 41 31H57C65.2843 31 72 37.7157 72 46C72 52.1538 68.2943 57.4421 62.9926 59.7551C62.9975 59.8361 63 59.9178 63 60V62C63 64.2091 61.2091 66 59 66C56.7909 66 55 64.2091 55 62V61H43V62C43 64.2091 41.2091 66 39 66C36.7909 66 35 64.2091 35 62V60C35 59.9178 35.0025 59.8361 35.0074 59.7551C31.8838 58.3924 29.3142 55.9968 27.7301 53H26C23.7909 53 22 51.2091 22 49V45C22 42.7909 23.7909 41 26 41H26.8535C28.2401 37.077 31.2123 33.9031 35 32.2481V30.5ZM36.5 42C37.8807 42 39 40.8807 39 39.5C39 38.1193 37.8807 37 36.5 37C35.1193 37 34 38.1193 34 39.5C34 40.8807 35.1193 42 36.5 42Z" fill="#1A72E7"/>
<g filter="url(#filter0_d_3177_74873)">
<path d="M70 69.0018C73.3137 69.0018 76 67.9686 76 66.694V64.8477C76 66.1223 73.3137 67.1555 70 67.1555C66.6863 67.1555 64 66.1223 64 64.8477V66.694C64 67.9686 66.6863 69.0018 70 69.0018Z" fill="#FFB200"/>
<g filter="url(#filter1_i_3177_74873)">
<ellipse cx="70" cy="64.8514" rx="6" ry="2.30839" fill="#FFDF7F"/>
</g>
<path d="M70 66.2284C73.3137 66.2284 76 65.1951 76 63.9205V62.0742C76 63.3488 73.3137 64.3821 70 64.3821C66.6863 64.3821 64 63.3488 64 62.0742V63.9205C64 65.1951 66.6863 66.2284 70 66.2284Z" fill="#FFB200"/>
<g filter="url(#filter2_i_3177_74873)">
<ellipse cx="70" cy="62.0779" rx="6" ry="2.30839" fill="#FFDF7F"/>
</g>
<path d="M70 63.4589C73.3137 63.4589 76 62.4256 76 61.151V59.3047C76 60.5793 73.3137 61.6126 70 61.6126C66.6863 61.6126 64 60.5793 64 59.3047V61.151C64 62.4256 66.6863 63.4589 70 63.4589Z" fill="#FFB200"/>
<g filter="url(#filter3_i_3177_74873)">
<ellipse cx="70" cy="59.3084" rx="6" ry="2.30839" fill="#FFDF7F"/>
</g>
</g>
<g filter="url(#filter4_d_3177_74873)">
<path d="M62 70.0038C65.3137 70.0038 68 68.9963 68 67.7534V65.9531C68 67.196 65.3137 68.2035 62 68.2035C58.6863 68.2035 56 67.196 56 65.9531V67.7534C56 68.9963 58.6863 70.0038 62 70.0038Z" fill="#FFB200"/>
<g filter="url(#filter5_i_3177_74873)">
<ellipse cx="62" cy="65.9535" rx="6" ry="2.25037" fill="#FFDF7F"/>
</g>
<path d="M62 67.3007C65.3137 67.3007 68 66.2931 68 65.0503V63.25C68 64.4928 65.3137 65.5004 62 65.5004C58.6863 65.5004 56 64.4928 56 63.25V65.0503C56 66.2931 58.6863 67.3007 62 67.3007Z" fill="#FFB200"/>
<g filter="url(#filter6_i_3177_74873)">
<ellipse cx="62" cy="63.2504" rx="6" ry="2.25037" fill="#FFDF7F"/>
</g>
</g>
<g filter="url(#filter7_d_3177_74873)">
<path d="M72 72.0012C75.3137 72.0012 78 70.8816 78 69.5005V67.5C78 68.8811 75.3137 70.0006 72 70.0006C68.6863 70.0006 66 68.8811 66 67.5V69.5005C66 70.8816 68.6863 72.0012 72 72.0012Z" fill="#FFB200"/>
<g filter="url(#filter8_i_3177_74873)">
<ellipse cx="72" cy="67.5006" rx="6" ry="2.50064" fill="#FFDF7F"/>
</g>
</g>
<defs>
<filter id="filter0_d_3177_74873" x="59" y="51" width="20" height="20.002" filterUnits="userSpaceOnUse" color-interpolation-filters="sRGB">
<feFlood flood-opacity="0" result="BackgroundImageFix"/>
<feColorMatrix in="SourceAlpha" type="matrix" values="0 0 0 0 0 0 0 0 0 0 0 0 0 0 0 0 0 0 127 0" result="hardAlpha"/>
<feOffset dx="-1" dy="-2"/>
<feGaussianBlur stdDeviation="2"/>
<feComposite in2="hardAlpha" operator="out"/>
<feColorMatrix type="matrix" values="0 0 0 0 0 0 0 0 0 0 0 0 0 0 0 0 0 0 0.12 0"/>
<feBlend mode="overlay" in2="BackgroundImageFix" result="effect1_dropShadow_3177_74873"/>
<feBlend mode="normal" in="SourceGraphic" in2="effect1_dropShadow_3177_74873" result="shape"/>
</filter>
<filter id="filter1_i_3177_74873" x="64" y="62.543" width="12" height="4.61719" filterUnits="userSpaceOnUse" color-interpolation-filters="sRGB">
<feFlood flood-opacity="0" result="BackgroundImageFix"/>
<feBlend mode="normal" in="SourceGraphic" in2="BackgroundImageFix" result="shape"/>
<feColorMatrix in="SourceAlpha" type="matrix" values="0 0 0 0 0 0 0 0 0 0 0 0 0 0 0 0 0 0 127 0" result="hardAlpha"/>
<feOffset dy="-1"/>
<feComposite in2="hardAlpha" operator="arithmetic" k2="-1" k3="1"/>
<feColorMatrix type="matrix" values="0 0 0 0 1 0 0 0 0 0.870588 0 0 0 0 0.486275 0 0 0 0.6 0"/>
<feBlend mode="multiply" in2="shape" result="effect1_innerShadow_3177_74873"/>
</filter>
<filter id="filter2_i_3177_74873" x="64" y="59.7695" width="12" height="4.61719" filterUnits="userSpaceOnUse" color-interpolation-filters="sRGB">
<feFlood flood-opacity="0" result="BackgroundImageFix"/>
<feBlend mode="normal" in="SourceGraphic" in2="BackgroundImageFix" result="shape"/>
<feColorMatrix in="SourceAlpha" type="matrix" values="0 0 0 0 0 0 0 0 0 0 0 0 0 0 0 0 0 0 127 0" result="hardAlpha"/>
<feOffset dy="-1"/>
<feComposite in2="hardAlpha" operator="arithmetic" k2="-1" k3="1"/>
<feColorMatrix type="matrix" values="0 0 0 0 1 0 0 0 0 0.870588 0 0 0 0 0.486275 0 0 0 0.6 0"/>
<feBlend mode="multiply" in2="shape" result="effect1_innerShadow_3177_74873"/>
</filter>
<filter id="filter3_i_3177_74873" x="64" y="57" width="12" height="4.61719" filterUnits="userSpaceOnUse" color-interpolation-filters="sRGB">
<feFlood flood-opacity="0" result="BackgroundImageFix"/>
<feBlend mode="normal" in="SourceGraphic" in2="BackgroundImageFix" result="shape"/>
<feColorMatrix in="SourceAlpha" type="matrix" values="0 0 0 0 0 0 0 0 0 0 0 0 0 0 0 0 0 0 127 0" result="hardAlpha"/>
<feOffset dy="-1"/>
<feComposite in2="hardAlpha" operator="arithmetic" k2="-1" k3="1"/>
<feColorMatrix type="matrix" values="0 0 0 0 1 0 0 0 0 0.870588 0 0 0 0 0.486275 0 0 0 0.6 0"/>
<feBlend mode="multiply" in2="shape" result="effect1_innerShadow_3177_74873"/>
</filter>
<filter id="filter4_d_3177_74873" x="51" y="55" width="20" height="17.0039" filterUnits="userSpaceOnUse" color-interpolation-filters="sRGB">
<feFlood flood-opacity="0" result="BackgroundImageFix"/>
<feColorMatrix in="SourceAlpha" type="matrix" values="0 0 0 0 0 0 0 0 0 0 0 0 0 0 0 0 0 0 127 0" result="hardAlpha"/>
<feOffset dx="-1" dy="-2"/>
<feGaussianBlur stdDeviation="2"/>
<feComposite in2="hardAlpha" operator="out"/>
<feColorMatrix type="matrix" values="0 0 0 0 0 0 0 0 0 0 0 0 0 0 0 0 0 0 0.12 0"/>
<feBlend mode="overlay" in2="BackgroundImageFix" result="effect1_dropShadow_3177_74873"/>
<feBlend mode="normal" in="SourceGraphic" in2="effect1_dropShadow_3177_74873" result="shape"/>
</filter>
<filter id="filter5_i_3177_74873" x="56" y="63.7031" width="12" height="4.5" filterUnits="userSpaceOnUse" color-interpolation-filters="sRGB">
<feFlood flood-opacity="0" result="BackgroundImageFix"/>
<feBlend mode="normal" in="SourceGraphic" in2="BackgroundImageFix" result="shape"/>
<feColorMatrix in="SourceAlpha" type="matrix" values="0 0 0 0 0 0 0 0 0 0 0 0 0 0 0 0 0 0 127 0" result="hardAlpha"/>
<feOffset dy="-1"/>
<feComposite in2="hardAlpha" operator="arithmetic" k2="-1" k3="1"/>
<feColorMatrix type="matrix" values="0 0 0 0 1 0 0 0 0 0.870588 0 0 0 0 0.486275 0 0 0 0.6 0"/>
<feBlend mode="multiply" in2="shape" result="effect1_innerShadow_3177_74873"/>
</filter>
<filter id="filter6_i_3177_74873" x="56" y="61" width="12" height="4.5" filterUnits="userSpaceOnUse" color-interpolation-filters="sRGB">
<feFlood flood-opacity="0" result="BackgroundImageFix"/>
<feBlend mode="normal" in="SourceGraphic" in2="BackgroundImageFix" result="shape"/>
<feColorMatrix in="SourceAlpha" type="matrix" values="0 0 0 0 0 0 0 0 0 0 0 0 0 0 0 0 0 0 127 0" result="hardAlpha"/>
<feOffset dy="-1"/>
<feComposite in2="hardAlpha" operator="arithmetic" k2="-1" k3="1"/>
<feColorMatrix type="matrix" values="0 0 0 0 1 0 0 0 0 0.870588 0 0 0 0 0.486275 0 0 0 0.6 0"/>
<feBlend mode="multiply" in2="shape" result="effect1_innerShadow_3177_74873"/>
</filter>
<filter id="filter7_d_3177_74873" x="61" y="59" width="20" height="15.002" filterUnits="userSpaceOnUse" color-interpolation-filters="sRGB">
<feFlood flood-opacity="0" result="BackgroundImageFix"/>
<feColorMatrix in="SourceAlpha" type="matrix" values="0 0 0 0 0 0 0 0 0 0 0 0 0 0 0 0 0 0 127 0" result="hardAlpha"/>
<feOffset dx="-1" dy="-2"/>
<feGaussianBlur stdDeviation="2"/>
<feComposite in2="hardAlpha" operator="out"/>
<feColorMatrix type="matrix" values="0 0 0 0 0 0 0 0 0 0 0 0 0 0 0 0 0 0 0.12 0"/>
<feBlend mode="overlay" in2="BackgroundImageFix" result="effect1_dropShadow_3177_74873"/>
<feBlend mode="normal" in="SourceGraphic" in2="effect1_dropShadow_3177_74873" result="shape"/>
</filter>
<filter id="filter8_i_3177_74873" x="66" y="65" width="12" height="5.00195" filterUnits="userSpaceOnUse" color-interpolation-filters="sRGB">
<feFlood flood-opacity="0" result="BackgroundImageFix"/>
<feBlend mode="normal" in="SourceGraphic" in2="BackgroundImageFix" result="shape"/>
<feColorMatrix in="SourceAlpha" type="matrix" values="0 0 0 0 0 0 0 0 0 0 0 0 0 0 0 0 0 0 127 0" result="hardAlpha"/>
<feOffset dy="-1"/>
<feComposite in2="hardAlpha" operator="arithmetic" k2="-1" k3="1"/>
<feColorMatrix type="matrix" values="0 0 0 0 1 0 0 0 0 0.870588 0 0 0 0 0.486275 0 0 0 0.6 0"/>
<feBlend mode="multiply" in2="shape" result="effect1_innerShadow_3177_74873"/>
</filter>
</defs>
</svg>
