<svg width="100" height="100" viewBox="0 0 100 100" fill="none" xmlns="http://www.w3.org/2000/svg">
<path d="M25 32C25 29.7909 26.7909 28 29 28H71C73.2091 28 75 29.7909 75 32V61H25V32Z" fill="#1A72E7"/>
<path d="M29 34C29 32.8954 29.8954 32 31 32H69C70.1046 32 71 32.8954 71 34V61H29V34Z" fill="white"/>
<path d="M20 63C20 61.8954 20.8954 61 22 61H78C79.1046 61 80 61.8954 80 63V65C80 68.3137 77.3137 71 74 71H26C22.6863 71 20 68.3137 20 65V63Z" fill="#1A72E7"/>
<path d="M41 61.5714C41 61.2558 41.2558 61 41.5714 61H58.4286C58.7442 61 59 61.2558 59 61.5714C59 63.465 57.465 65 55.5714 65H44.4286C42.535 65 41 63.465 41 61.5714Z" fill="#BCDDFF"/>
<path d="M58.0127 45.1563C57.7214 45.1563 57.4839 45.3701 57.4839 45.6324V46.2594H61.5466C62.3921 46.2594 63.0127 46.1084 63.4054 45.8034C63.8012 45.4984 63.9976 45.048 63.9976 44.3981C63.9976 43.7483 63.8266 43.3007 63.4846 43.0271C63.1426 42.7535 62.5694 42.6167 61.7619 42.6167H60.0076C59.7005 42.6167 59.3965 42.5596 59.2413 42.4456C59.0862 42.3316 58.9247 42.1463 58.9247 41.9326C58.9247 41.6475 59.0165 41.4366 59.2002 41.3055C59.3838 41.1744 59.5802 41.1031 59.9696 41.1031H63.1362C63.4276 41.1031 63.6651 40.8893 63.6651 40.6271V40H59.8461C58.9912 40 58.3673 40.1539 57.9747 40.4646C57.582 40.7725 57.3857 41.2428 57.3857 41.9098C57.3857 42.5368 57.5725 42.9929 57.9462 43.2836C58.3198 43.5744 58.9088 43.7198 59.7163 43.7198H61.4168C61.7968 43.7198 62.0659 43.7768 62.2243 43.8851C62.3794 43.9962 62.4618 44.1844 62.4618 44.4466C62.4618 44.7088 62.3763 44.8827 62.2053 44.991C62.0343 45.0993 61.7398 45.1563 61.3186 45.1563H58.0127Z" fill="#26247B"/>
<path d="M48.0442 40C47.7529 40 47.5154 40.2138 47.5154 40.476V44.401L44.5135 40.4447C44.3266 40.1539 44.086 40.0028 43.7725 40.0028H42.1797V46.2594H43.1867C43.478 46.2594 43.7155 46.0457 43.7155 45.7834V41.6874L46.8631 45.8176C46.8631 45.8176 47.1671 46.2594 47.6389 46.2594H49.0449V40.0028H48.0379L48.0442 40Z" fill="#26247B"/>
<path d="M51.4578 45.7834C51.4578 46.0457 51.2203 46.2594 50.929 46.2594H49.922V41.1345C49.922 40.3164 50.2957 40.0028 51.176 40.0028H54.3679C55.2229 40.0028 55.8467 40.1539 56.2362 40.4618C56.6289 40.7696 56.8252 41.257 56.8252 41.9269V42.1634C56.8252 42.8304 56.6289 43.2637 56.2362 43.5715C55.8436 43.8822 55.2197 44.0333 54.3679 44.0333H52.0025C52.0025 44.0333 52.3888 42.9302 53.7694 42.9302H54.2951C54.6276 42.9302 54.8588 42.8675 55.0234 42.7392C55.2102 42.5967 55.2989 42.2889 55.2989 41.9953C55.2989 41.7017 55.2007 41.4622 55.0044 41.3197C54.8081 41.1772 54.5959 41.1059 54.1748 41.1059H52.2463C51.6415 41.1059 51.4642 41.3454 51.4642 41.8128V45.7863L51.4578 45.7834Z" fill="#26247B"/>
<path d="M43.464 51.7962C50.0967 51.936 53.3528 46.3718 53.6001 46.0369C53.8444 45.6992 54.1258 45.7487 54.2681 45.7487H56.9088C56.9088 45.7487 53.1549 52.9812 43.464 51.8894C43.3836 51.8806 43.3743 51.7962 43.464 51.7991V51.7962Z" fill="url(#paint0_linear_3177_74915)"/>
<path d="M34 45.7451H36.7304C37.0798 45.7451 37.2251 45.9344 37.3705 46.1498C41.5263 52.3051 47.8931 50.5668 47.8931 50.5668C47.9735 50.5464 47.9921 50.6076 47.9209 50.6338C47.9209 50.6338 45.07 51.88 41.7428 51.2685C38.4156 50.66 35.6203 48.386 34 45.7422V45.7451Z" fill="url(#paint1_linear_3177_74915)"/>
<defs>
<linearGradient id="paint0_linear_3177_74915" x1="58.8001" y1="46.8612" x2="39.0972" y2="59.7687" gradientUnits="userSpaceOnUse">
<stop stop-color="#BED630"/>
<stop offset="0.1" stop-color="#ADD232"/>
<stop offset="0.29" stop-color="#83C938"/>
<stop offset="0.56" stop-color="#3FBA43"/>
<stop offset="0.74" stop-color="#0DB04B"/>
<stop offset="1" stop-color="#007F49"/>
</linearGradient>
<linearGradient id="paint1_linear_3177_74915" x1="48.4201" y1="51.8037" x2="33.997" y2="46.2286" gradientUnits="userSpaceOnUse">
<stop stop-color="#FFCA05"/>
<stop offset="0.08" stop-color="#FDC107"/>
<stop offset="0.48" stop-color="#F79A14"/>
<stop offset="0.8" stop-color="#F4811D"/>
<stop offset="1" stop-color="#F37920"/>
</linearGradient>
</defs>
</svg>
