<svg width="80" height="80" viewBox="0 0 80 80" fill="none" xmlns="http://www.w3.org/2000/svg">
<g clip-path="url(#clip0_3869_106214)">
<path d="M56.2809 71.6641V74.9971C56.2809 77.7636 54.3032 79.9968 51.8561 79.9968H51.1187C49.8951 79.9968 48.9062 78.8802 48.9062 77.497V71.6641H56.2809Z" fill="#FFE7C6"/>
<path d="M65.4919 71.6641V77.497C65.4919 78.8802 64.503 79.9968 63.2795 79.9968H62.542C60.0949 79.9968 58.1172 77.7636 58.1172 74.9971V71.6641H65.4919Z" fill="#FFE7C6"/>
<path d="M55.9547 14.401C56.7928 13.6344 58.1001 13.6344 58.9214 14.4177C60.5472 15.9176 63.0613 16.6675 64.1507 16.6675V18.3341C64.1507 20.5672 63.0613 22.5337 61.3684 23.7336H61.3517C60.2455 24.5336 58.9046 25.0002 57.4464 25.0002C55.9883 25.0002 54.6474 24.5336 53.5412 23.7336H53.5245C51.8316 22.5337 50.7422 20.5672 50.7422 18.3341V16.6675C51.8316 16.6675 54.329 15.9176 55.9547 14.401Z" fill="#FFE7C6"/>
<path d="M25.3058 19.9886C23.1772 19.9886 21.2665 19.0053 20.0597 17.4554C19.1379 16.3055 18.6016 14.8723 18.6016 13.3224V9.98933C18.6016 8.77276 18.9368 7.63951 19.5066 6.65625H31.105C31.6749 7.63951 32.0101 8.77276 32.0101 9.98933V13.3224C32.0101 14.8723 31.4737 16.3055 30.5519 17.4554C29.3451 19.0053 27.4344 19.9886 25.3058 19.9886Z" fill="#FFE7C6"/>
<path d="M37.3705 42.4262C37.1372 41.843 37.1914 41.1841 37.517 40.6469L41.5696 33.9591C43.6311 28.6929 48.1565 24.9098 53.5367 23.7266H53.5534C54.6596 24.5265 56.0005 24.9931 57.4586 24.9931C58.9168 24.9931 60.2577 24.5265 61.3639 23.7266H61.3806C66.7608 24.9098 71.2862 28.6929 73.3477 33.9591L79.1804 48.858C79.5659 49.8746 79.4318 51.0078 78.8284 51.8911C78.2083 52.791 77.1859 53.3243 76.0965 53.3243C75.007 53.3243 73.9008 52.6744 73.3812 51.6411L67.7329 37.2422C68.8726 40.5753 67.9474 43.5584 67.3943 44.515L67.4145 44.875L72.5432 71.6563H42.3741L47.5028 44.875L47.4324 44.3717C46.762 42.4052 46.0446 40.5753 47.1844 37.2422L39 46.5" fill="#FF8908"/>
<path d="M63.7871 11.7784C64.3904 12.8616 64.8352 16.678 64.1648 16.678C63.0753 16.678 60.5612 15.9281 58.9354 14.4282C58.1142 13.6449 56.8068 13.6449 55.9688 14.4115C54.343 15.9281 51.8457 16.678 50.7562 16.678C50.0858 16.678 50.5901 12.8616 51.1935 11.7784C51.7298 10.8118 52.315 9.9952 53.505 9.41191C54.7453 8.79529 56.1699 8.44531 57.4605 8.44531C58.7511 8.44531 60.1757 8.79529 61.416 9.41191C62.606 9.9952 63.2507 10.8118 63.7871 11.7784Z" fill="#D6D6DB"/>
<path d="M57.4631 1.66406C62.3907 1.66406 65.0892 5.74709 61.4186 9.39681C60.1783 8.78019 58.7537 8.43022 57.4631 8.43022C56.1725 8.43022 54.7479 8.78019 53.5076 9.39681C49.837 5.74709 52.5355 1.66406 57.4631 1.66406Z" fill="#D6D6DB"/>
<path d="M25.3049 54.6215C25.3049 57.3879 24.0077 79.9895 19.6063 79.9895H18.6007C16.757 79.9895 15.2485 78.4896 15.2485 76.6565V35.4096L9.7343 50.1585C9.01359 52.0416 7.20344 53.3082 5.19217 53.3249H5.15865C4.3709 53.3249 3.61667 52.9582 3.14737 52.3416C2.66131 51.7083 2.51046 50.9084 2.71159 50.1418L8.37669 29.5267C9.98571 23.6771 14.4608 19.1941 20.0588 17.4609C21.2656 19.0108 23.1763 19.9941 25.3049 19.9941C27.4335 19.9941 29.3442 19.0108 30.551 17.4609C36.1491 19.1941 40.6241 23.6771 42.2332 29.5267L46.6915 45.7588L47.8983 50.1418C48.0994 50.9084 47.9486 51.7083 47.4625 52.3416C47.2781 52.5916 47.0267 52.8083 46.7585 52.9582C46.3731 53.1916 45.9205 53.3249 45.4512 53.3249C43.4232 53.3249 41.5963 52.0583 40.8756 50.1585L35.3613 35.4096V76.6565C35.3613 78.4896 33.8529 79.9895 32.0092 79.9895H31.0035C26.6961 79.9895 25.3049 57.3879 25.3049 54.6215Z" fill="#CCCCCC"/>
<path d="M32.0742 7.01253H18.9766C18.9766 7.01253 19.6969 0 22.251 0C24.0847 0 23.79 0.981754 25.5254 0.981754C27.2608 0.981754 26.9662 0 28.7998 0C31.3539 0 32.0742 7.01253 32.0742 7.01253Z" fill="#1D8FFF"/>
<path d="M9.798 56.6612C9.798 54.828 8.28955 53.3281 6.44588 53.3281H6.41236C4.58545 53.3448 3.09375 54.8447 3.09375 56.6612V79.9928" stroke="#3A3A3C" stroke-width="3" stroke-linecap="round" stroke-linejoin="round"/>
<path d="M35.2143 6H14.7857C14.3518 6 14 6.35817 14 6.8V7.2C14 7.64183 14.3518 8 14.7857 8H35.2143C35.6482 8 36 7.64183 36 7.2V6.8C36 6.35817 35.6482 6 35.2143 6Z" fill="#1D8FFF"/>
<path d="M41.6763 41.9269C43.2116 41.5273 44.7818 42.4414 45.1925 43.9739C45.6292 45.6039 44.581 47.2594 42.9208 47.5618L40.4964 48.0033C40.0089 48.092 39.5273 47.8218 39.349 47.3595L38.1224 44.1789C37.8746 43.5362 38.2416 42.8209 38.9082 42.6474L41.6763 41.9269Z" fill="#FF8908"/>
<path d="M37.5 41.5C38.5 42.5 39.5 42.5 42.5 42L41.5 45L39 46L37.5 42V41.5Z" fill="#FF8908"/>
</g>
<defs>
<clipPath id="clip0_3869_106214">
<rect width="80" height="80" fill="white"/>
</clipPath>
</defs>
</svg>
