<svg width="40" height="40" viewBox="0 0 40 40" fill="none" xmlns="http://www.w3.org/2000/svg">
<rect width="40" height="40" rx="20" fill="#1D8FFF"/>
<path d="M18.6051 22.4318H21.7415L23.3182 24.4602L24.8693 26.267L27.7926 29.9318H24.3494L22.3381 27.4602L21.3068 25.9943L18.6051 22.4318ZM28.0568 19.7727C28.0568 21.6761 27.696 23.2955 26.9744 24.6307C26.2585 25.9659 25.2813 26.9858 24.0426 27.6903C22.8097 28.3892 21.4233 28.7386 19.8835 28.7386C18.3324 28.7386 16.9403 28.3864 15.7074 27.6818C14.4744 26.9773 13.5 25.9574 12.7841 24.6222C12.0682 23.2869 11.7102 21.6705 11.7102 19.7727C11.7102 17.8693 12.0682 16.25 12.7841 14.9148C13.5 13.5795 14.4744 12.5625 15.7074 11.8636C16.9403 11.1591 18.3324 10.8068 19.8835 10.8068C21.4233 10.8068 22.8097 11.1591 24.0426 11.8636C25.2813 12.5625 26.2585 13.5795 26.9744 14.9148C27.696 16.25 28.0568 17.8693 28.0568 19.7727ZM24.3153 19.7727C24.3153 18.5398 24.1307 17.5 23.7614 16.6534C23.3977 15.8068 22.8835 15.1648 22.2188 14.7273C21.554 14.2898 20.7756 14.071 19.8835 14.071C18.9915 14.071 18.2131 14.2898 17.5483 14.7273C16.8835 15.1648 16.3665 15.8068 15.9972 16.6534C15.6335 17.5 15.4517 18.5398 15.4517 19.7727C15.4517 21.0057 15.6335 22.0455 15.9972 22.892C16.3665 23.7386 16.8835 24.3807 17.5483 24.8182C18.2131 25.2557 18.9915 25.4744 19.8835 25.4744C20.7756 25.4744 21.554 25.2557 22.2188 24.8182C22.8835 24.3807 23.3977 23.7386 23.7614 22.892C24.1307 22.0455 24.3153 21.0057 24.3153 19.7727Z" fill="white"/>
</svg>
