<svg width="24" height="24" viewBox="0 0 24 24" fill="none" xmlns="http://www.w3.org/2000/svg">
<rect width="24" height="24" rx="12" fill="#1D8FFF"/>
<path d="M12.7188 13.5781L13.5781 14.6875C13.8542 14.3646 14.0625 13.9661 14.2031 13.4922C14.349 13.013 14.4219 12.4635 14.4219 11.8438C14.4219 11.0469 14.3021 10.3698 14.0625 9.8125C13.8281 9.25521 13.4948 8.83333 13.0625 8.54688C12.6302 8.25521 12.1198 8.10938 11.5312 8.10938C10.9427 8.10938 10.4297 8.25521 9.99219 8.54688C9.5599 8.83333 9.22396 9.25781 8.98438 9.82031C8.74479 10.3776 8.625 11.0521 8.625 11.8438C8.625 12.6354 8.74479 13.3125 8.98438 13.875C9.22396 14.4323 9.5599 14.8568 9.99219 15.1484C10.4297 15.4349 10.9427 15.5781 11.5312 15.5781C11.7448 15.5781 11.9609 15.5573 12.1797 15.5156L10.7031 13.5781H12.7188ZM16.8125 11.8438C16.8125 12.8281 16.6536 13.7083 16.3359 14.4844C16.0234 15.2552 15.5833 15.8932 15.0156 16.3984L16.625 18.4375H14.4219L13.5078 17.3047C12.9089 17.5391 12.25 17.6562 11.5312 17.6562C10.5208 17.6562 9.61458 17.4245 8.8125 16.9609C8.01042 16.4974 7.38021 15.8281 6.92188 14.9531C6.46354 14.0729 6.23438 13.0365 6.23438 11.8438C6.23438 10.6458 6.46354 9.60938 6.92188 8.73438C7.38021 7.85417 8.01042 7.1849 8.8125 6.72656C9.61458 6.26302 10.5208 6.03125 11.5312 6.03125C12.5365 6.03125 13.4375 6.26302 14.2344 6.72656C15.0365 7.1849 15.6667 7.85417 16.125 8.73438C16.5833 9.60938 16.8125 10.6458 16.8125 11.8438Z" fill="white"/>
</svg>
