<svg width="24" height="24" viewBox="0 0 24 24" fill="none" xmlns="http://www.w3.org/2000/svg">
<path d="M2 12C2 6.47715 6.47715 2 12 2C17.5228 2 22 6.47715 22 12C22 17.5228 17.5228 22 12 22C6.47715 22 2 17.5228 2 12Z" stroke="#1D8FFF" stroke-width="2"/>
<path d="M10.6712 14.5795V14.4318C10.675 13.7462 10.7393 13.2008 10.8643 12.7955C10.9931 12.3902 11.175 12.0644 11.4098 11.8182C11.6446 11.5682 11.9306 11.339 12.2678 11.1307C12.4988 10.9867 12.7053 10.8295 12.8871 10.6591C13.0727 10.4848 13.2185 10.2917 13.3246 10.0795C13.4306 9.86364 13.4837 9.62311 13.4837 9.35795C13.4837 9.05871 13.4136 8.79924 13.2734 8.57955C13.1333 8.35985 12.9439 8.18939 12.7053 8.06818C12.4704 7.94697 12.2071 7.88636 11.9155 7.88636C11.6465 7.88636 11.3909 7.94508 11.1484 8.0625C10.9098 8.17614 10.7109 8.35038 10.5518 8.58523C10.3965 8.81629 10.3094 9.10985 10.2905 9.46591H8.26776C8.2867 8.74621 8.46094 8.14394 8.79048 7.65909C9.12382 7.17424 9.56321 6.81061 10.1087 6.56818C10.6579 6.32576 11.264 6.20455 11.9268 6.20455C12.6503 6.20455 13.2867 6.33144 13.8359 6.58523C14.389 6.83902 14.8189 7.20076 15.1257 7.67045C15.4363 8.13636 15.5916 8.68939 15.5916 9.32955C15.5916 9.76136 15.5215 10.1477 15.3814 10.4886C15.245 10.8295 15.05 11.1326 14.7962 11.3977C14.5424 11.6629 14.2412 11.8996 13.8928 12.108C13.5859 12.2973 13.334 12.4943 13.1371 12.6989C12.9439 12.9034 12.8 13.1439 12.7053 13.4205C12.6143 13.6932 12.567 14.0303 12.5632 14.4318V14.5795H10.6712ZM11.6598 18.125C11.3189 18.125 11.0253 18.0038 10.7791 17.7614C10.5329 17.5189 10.4098 17.2235 10.4098 16.875C10.4098 16.5341 10.5329 16.2424 10.7791 16C11.0253 15.7576 11.3189 15.6364 11.6598 15.6364C11.9969 15.6364 12.2886 15.7576 12.5348 16C12.7848 16.2424 12.9098 16.5341 12.9098 16.875C12.9098 17.1061 12.8511 17.3163 12.7337 17.5057C12.62 17.6951 12.4685 17.8466 12.2791 17.9602C12.0935 18.0701 11.8871 18.125 11.6598 18.125Z" fill="#1D8FFF"/>
</svg>
