<svg width="40" height="40" viewBox="0 0 40 40" fill="none" xmlns="http://www.w3.org/2000/svg">
<circle cx="20" cy="20" r="19" stroke="#FC1F2D" stroke-width="2"/>
<circle cx="27.5" cy="16.5" r="2.5" fill="#FC1F2D"/>
<circle cx="12.5" cy="16.5" r="2.5" fill="#FC1F2D"/>
<path d="M24.9039 23.6652C25.5169 22.3846 23.1161 20 20.0002 20C16.8841 20 14.4822 22.3837 15.0964 23.6652C15.7106 24.9468 16.2609 22.1357 20 22.1357C23.1159 22.1357 24.291 24.9458 24.9039 23.6652Z" fill="#FC1F2D"/>
<path d="M10.1046 25C9.59684 27.1432 11.0524 28 12.0001 28C12.9478 28 14.4027 27.1434 13.8956 25C13.4224 23 12.5 21 12.0001 21C11.5002 21 10.5785 23 10.1046 25Z" fill="#FC1F2D"/>
</svg>
