<svg width="60" height="60" viewBox="0 0 60 60" fill="none" xmlns="http://www.w3.org/2000/svg">
<g clip-path="url(#clip0_3623_100899)">
<rect x="6" y="5" width="40" height="50" fill="#1D8FFF"/>
<rect x="10" y="9" width="32" height="24" fill="#BCDDFF"/>
<rect x="14" y="13" width="16" height="3" fill="#1A72E7"/>
<rect x="14" y="18" width="20" height="3" fill="white"/>
<rect x="14" y="23" width="10" height="3" fill="white"/>
<path fill-rule="evenodd" clip-rule="evenodd" d="M50.4779 40.782C51.9617 39.107 52.8632 36.8994 52.8632 34.4802C52.8632 29.2444 48.6405 25 43.4316 25C38.2227 25 34 29.2444 34 34.4802C34 39.7159 38.2227 43.9603 43.4316 43.9603C44.8578 43.9603 46.21 43.6422 47.4219 43.0726L50.7802 46.448C51.5168 47.1883 52.7111 47.1883 53.4477 46.448C54.1843 45.7076 54.1843 44.5073 53.4477 43.767L50.4779 40.782Z" fill="#FF8908"/>
<circle cx="43.5" cy="34.5" r="6.5" fill="white"/>
<circle cx="20" cy="49" r="1" fill="#BCDDFF"/>
<path d="M14.904 46.4748L15.5539 47.2739C15.7627 47.0435 15.9202 46.7544 16.0266 46.4068C16.1369 46.0554 16.192 45.653 16.192 45.1996C16.192 44.6291 16.1014 44.1417 15.9202 43.7374C15.739 43.3331 15.485 43.029 15.1581 42.8249C14.8311 42.6171 14.4471 42.5113 14.0059 42.5076C13.5608 42.5113 13.1728 42.6171 12.8419 42.8249C12.5111 43.0327 12.255 43.3407 12.0739 43.7487C11.8966 44.153 11.808 44.6423 11.808 45.2166C11.808 45.7909 11.8966 46.2821 12.0739 46.6902C12.255 47.0945 12.5111 47.4005 12.8419 47.6083C13.1728 47.8161 13.5608 47.9219 14.0059 47.9257C14.1792 47.9257 14.3427 47.9087 14.4963 47.8747L13.3796 46.4748H14.904ZM10 45.2166C10 44.3438 10.1733 43.5901 10.5199 42.9553C10.8666 42.3205 11.3432 41.8369 11.9498 41.5044C12.5564 41.1681 13.2418 41 14.0059 41C14.7661 41 15.4476 41.1681 16.0502 41.5044C16.6568 41.8369 17.1334 42.3205 17.4801 42.9553C17.8267 43.5901 18 44.3438 18 45.2166C18 45.9345 17.8799 46.573 17.6396 47.1322C17.4032 47.6914 17.0704 48.1562 16.6411 48.5264L17.8582 50H16.192L15.5066 49.1839C15.0419 49.3501 14.5416 49.4332 14.0059 49.4332C13.2418 49.4332 12.5564 49.267 11.9498 48.9345C11.3432 48.5982 10.8666 48.1127 10.5199 47.478C10.1733 46.8394 10 46.0856 10 45.2166Z" fill="#BCDDFF"/>
</g>
<defs>
<clipPath id="clip0_3623_100899">
<rect width="60" height="60" fill="white"/>
</clipPath>
</defs>
</svg>
