<svg width="20" height="20" viewBox="0 0 20 20" fill="none" xmlns="http://www.w3.org/2000/svg">
<path d="M10 0C4.477 0 0 4.477 0 10C0 15.523 4.477 20 10 20C15.523 20 20 15.523 20 10C20 4.477 15.523 0 10 0ZM8.75 13.333C8.75 13.778 8.52299 14 8.06799 14H6.93201C6.47701 14 6.25 13.778 6.25 13.333V6.66602C6.25 6.22202 6.47701 5.99902 6.93201 5.99902H8.06799C8.52299 5.99902 8.75 6.22102 8.75 6.66602V13.333ZM13.75 13.333C13.75 13.778 13.523 14 13.068 14H11.932C11.477 14 11.25 13.778 11.25 13.333V6.66602C11.25 6.22202 11.477 5.99902 11.932 5.99902H13.068C13.523 5.99902 13.75 6.22102 13.75 6.66602V13.333Z" fill="#222222"/>
</svg>
