<svg width="24" height="24" viewBox="0 0 24 24" fill="none" xmlns="http://www.w3.org/2000/svg">
<rect width="24" height="24" rx="12" fill="#FF0000"/>
<path d="M18.7116 8.56471C18.5502 7.95294 18.0774 7.47059 17.4777 7.30588C16.3822 7 12 7 12 7C12 7 7.61778 7 6.52223 7.29412C5.9341 7.45882 5.44975 7.95294 5.2883 8.56471C5 9.68235 5 12 5 12C5 12 5 14.3294 5.2883 15.4353C5.44975 16.0471 5.92257 16.5294 6.52223 16.6941C7.62931 17 12 17 12 17C12 17 16.3822 17 17.4777 16.7059C18.0774 16.5412 18.5502 16.0588 18.7116 15.4471C18.9999 14.3294 18.9999 12.0118 18.9999 12.0118C18.9999 12.0118 19.0115 9.68235 18.7116 8.56471Z" fill="white"/>
<path d="M10.5 14.5L14.5 12L10.5 9.5V14.5Z" fill="#FF0000"/>
</svg>
