<svg width="24" height="24" viewBox="0 0 24 24" fill="none" xmlns="http://www.w3.org/2000/svg">
<rect width="24" height="24" rx="12" fill="#222222"/>
<path d="M17.4545 6.00001H13.6364C13.3241 5.99873 13.0213 6.10706 12.781 6.30604C12.5407 6.50502 12.3781 6.78197 12.3218 7.08844L11.82 9.83674C11.7853 10.0282 11.7932 10.225 11.8432 10.413C11.8931 10.6011 11.9839 10.776 12.1091 10.9252C12.235 11.0745 12.3919 11.1946 12.5689 11.2773C12.746 11.36 12.939 11.4033 13.1345 11.4041H14.7273L14.5909 11.7633C14.4902 12.0296 14.4553 12.3162 14.489 12.5988C14.5226 12.8815 14.624 13.1519 14.7845 13.3872C14.9449 13.6226 15.1598 13.8159 15.4109 13.951C15.662 14.0861 15.942 14.1589 16.2273 14.1633C16.3331 14.1641 16.4369 14.1342 16.526 14.0772C16.6151 14.0202 16.6857 13.9385 16.7291 13.8422L17.9509 11.0884C17.9787 11.0284 17.9954 10.9639 18 10.898V6.54423C18 6.39989 17.9425 6.26147 17.8402 6.15941C17.7379 6.05735 17.5992 6.00001 17.4545 6.00001ZM16.9091 10.751L15.9109 12.9986C15.8135 12.9457 15.7295 12.8713 15.6655 12.781C15.6013 12.6903 15.5607 12.5851 15.5473 12.4749C15.534 12.3647 15.5484 12.253 15.5891 12.1497L15.7964 11.6054C15.8509 11.4643 15.8695 11.3119 15.8504 11.1618C15.8314 11.0117 15.7753 10.8687 15.6873 10.7456C15.6006 10.6229 15.4852 10.5231 15.3512 10.4549C15.2172 10.3866 15.0686 10.3519 14.9182 10.3537H13.1236C13.0874 10.3538 13.0516 10.3461 13.0186 10.3311C12.9857 10.3161 12.9564 10.2941 12.9327 10.2667C12.8904 10.2086 12.8727 10.1363 12.8836 10.0653L13.3855 7.34423C13.3831 7.3105 13.3879 7.27665 13.3996 7.24493C13.4113 7.2132 13.4297 7.1843 13.4534 7.16014C13.4771 7.13597 13.5056 7.11709 13.5372 7.10473C13.5687 7.09238 13.6025 7.08683 13.6364 7.08844H16.9091V10.751ZM10.8764 12.5578H9.3L9.43636 12.1986C9.53558 11.9308 9.56852 11.6429 9.53237 11.3596C9.49623 11.0763 9.39207 10.8059 9.22875 10.5714C9.06544 10.3369 8.84778 10.1451 8.59429 10.0125C8.3408 9.87984 8.05896 9.81022 7.77273 9.80953C7.66688 9.80869 7.56307 9.83861 7.47396 9.89562C7.38486 9.95263 7.31431 10.0343 7.27091 10.1306L6.04909 12.8844C6.01783 12.9528 6.00112 13.0269 6 13.102V17.4558C6 17.6001 6.05747 17.7385 6.15976 17.8406C6.26205 17.9427 6.40079 18 6.54545 18H10.3636C10.6759 18.0013 10.9787 17.8929 11.219 17.694C11.4593 17.495 11.6219 17.218 11.6782 16.9116L12.18 14.1905C12.2147 13.999 12.2068 13.8023 12.1568 13.6142C12.1069 13.4261 12.0161 13.2513 11.8909 13.102C11.7726 12.9421 11.6203 12.8104 11.4449 12.7163C11.2694 12.6222 11.0753 12.5681 10.8764 12.5578ZM10.6145 16.683C10.6052 16.7416 10.5743 16.7947 10.528 16.8319C10.4816 16.8691 10.423 16.8878 10.3636 16.8843H7.09091V13.2218L8.08909 10.9742C8.18651 11.027 8.27048 11.1015 8.33455 11.1918C8.39874 11.2825 8.43932 11.3877 8.45265 11.4979C8.46598 11.6081 8.45164 11.7198 8.41091 11.8231L8.20364 12.3673C8.14911 12.5085 8.13053 12.6609 8.14957 12.811C8.16861 12.9611 8.22467 13.1041 8.31273 13.2272C8.39823 13.3519 8.51302 13.4538 8.64709 13.524C8.78116 13.5942 8.93041 13.6306 9.08182 13.6299H10.8764C10.9126 13.6298 10.9484 13.6376 10.9814 13.6526C11.0143 13.6676 11.0436 13.6896 11.0673 13.717C11.1096 13.775 11.1273 13.8474 11.1164 13.9184L10.6145 16.683Z" fill="white"/>
</svg>
